<svg version="1.1" id="Layer_1" xmlns="http://www.w3.org/2000/svg" xmlns:xlink="http://www.w3.org/1999/xlink" x="0px" y="0px"
	 width="100%" viewBox="0 0 687 377" enable-background="new 0 0 687 377" xml:space="preserve">
<path fill="#FFFFFF" opacity="1.000000" stroke="none" 
	d="
M688.000000,193.000000 
	C688.000000,254.626266 688.000000,316.252533 688.000000,378.000000 
	C527.312439,378.000000 366.624878,378.000000 205.572952,377.668945 
	C206.787674,374.876434 208.973816,372.613251 209.852463,369.923004 
	C219.203430,341.291992 228.336288,312.589783 237.552948,283.914825 
	C240.992752,273.212952 244.702698,262.592682 247.894592,251.818222 
	C249.964584,244.830841 253.070374,242.043930 260.474762,241.999619 
	C269.621063,241.944855 278.767273,241.883499 288.384552,241.893311 
	C416.786438,241.974411 544.717346,241.989761 672.648193,241.992935 
	C679.569214,241.993103 682.024841,239.236298 682.000000,231.681610 
	C681.976929,224.658417 680.187500,222.964111 672.582642,223.007141 
	C616.005371,223.327301 559.428589,223.834763 502.850983,223.958740 
	C426.892303,224.125214 350.932953,223.998718 274.973907,224.007004 
	C272.978271,224.007217 270.982605,224.111664 268.523254,224.101685 
	C263.640320,224.023819 259.216736,223.885727 254.803116,224.037064 
	C250.825989,224.173416 246.859726,224.626907 242.525787,224.973480 
	C239.770584,227.640961 236.212494,229.880585 235.165726,232.970856 
	C224.316177,265.001099 213.912735,297.182251 203.205093,329.261261 
	C202.601257,331.070282 200.284256,333.686584 199.008652,333.555328 
	C197.277451,333.377228 195.317032,331.170654 194.296005,329.359833 
	C192.822311,326.746185 192.103485,323.706879 191.035141,320.467773 
	C189.347168,314.890381 187.688416,309.693878 186.025757,304.498627 
	C178.365234,280.562439 170.737244,256.615753 163.019623,232.697952 
	C161.002991,226.448166 157.304428,224.030334 150.294006,224.258331 
	C115.267761,224.318985 80.692726,224.340363 45.826744,224.241104 
	C45.327374,224.146088 45.118961,224.171692 44.605431,224.029190 
	C41.120422,221.503052 41.849186,219.138062 44.554466,217.154175 
	C53.355049,210.700317 62.289204,204.428421 71.080002,197.961502 
	C78.151917,192.759094 85.090439,187.375381 92.439728,182.026993 
	C104.526649,173.480331 116.216049,164.914368 128.016068,156.503616 
	C134.207626,152.090424 135.430344,148.845428 133.085876,141.434662 
	C130.738693,134.015289 128.441696,126.579788 126.052147,119.174126 
	C118.344627,95.287048 110.597061,71.412903 102.896660,47.523533 
	C102.454491,46.151768 102.001022,44.676598 102.060188,43.270908 
	C102.220062,39.473091 106.048088,37.521923 109.134514,39.728088 
	C117.874748,45.975571 126.472755,52.421989 135.210205,58.673454 
	C142.060822,63.574917 149.035767,68.302597 156.095245,73.417572 
	C168.165909,82.476486 180.121231,91.192284 192.014130,99.992455 
	C196.055481,102.982849 200.348709,102.860138 204.424759,100.730034 
	C207.552521,99.095490 210.187698,96.531212 213.083282,94.437569 
	C239.507156,75.331818 265.928864,56.222939 292.417816,37.207783 
	C293.329712,36.553181 295.550171,36.290054 296.098663,36.862362 
	C297.196808,38.008148 298.422882,40.075859 298.094971,41.387699 
	C292.854004,62.353619 287.368408,83.258316 281.957703,104.181915 
	C280.877075,108.360855 282.566376,111.549019 286.435120,112.804001 
	C291.722870,114.519295 298.812042,111.095428 300.644012,105.791824 
	C301.591309,103.049377 302.236633,100.201515 302.993408,97.394554 
	C309.876801,71.863815 316.700348,46.316772 323.658295,20.806379 
	C326.874756,9.013568 326.417755,6.190903 320.000000,1.000000 
	C442.562408,1.000000 565.124817,1.000000 688.000000,1.000000 
	C688.000000,49.687115 688.000000,98.374901 687.648560,147.416321 
	C685.222900,140.389511 680.092651,135.302567 673.899292,131.539627 
	C664.773499,125.995056 654.436951,125.657112 644.275452,127.171478 
	C635.843811,128.428040 628.684265,132.628632 622.899048,139.264526 
	C614.338989,149.083221 612.506104,160.585663 612.954468,173.027527 
	C614.095459,204.693512 640.476501,215.213440 664.039490,210.447876 
	C674.616516,208.308731 682.386292,202.075729 688.000000,193.000000 
M503.946655,179.407990 
	C507.400238,171.725845 510.853851,164.043701 514.307434,156.361572 
	C514.627319,156.449783 514.947205,156.537994 515.267090,156.626205 
	C515.267090,174.027802 515.267090,191.429382 515.267090,208.646851 
	C520.404785,208.646851 525.140259,208.646851 529.633911,208.646851 
	C529.633911,181.564346 529.633911,154.836029 529.633911,128.000153 
	C523.940735,128.000153 518.607849,127.870102 513.289856,128.093628 
	C511.996460,128.147980 510.055420,129.054626 509.591400,130.095230 
	C504.212189,142.158279 499.122284,154.349869 493.817963,166.447006 
	C491.475952,171.788361 488.820953,176.992493 485.961639,182.984879 
	C485.326721,181.511978 485.144318,181.078506 484.953857,180.648590 
	C477.704407,164.281128 470.488525,147.898560 463.142670,131.574493 
	C462.516937,130.184006 461.080200,128.230270 459.924805,128.162399 
	C454.019806,127.815552 448.083466,128.002106 442.000000,128.002106 
	C442.000000,141.979263 442.000000,155.294846 442.000000,168.610428 
	C442.000000,182.026566 442.000000,195.442703 442.000000,208.634094 
	C447.432373,208.634094 452.169739,208.634094 457.146790,208.634094 
	C457.146790,191.054794 457.146790,173.840485 457.146790,155.085342 
	C462.185089,166.240601 467.026733,175.853439 470.915924,185.837311 
	C476.412201,199.946732 476.114716,199.875137 490.491913,200.133865 
	C494.049377,200.197876 495.374176,198.741608 496.527557,195.991348 
	C498.771912,190.639572 501.148529,185.343262 503.946655,179.407990 
M395.000000,197.482239 
	C395.000000,186.725571 395.000000,175.968903 395.000000,165.323120 
	C381.977631,165.323120 369.579102,165.323120 357.344849,165.323120 
	C357.344849,169.388489 357.344849,173.120453 357.344849,177.241760 
	C364.759430,177.241760 371.832611,177.241760 379.394226,177.241760 
	C378.546753,180.684875 377.787415,183.632797 377.098083,186.596985 
	C375.238586,194.593185 358.544067,199.991806 347.767303,194.928574 
	C339.046997,190.831497 335.364319,183.495071 333.518768,174.321289 
	C331.811584,165.835144 336.061279,149.922012 346.078125,144.869705 
	C357.108734,139.306076 368.020264,141.217163 375.469177,150.957855 
	C376.078094,151.754105 376.971222,152.876694 377.762604,152.902039 
	C383.135590,153.074051 388.516724,152.991959 394.248688,152.991959 
	C391.817535,141.196960 385.754395,133.552353 375.091003,129.491348 
	C367.818054,126.721542 360.470001,126.200600 352.793243,126.938118 
	C339.341919,128.230408 329.449829,134.751740 322.360931,146.107834 
	C316.038391,156.236282 316.202454,167.490662 317.211151,178.534637 
	C318.256104,189.975647 324.033295,199.572937 333.783478,205.848175 
	C346.262054,213.879379 368.127075,213.415787 379.832916,203.281799 
	C380.403259,205.138916 380.960938,206.954697 381.497192,208.700760 
	C385.934753,208.700760 390.350067,208.700760 395.000000,208.700760 
	C395.000000,205.094498 395.000000,201.785172 395.000000,197.482239 
M590.392761,174.000000 
	C592.165100,174.000000 593.937439,174.000000 595.709351,174.000000 
	C595.709351,169.386536 595.709351,165.321304 595.709351,160.826508 
	C584.355957,160.826508 573.286499,160.826508 562.325012,160.826508 
	C562.325012,154.315933 562.325012,148.248642 562.325012,141.759384 
	C575.714417,141.759384 588.782715,141.759384 601.640808,141.759384 
	C601.640808,136.916672 601.640808,132.515884 601.640808,128.370697 
	C583.218689,128.370697 565.157288,128.370697 547.377808,128.370697 
	C547.377808,155.466843 547.377808,182.191437 547.377808,208.787430 
	C566.032104,208.787430 584.308044,208.787430 602.768555,208.787430 
	C602.768555,204.175827 602.768555,199.778015 602.768555,194.944305 
	C589.144165,194.944305 575.743469,194.944305 562.264709,194.944305 
	C562.264709,187.773972 562.264709,181.043671 562.264709,174.379364 
	C562.827637,174.212448 563.129822,174.045258 563.432556,174.044388 
	C572.094238,174.019363 580.755981,174.011032 590.392761,174.000000 
M251.992294,192.455460 
	C253.014740,198.904480 256.296539,203.793549 261.811096,207.351761 
	C268.149170,211.441299 275.186920,211.039291 282.215698,211.006683 
	C293.117798,210.956116 302.497803,204.113632 305.636475,193.869919 
	C308.454163,184.673935 307.113617,176.076202 301.038788,168.666550 
	C294.231689,160.363754 285.182007,158.471710 275.029907,161.054398 
	C273.113861,161.541840 271.273254,162.325928 269.196259,163.042709 
	C269.920990,157.757370 270.571503,153.013519 271.275574,147.878845 
	C281.905579,147.878845 292.314026,147.878845 302.706421,147.878845 
	C302.706421,143.045715 302.706421,138.648132 302.706421,134.267944 
	C287.330231,134.267944 272.249207,134.267944 256.907013,134.267944 
	C255.923370,145.097015 254.933838,155.682129 254.016876,166.273514 
	C253.740402,169.466812 252.320831,173.905182 253.839539,175.568481 
	C255.723221,177.631516 260.085236,177.681610 263.437653,178.057663 
	C265.371735,178.274643 268.205505,178.121231 269.286285,176.920837 
	C273.175812,172.600800 277.979523,171.888596 282.788879,173.509979 
	C287.819305,175.205872 290.131195,179.601196 290.468719,184.984879 
	C290.789886,190.107742 287.710663,195.460266 283.074799,197.409653 
	C278.399567,199.375610 272.613129,198.037918 269.386871,193.774490 
	C267.920624,191.836884 267.252167,189.295578 266.304382,187.209839 
	C261.136200,187.209839 256.173248,187.209839 250.688202,187.209839 
	C251.164185,188.895050 251.546844,190.249893 251.992294,192.455460 
M306.847504,320.383820 
	C302.942657,315.643158 298.906097,314.726227 294.991028,317.499756 
	C288.060669,317.499756 283.207550,317.499756 278.182526,317.499756 
	C278.182526,324.694519 278.182526,332.130249 278.182526,339.935089 
	C279.555908,339.832214 280.718903,339.745117 282.000427,339.649170 
	C282.000427,334.442352 281.623108,329.582458 282.197235,324.837708 
	C282.409210,323.086243 284.617798,320.651947 286.346069,320.209320 
	C289.513428,319.398071 291.053284,321.657196 291.012573,324.898926 
	C290.960388,329.056000 290.904480,333.218170 291.074493,337.368958 
	C291.113068,338.310852 292.073517,339.214935 292.609650,340.136444 
	C293.073547,339.932861 293.537476,339.729309 294.001404,339.525757 
	C294.001404,335.059937 293.373779,330.467773 294.237976,326.175964 
	C294.752197,323.622223 297.446930,319.829346 299.455597,319.634949 
	C302.743469,319.316803 304.097473,322.840668 304.019836,326.296967 
	C303.933929,330.120117 303.935242,333.948944 304.061432,337.769897 
	C304.085968,338.512177 304.858612,339.229706 305.286163,339.958649 
	C305.856415,339.206604 306.901428,338.466553 306.920776,337.700592 
	C307.059326,332.216034 306.989166,326.726196 306.847504,320.383820 
M445.998077,324.040405 
	C445.998077,329.323029 445.998077,334.605682 445.998077,339.888306 
	C446.456543,340.032379 446.915009,340.176453 447.373474,340.320526 
	C447.915070,339.362885 448.873444,338.426605 448.923920,337.443726 
	C449.111298,333.791534 448.943207,330.122864 449.016693,326.462524 
	C449.091675,322.728058 451.327454,319.484406 454.559143,319.455444 
	C457.669769,319.427490 459.513519,322.511444 459.081818,326.351471 
	C458.693817,329.803192 458.897736,333.337769 459.061981,336.825378 
	C459.112061,337.889282 459.895721,338.918640 460.343384,339.963837 
	C460.895508,338.857056 461.874969,337.768829 461.923981,336.640198 
	C462.111481,332.320801 462.033905,327.988068 461.991394,323.660950 
	C461.937622,318.186249 457.282532,314.901672 452.087952,317.057373 
	C449.169739,318.268463 446.813812,317.806702 443.887024,317.182251 
	C440.520264,316.463898 436.803345,317.386658 433.000488,317.610687 
	C433.000488,323.922729 433.130798,330.408966 432.945190,336.886169 
	C432.853088,340.099487 434.121460,340.528687 437.000000,339.521576 
	C437.000000,335.014557 436.686279,330.511780 437.137299,326.087006 
	C437.350708,323.993530 439.027557,322.049255 440.041351,320.037415 
	C442.020538,321.075287 443.999756,322.113159 445.998077,324.040405 
M484.000000,329.623535 
	C484.000000,328.957550 484.029114,328.290070 483.995209,327.625824 
	C483.796234,323.731110 484.260559,320.097870 489.259125,320.059937 
	C494.441864,320.020630 493.977692,324.025940 493.995148,327.498383 
	C494.015839,331.615723 494.000000,335.733246 494.000000,339.850708 
	C494.450470,340.002625 494.900940,340.154541 495.351410,340.306427 
	C495.900299,339.364227 496.872864,338.443817 496.922729,337.475891 
	C497.110992,333.822693 496.894989,330.150177 497.029602,326.492249 
	C497.161743,322.902374 497.155701,318.762146 493.544128,317.503693 
	C490.390472,316.404785 486.514099,317.379913 481.438049,317.463867 
	C478.588135,313.155914 473.066010,318.607269 468.001160,316.985535 
	C468.001160,324.044495 467.951050,330.695007 468.061401,337.342865 
	C468.076019,338.224060 468.907318,339.091675 469.360413,339.965546 
	C469.906769,339.018463 470.877319,338.092072 470.924622,337.120728 
	C471.110779,333.300262 470.659637,329.423248 471.121490,325.650024 
	C471.479462,322.725647 472.762573,319.847839 476.677155,320.000153 
	C480.614380,320.153351 480.840149,323.122803 480.959290,325.917816 
	C481.122192,329.740265 480.897308,333.579651 481.075897,337.400696 
	C481.119324,338.330780 482.088440,339.217590 482.631927,340.124298 
	C483.087952,339.913147 483.543976,339.701965 484.000000,339.490814 
	C484.000000,336.517487 484.000000,333.544189 484.000000,329.623535 
M648.000000,259.731354 
	C647.407227,258.502930 646.814453,257.274536 646.221619,256.046112 
	C645.814392,257.297058 645.165039,258.526886 645.053650,259.803650 
	C644.860413,262.019318 645.000000,264.264008 645.000000,266.726776 
	C636.026367,261.415314 629.608887,264.671112 627.225037,273.465424 
	C625.037720,281.534576 632.596619,289.923981 640.204651,287.899872 
	C642.633667,287.253632 645.041260,286.526489 648.000000,285.681763 
	C648.000000,277.989319 648.000000,269.338287 648.000000,259.731354 
M252.013992,331.356781 
	C254.619263,338.936646 256.463165,340.273407 263.935974,339.999817 
	C268.734528,339.824158 272.599365,336.848206 272.842163,332.275208 
	C273.066864,328.042908 270.580353,324.898071 266.792114,323.054535 
	C264.491455,321.934875 261.990234,321.235565 259.630829,320.226471 
	C255.727524,318.557129 256.156494,315.887451 258.360168,313.195923 
	C261.368561,309.521515 266.365662,310.367004 268.943817,314.658997 
	C269.629303,315.800140 271.044739,316.502777 272.125031,317.406738 
	C272.613495,315.317200 272.420685,314.192047 271.957336,313.192200 
	C269.598053,308.100983 265.113800,307.558502 260.313141,308.028503 
	C255.973694,308.453339 253.865875,311.641327 253.129181,315.346619 
	C252.265030,319.692993 254.991928,322.385315 258.815338,323.953979 
	C260.738922,324.743164 263.043274,324.933838 264.631927,326.121979 
	C266.408691,327.450714 268.297577,329.445129 268.732330,331.453979 
	C269.003357,332.706177 266.993103,335.061676 265.447083,335.978241 
	C261.501251,338.317627 257.688812,336.921143 256.281403,332.320648 
	C255.363495,329.320160 254.122299,329.637360 252.013992,331.356781 
M394.195007,312.027008 
	C395.682434,313.420776 397.105438,314.893372 398.680023,316.180511 
	C399.725555,317.035187 400.987885,317.624634 403.074432,318.892670 
	C400.257843,309.778748 394.590668,306.300568 386.395599,308.098206 
	C381.147095,309.249542 375.181458,314.848602 375.978363,326.242584 
	C376.459686,333.124420 381.948517,339.438721 388.183868,339.998230 
	C396.302917,340.726746 401.482910,337.406738 403.240845,328.926453 
	C400.965363,330.438812 399.257690,331.020844 398.447662,332.212860 
	C395.703461,336.251160 392.147736,337.375488 387.334564,336.139038 
	C381.459900,334.629913 379.807404,329.839905 379.220856,325.153473 
	C378.244293,317.350952 386.026672,307.682373 394.195007,312.027008 
M417.552643,260.034668 
	C413.238220,255.824463 404.658997,254.262619 400.451569,257.237305 
	C394.736023,261.278259 391.821960,268.696564 394.110626,278.173523 
	C395.641602,284.512909 401.689270,288.338806 409.134674,287.999847 
	C414.690369,287.746887 419.068817,283.904938 420.716644,276.474701 
	C418.373932,278.420197 417.101471,279.515991 415.787750,280.559937 
	C412.821899,282.916809 410.307404,286.013977 405.621002,284.294006 
	C398.699493,281.753632 394.713715,273.998657 397.453369,267.121613 
	C398.976562,263.298065 401.095856,259.683441 405.755920,259.035065 
	C410.242249,258.410858 413.675110,260.064880 416.090424,264.054718 
	C416.707489,265.074005 418.282013,265.513702 419.416626,266.219666 
	C419.727997,265.878723 420.039368,265.537781 420.350739,265.196808 
	C419.589417,263.665100 418.828125,262.133362 417.552643,260.034668 
M487.176849,281.657043 
	C490.103149,286.552612 494.948792,289.077362 499.241455,287.888947 
	C501.651398,287.221710 504.037354,286.467804 506.998993,285.584473 
	C506.998993,277.300934 507.034760,267.991089 506.941162,258.682587 
	C506.932251,257.796082 506.114349,256.917725 505.672058,256.035553 
	C505.114899,256.971436 504.165253,257.871979 504.077057,258.850128 
	C503.848877,261.381439 504.000549,263.947021 504.000549,266.736694 
	C494.167114,261.156799 487.000061,265.206451 487.000824,275.822449 
	C487.000946,277.486450 487.011414,279.150452 487.176849,281.657043 
M344.219513,284.000488 
	C339.609161,284.000488 334.998779,284.000488 330.228119,284.000488 
	C330.228119,280.167938 330.228119,276.775513 330.228119,272.999115 
	C334.396759,272.999115 338.351135,273.078003 342.297852,272.939484 
	C343.199127,272.907867 344.074036,272.125671 344.961060,271.688934 
	C344.034271,271.126129 343.128143,270.122009 342.177124,270.077576 
	C338.243622,269.893829 334.296570,270.000519 330.243927,270.000519 
	C330.243927,266.135773 330.243927,262.743042 330.243927,258.998871 
	C334.766846,258.998871 339.056488,259.073700 343.339417,258.937592 
	C344.227264,258.909363 345.090240,258.097961 345.964661,257.647491 
	C345.189056,257.099243 344.425079,256.096252 343.635925,256.075989 
	C338.206604,255.936646 332.771973,256.002747 327.239777,256.002747 
	C327.239777,266.541504 327.239777,276.588501 327.239777,286.996246 
	C333.252930,286.996246 339.034698,287.042664 344.813690,286.937500 
	C345.536957,286.924377 346.245667,286.110443 346.961121,285.667542 
	C346.361267,285.113556 345.761383,284.559601 344.219513,284.000488 
M357.901794,286.967438 
	C367.685364,289.720459 374.678650,285.809540 374.960297,277.232880 
	C375.162170,271.085602 375.071442,264.924591 374.921967,258.774323 
	C374.899536,257.851166 373.841095,256.953247 373.261902,256.043671 
	C372.841492,256.946320 372.078186,257.841156 372.057343,258.752930 
	C371.939606,263.906250 372.123322,269.067322 371.967926,274.218628 
	C371.779541,280.465546 368.144684,285.295074 363.567505,284.892273 
	C358.106140,284.411713 354.374420,280.127472 354.892700,273.969421 
	C355.389526,268.066101 355.000000,262.088226 355.000000,256.143097 
	C354.592346,255.978333 354.184662,255.813553 353.777008,255.648773 
	C353.186218,256.437744 352.097168,257.217590 352.082520,258.017120 
	C351.951416,265.166473 351.568878,272.361481 352.247528,279.448547 
	C352.490326,281.983887 355.432953,284.260712 357.901794,286.967438 
M589.662964,336.996063 
	C585.644470,335.981537 583.138916,333.734222 583.152588,328.943176 
	C588.814941,328.943176 594.273010,328.943176 599.718506,328.943176 
	C599.827454,321.342743 595.703430,315.587708 590.026855,316.203674 
	C584.563782,316.796478 579.108276,319.736664 579.922119,330.165283 
	C580.420288,336.548981 583.997620,340.172455 590.727417,339.999908 
	C595.703125,339.872314 598.625854,337.253296 598.398560,332.737793 
	C595.661011,334.207855 593.061951,335.603577 589.662964,336.996063 
M598.998657,270.105530 
	C597.827393,265.580750 594.553406,263.619080 590.279907,264.134918 
	C586.239746,264.622589 583.075745,266.742950 583.049622,272.959167 
	C584.883606,271.519104 585.850525,270.462280 587.048767,269.889374 
	C588.807434,269.048523 590.852600,267.803406 592.558167,268.078613 
	C595.481812,268.550354 596.723145,270.775848 595.708435,273.499329 
	C592.281738,274.047516 588.800354,273.784760 586.349854,275.248169 
	C584.280396,276.484009 582.303467,279.738831 582.339905,282.067932 
	C582.370972,284.057343 585.216736,287.548706 587.000000,287.668945 
	C591.936523,288.001770 596.968445,286.920288 600.956421,286.503113 
	C600.222412,284.046600 599.290527,282.034058 599.076843,279.947968 
	C598.773865,276.990173 599.000000,273.978210 598.998657,270.105530 
M324.161499,338.978363 
	C326.392548,339.213684 328.623596,339.449036 330.612732,339.658875 
	C330.045135,336.112488 329.413452,332.860016 329.040955,329.578125 
	C328.817719,327.611267 329.081116,325.594421 328.982697,323.607147 
	C328.758087,319.072937 325.689728,316.177643 321.103760,316.063690 
	C316.332520,315.945160 313.608459,318.670807 313.414185,324.498199 
	C317.852783,322.419312 323.227295,314.561615 326.328400,326.002502 
	C323.883698,326.002502 321.886078,325.739471 319.986145,326.058319 
	C316.245483,326.686157 312.485199,327.660706 312.025574,332.391510 
	C311.396637,338.864807 315.806183,341.450592 324.161499,338.978363 
M287.066498,287.966064 
	C287.637848,287.665436 288.182159,287.287994 288.784698,287.076019 
	C294.857849,284.939056 297.388947,278.583099 294.993073,271.428162 
	C293.038483,265.591064 287.504272,262.918671 281.508820,264.916901 
	C276.082001,266.725555 272.867615,272.327972 274.062714,278.548370 
	C275.076965,283.827515 278.229218,288.045624 287.066498,287.966064 
M435.462677,288.000000 
	C440.803741,287.554810 444.766235,284.417664 445.807465,279.361450 
	C446.744904,274.809113 446.124390,270.098541 442.407166,267.238251 
	C440.003235,265.388489 436.072906,264.128510 433.163666,264.615967 
	C426.869751,265.670563 423.798248,270.345825 424.000397,276.351074 
	C424.226837,283.077698 427.389313,286.544952 435.462677,288.000000 
M532.699280,270.190033 
	C530.050964,265.702545 525.947998,263.459595 520.950012,264.162323 
	C516.525391,264.784454 513.512756,267.818390 512.258240,272.284546 
	C510.491669,278.573608 514.409485,286.578552 519.912231,287.938934 
	C525.966248,289.435608 531.445312,285.680939 533.096741,278.432800 
	C533.634338,276.073242 533.044495,273.456787 532.699280,270.190033 
M424.363678,338.093445 
	C425.826782,334.951508 427.936096,331.942627 428.616272,328.639465 
	C429.962341,322.102234 422.030640,314.792755 415.976471,316.500824 
	C408.048309,318.737579 404.661926,325.205780 407.325989,332.837921 
	C409.893250,340.192841 417.955902,341.651642 424.363678,338.093445 
M269.893219,272.441986 
	C268.907104,271.628113 267.978455,270.213348 266.924164,270.112518 
	C263.697906,269.804016 260.423401,270.000397 257.333313,270.000397 
	C257.333313,265.955872 257.333313,262.560699 257.333313,259.000000 
	C259.813141,259.000000 261.960602,259.000000 264.108063,259.000000 
	C266.374207,259.000000 268.640381,259.000000 271.142639,259.000000 
	C269.845093,255.757187 260.961334,254.899094 253.153000,256.678894 
	C253.153000,266.610992 253.153000,276.546478 253.153000,286.914703 
	C254.486984,286.849396 255.648605,286.792542 257.231232,286.715057 
	C257.231232,281.945374 257.231232,277.546509 257.231232,273.000000 
	C259.485657,273.000000 261.303345,273.007568 263.120941,272.997986 
	C265.115112,272.987488 267.109192,272.961182 269.893219,272.441986 
M622.134521,270.612183 
	C620.876892,265.783478 616.702881,262.998077 612.570374,264.153595 
	C610.266663,264.797729 607.923889,265.302399 605.204224,265.966248 
	C605.204224,272.314941 605.204224,279.413483 605.204224,286.918365 
	C606.516235,286.838898 607.679688,286.768433 609.000061,286.688446 
	C609.000061,281.982300 609.236877,277.644867 608.929871,273.346283 
	C608.651672,269.450073 611.178955,267.359253 613.950684,267.319458 
	C616.746765,267.279327 619.282166,269.369385 619.059448,273.238617 
	C618.803223,277.690430 618.999939,282.168304 618.999939,286.991913 
	C620.606506,286.836884 621.773132,286.724274 622.736755,286.631287 
	C622.736755,281.206085 622.736755,276.222504 622.134521,270.612183 
M516.000000,329.209381 
	C516.397217,333.080811 515.361816,336.621216 511.095734,336.841461 
	C506.094574,337.099640 505.896332,333.040192 505.983795,329.228546 
	C506.060242,325.898376 506.073792,322.561920 505.938202,319.235474 
	C505.907745,318.488678 505.141235,317.771942 504.713562,317.041321 
	C504.143402,317.795471 503.110840,318.531311 503.080200,319.306793 
	C502.915802,323.465271 502.985046,327.633667 503.003723,331.798523 
	C503.032410,338.185730 505.530121,340.542908 511.735321,339.986816 
	C514.360718,339.751495 516.974548,339.387482 519.800537,339.057831 
	C519.800537,332.280640 519.800537,324.832245 519.800537,317.035797 
	C518.397583,317.165588 517.234314,317.273224 516.000000,317.387421 
	C516.000000,321.291779 516.000000,324.785583 516.000000,329.209381 
M530.497314,321.030090 
	C536.552185,318.699524 538.967651,320.170227 538.996948,326.224304 
	C539.013794,329.710693 539.000061,333.197235 539.000183,336.683685 
	C539.000183,337.648346 539.000244,338.613007 539.000244,339.953156 
	C540.562073,339.832825 541.723999,339.743317 542.999695,339.645050 
	C542.999695,334.445984 543.181763,329.630676 542.942505,324.836395 
	C542.748291,320.943329 541.532043,317.342773 536.795227,317.001434 
	C533.326355,316.751434 529.825012,316.952423 526.300293,316.952423 
	C526.300293,324.808960 526.300293,332.355194 526.300293,339.901428 
	C526.818420,340.022339 527.336548,340.143250 527.854675,340.264191 
	C528.236450,338.977722 528.840637,337.711517 528.960327,336.401123 
	C529.405212,331.527710 529.690796,326.639771 530.497314,321.030090 
M604.999329,337.492218 
	C606.062378,338.227203 607.033508,339.343842 608.205566,339.626160 
	C611.842712,340.502289 615.877014,340.704590 617.971436,337.177185 
	C619.039062,335.379181 618.869385,331.859741 617.758789,330.028137 
	C616.610291,328.134277 613.586426,327.429535 611.492249,326.039886 
	C609.977600,325.034729 608.641479,323.760406 607.225769,322.606140 
	C607.987427,321.736786 608.772644,320.122528 609.505920,320.145844 
	C611.295288,320.202576 613.091125,320.932404 614.825256,321.555664 
	C616.096191,322.012421 617.273376,322.729950 618.492371,323.331268 
	C618.463989,321.190979 618.078125,319.673004 617.125183,318.725250 
	C614.672363,316.285828 611.505981,315.055573 608.461731,317.128906 
	C606.567383,318.419098 604.609985,320.703186 604.199890,322.833618 
	C603.570374,326.103638 606.099976,328.019806 609.191528,329.011230 
	C610.711426,329.498596 612.293579,330.077057 613.549255,331.013977 
	C614.574402,331.778900 616.039612,333.697449 615.767639,334.126404 
	C614.991211,335.350464 613.310608,336.948730 612.201416,336.799255 
	C610.389038,336.554932 608.723694,335.082916 607.041870,334.054260 
	C605.880371,333.343811 604.795654,332.507690 603.676636,331.727753 
	C603.374512,332.140381 603.072449,332.553009 602.770325,332.965607 
	C603.321960,334.286316 603.873535,335.607025 604.999329,337.492218 
M559.337708,274.051849 
	C557.898926,272.948364 556.460205,271.844879 555.021423,270.741333 
	C555.909058,269.737091 556.742310,267.967346 557.696411,267.899628 
	C559.318054,267.784576 561.062866,268.627563 562.664368,269.289429 
	C563.656494,269.699493 564.479553,270.518524 566.143372,271.694611 
	C564.943604,265.816620 561.729126,263.230774 557.510742,264.058624 
	C553.707153,264.805054 551.611511,266.944672 551.918091,271.290802 
	C552.208618,275.408936 555.147705,275.859131 558.002563,277.168854 
	C559.969666,278.071320 561.449280,280.173096 562.858093,281.965729 
	C563.015808,282.166412 560.972412,284.829926 560.490784,284.674500 
	C558.293518,283.965515 556.266296,282.698639 554.226746,281.545990 
	C553.353638,281.052521 552.599304,280.348755 551.354309,279.411957 
	C551.209961,285.102203 553.207947,287.437500 557.838196,287.996796 
	C561.841492,288.480408 566.838013,285.605804 566.833191,282.186188 
	C566.827209,277.990509 564.020752,275.500854 559.337708,274.051849 
M353.523560,338.988342 
	C355.233246,339.324829 356.938782,339.868805 358.654449,339.902863 
	C359.415375,339.917938 360.196747,338.902618 360.968842,338.355042 
	C360.264130,337.904297 359.610443,337.300415 358.840973,337.044006 
	C357.996246,336.762482 357.044861,336.801056 356.150970,336.701385 
	C356.150970,331.042816 356.150970,325.774628 356.150970,320.302582 
	C357.803406,320.078979 359.360199,319.868317 360.916992,319.657684 
	C361.054077,319.169739 361.191162,318.681793 361.328278,318.193848 
	C359.618439,317.588287 357.908600,316.982727 356.164246,316.364929 
	C356.018890,314.622009 355.871490,312.854492 355.594299,309.531036 
	C354.194244,311.408325 353.493317,312.152039 353.026245,313.021423 
	C352.360809,314.260010 352.100952,315.788361 351.228363,316.821869 
	C350.481934,317.706055 349.117004,318.068054 348.025635,318.661011 
	C349.279785,319.339203 350.533966,320.017365 351.500244,320.539886 
	C352.026550,326.539978 352.539886,332.392548 353.523560,338.988342 
M567.317810,337.076263 
	C564.216309,337.317627 562.756165,336.137360 562.944946,332.780853 
	C563.176392,328.664612 563.000183,324.525452 563.000183,320.765594 
	C564.946411,319.991730 566.451355,319.393341 567.956238,318.794983 
	C566.369446,317.886261 564.782593,316.977539 562.966370,315.937408 
	C562.966370,314.942017 563.118835,313.586517 562.889648,312.298920 
	C562.800659,311.798859 561.893982,311.259033 561.272827,311.116852 
	C560.960693,311.045410 560.048401,311.885162 560.097229,312.208649 
	C560.660461,315.938782 558.661499,317.186859 555.388428,317.470978 
	C555.208862,317.486572 555.145630,318.842438 555.013062,319.669128 
	C556.858704,319.941711 558.396790,320.168884 560.001709,320.405914 
	C560.001709,325.751160 559.705322,330.760437 560.177307,335.696228 
	C560.324097,337.231781 562.315796,339.104309 563.910278,339.806061 
	C564.958435,340.267426 568.277954,341.523041 567.317810,337.076263 
M540.027771,265.032776 
	C539.353027,265.668488 538.106201,266.291626 538.091858,266.941833 
	C537.947021,273.531372 538.003540,280.125397 538.003540,286.757568 
	C539.543701,286.757568 540.603821,286.757568 542.000000,286.757568 
	C542.000000,282.911316 542.144775,279.283508 541.964844,275.671875 
	C541.718262,270.721863 542.837952,267.117706 548.731384,267.804749 
	C549.650940,263.887573 548.011841,263.433044 545.092468,264.365814 
	C543.711243,264.807129 542.253967,265.010651 540.027771,265.032776 
M335.000000,331.447021 
	C335.715057,334.283813 333.400787,337.997589 338.000153,340.984406 
	C338.000153,336.267151 337.919189,332.649719 338.018402,329.037231 
	C338.183441,323.026123 340.414215,320.343353 346.030762,319.471039 
	C345.873901,318.317535 345.716583,317.160858 345.593445,316.255310 
	C341.880310,316.871674 338.585449,317.418610 335.000000,318.013763 
	C335.000000,321.824615 335.000000,326.145172 335.000000,331.447021 
M454.001862,274.041779 
	C454.771057,271.161499 455.457642,268.366730 459.262085,267.856415 
	C460.108185,267.742889 460.720398,265.885559 462.183716,263.742249 
	C457.449432,264.514008 454.326721,265.023041 451.276917,265.520203 
	C451.276917,272.661652 451.276917,279.771240 451.276917,286.880829 
	C452.915649,286.361633 453.860382,285.427521 453.923828,284.437012 
	C454.125671,281.283997 453.999542,278.109985 454.001862,274.041779 
M465.057220,286.094910 
	C467.465607,287.964325 468.034790,286.760193 468.008636,284.375244 
	C467.970398,280.882904 468.050598,277.388855 467.985199,273.897308 
	C467.925232,270.698090 469.280975,268.829895 472.450897,267.910706 
	C473.631622,267.568329 474.473785,266.058228 475.470306,265.080627 
	C475.136475,264.715942 474.802643,264.351288 474.468781,263.986603 
	C471.442535,264.502899 468.416321,265.019196 465.005554,265.601074 
	C465.005554,271.900238 465.005554,278.528992 465.057220,286.094910 
M303.994293,285.170898 
	C303.996185,281.863861 304.125031,278.550873 303.970001,275.251190 
	C303.742798,270.414612 305.142151,267.180115 310.775085,267.893005 
	C310.775085,266.422302 310.775085,265.332489 310.775085,263.963501 
	C307.412994,264.526794 304.304230,265.047638 301.001434,265.600983 
	C301.001434,271.846313 301.023071,278.122650 300.990479,284.398651 
	C300.978027,286.795563 301.568573,287.937866 303.994293,285.170898 
M549.059082,317.890930 
	C549.039490,324.221741 548.950256,330.553864 549.067017,336.882172 
	C549.087097,337.971680 549.982910,339.045105 550.474182,340.125946 
	C550.982788,339.923035 551.491394,339.720093 552.000000,339.517181 
	C552.000000,338.038177 552.000122,336.559174 552.000000,335.080170 
	C551.999512,329.915131 552.109558,324.745361 551.889587,319.589691 
	C551.852966,318.730652 550.379944,317.932892 549.059082,317.890930 
M575.000000,330.464569 
	C575.000000,326.016174 575.000000,321.567749 575.000000,316.933228 
	C571.798828,318.064453 570.783508,330.316162 572.683167,340.541931 
	C576.600769,338.000885 574.281128,334.283020 575.000000,330.464569 
M479.005493,266.836792 
	C479.004913,272.834717 478.959106,278.833466 479.063110,284.829559 
	C479.075623,285.548401 479.901306,286.253174 480.350037,286.964447 
	C480.898224,286.353577 481.911011,285.751343 481.922607,285.130463 
	C482.037537,278.968262 482.024170,272.801910 481.859161,266.641815 
	C481.851898,266.370087 480.032593,266.146942 479.005493,266.836792 
z"/>
<path fill="#FFFFFF" opacity="1.000000" stroke="none" 
	d="
M193.000000,378.000000 
	C129.084167,378.000000 65.168327,378.000000 1.000000,378.000000 
	C1.000000,331.312744 1.000000,284.625031 1.333584,237.566055 
	C4.647439,241.046814 8.511072,242.121338 13.378481,242.098175 
	C50.837002,241.919815 88.296783,242.019608 125.756065,241.959915 
	C128.510300,241.955536 131.263626,241.379150 134.292236,241.364929 
	C135.384232,241.773666 136.199463,241.967087 137.018784,241.986359 
	C146.536163,242.210358 146.637787,242.206070 149.600906,251.257721 
	C158.831268,279.454407 168.005615,307.669403 177.307678,336.290222 
	C179.940918,344.619232 182.315689,352.588348 185.044479,360.434357 
	C187.157684,366.510406 187.947586,373.238007 193.000000,378.000000 
z"/>
<path fill="#FFFFFF" opacity="1.000000" stroke="none" 
	d="
M1.000004,227.000000 
	C1.000000,151.775558 1.000000,76.551117 1.000000,1.000000 
	C26.353292,1.000000 51.707989,1.000000 77.417770,1.336542 
	C72.521469,4.889091 70.990562,8.790387 72.801865,14.425106 
	C75.818970,23.810947 78.828354,33.199371 81.881798,42.573418 
	C91.898682,73.325157 102.033073,104.039169 111.897629,134.839645 
	C114.618507,143.335190 113.349686,144.463379 106.924721,149.080490 
	C96.510887,156.564072 86.270485,164.288986 75.633316,172.052155 
	C74.358444,172.803375 73.373650,173.368454 72.460793,174.032440 
	C57.740593,184.739532 42.976746,195.387726 28.335625,206.202042 
	C19.127029,213.003754 10.105474,220.058685 1.000004,227.000000 
z"/>
<path fill="#FFFFFF" opacity="1.000000" stroke="none" 
	d="
M88.000000,1.000000 
	C161.687561,1.000000 235.375122,1.000000 309.443726,1.340141 
	C298.576233,9.926197 287.351562,18.204933 276.073944,26.410921 
	C255.217285,41.586952 234.381271,56.792328 213.427399,71.833252 
	C205.911865,77.228004 197.588882,80.223984 188.874008,74.940071 
	C181.944214,70.738464 175.545624,65.652847 168.964783,60.885746 
	C162.647003,56.309216 156.398132,51.637569 149.981201,46.678398 
	C136.939789,37.096165 123.979927,27.920321 111.153389,18.561750 
	C103.329506,12.853243 95.710838,6.863451 88.000000,1.000000 
z"/>
<path fill="#122769" opacity="1.000000" stroke="none" 
	d="
M150.118973,47.007721 
	C156.398132,51.637569 162.647003,56.309216 168.964783,60.885746 
	C175.545624,65.652847 181.944214,70.738464 188.874008,74.940071 
	C197.588882,80.223984 205.911865,77.228004 213.427399,71.833252 
	C234.381271,56.792328 255.217285,41.586952 276.073944,26.410921 
	C287.351562,18.204933 298.576233,9.926197 309.912415,1.340141 
	C313.030609,1.000000 316.061188,1.000000 319.545898,1.000000 
	C326.417755,6.190903 326.874756,9.013568 323.658295,20.806379 
	C316.700348,46.316772 309.876801,71.863815 302.993408,97.394554 
	C302.236633,100.201515 301.591309,103.049377 300.644012,105.791824 
	C298.812042,111.095428 291.722870,114.519295 286.435120,112.804001 
	C282.566376,111.549019 280.877075,108.360855 281.957703,104.181915 
	C287.368408,83.258316 292.854004,62.353619 298.094971,41.387699 
	C298.422882,40.075859 297.196808,38.008148 296.098663,36.862362 
	C295.550171,36.290054 293.329712,36.553181 292.417816,37.207783 
	C265.928864,56.222939 239.507156,75.331818 213.083282,94.437569 
	C210.187698,96.531212 207.552521,99.095490 204.424759,100.730034 
	C200.348709,102.860138 196.055481,102.982849 192.014130,99.992455 
	C180.121231,91.192284 168.165909,82.476486 156.088379,73.040558 
	C152.677719,64.208839 149.113968,56.133076 150.118973,47.007721 
z"/>
<path fill="#0F64AD" opacity="1.000000" stroke="none" 
	d="
M149.981201,46.678394 
	C149.113968,56.133076 152.677719,64.208839 155.948608,72.730484 
	C149.035767,68.302597 142.060822,63.574917 135.210205,58.673454 
	C126.472755,52.421989 117.874748,45.975571 109.134514,39.728088 
	C106.048088,37.521923 102.220062,39.473091 102.060188,43.270908 
	C102.001022,44.676598 102.454491,46.151768 102.896660,47.523533 
	C110.597061,71.412903 118.344627,95.287048 126.052147,119.174126 
	C128.441696,126.579788 130.738693,134.015289 133.085876,141.434662 
	C135.430344,148.845428 134.207626,152.090424 128.016068,156.503616 
	C116.216049,164.914368 104.526649,173.480331 92.115364,181.882660 
	C86.278564,178.492981 81.117714,175.202499 75.956863,171.912018 
	C86.270485,164.288986 96.510887,156.564072 106.924721,149.080490 
	C113.349686,144.463379 114.618507,143.335190 111.897629,134.839645 
	C102.033073,104.039169 91.898682,73.325157 81.881798,42.573418 
	C78.828354,33.199371 75.818970,23.810947 72.801865,14.425106 
	C70.990562,8.790387 72.521469,4.889091 77.886429,1.336542 
	C81.030594,1.000000 84.061188,1.000000 87.545891,1.000000 
	C95.710838,6.863451 103.329506,12.853243 111.153389,18.561750 
	C123.979927,27.920321 136.939789,37.096165 149.981201,46.678394 
z"/>
<path fill="#0A9ED6" opacity="1.000000" stroke="none" 
	d="
M75.633316,172.052155 
	C81.117714,175.202499 86.278564,178.492981 91.763771,181.927795 
	C85.090439,187.375381 78.151917,192.759094 71.080002,197.961502 
	C62.289204,204.428421 53.355049,210.700317 44.554466,217.154175 
	C41.849186,219.138062 41.120422,221.503052 44.712559,224.191544 
	C45.455769,224.468582 45.786736,224.415161 46.117699,224.361725 
	C80.692726,224.340363 115.267761,224.318985 150.423889,224.435654 
	C151.004974,224.573700 151.312897,224.887711 151.214279,225.151794 
	C151.058517,225.594910 151.001358,225.773926 150.645996,226.114304 
	C148.953537,227.825714 147.696060,229.532059 146.138290,230.895203 
	C142.169525,234.368134 138.066589,237.687729 134.017365,241.068695 
	C131.263626,241.379150 128.510300,241.955536 125.756065,241.959915 
	C88.296783,242.019608 50.837002,241.919815 13.378481,242.098175 
	C8.511072,242.121338 4.647439,241.046814 1.333584,237.097397 
	C1.000000,233.969406 1.000000,230.938812 1.000004,227.454117 
	C10.105474,220.058685 19.127029,213.003754 28.335625,206.202042 
	C42.976746,195.387726 57.740593,184.739532 72.460793,174.032440 
	C73.373650,173.368454 74.358444,172.803375 75.633316,172.052155 
z"/>
<path fill="#2EA8C4" opacity="1.000000" stroke="none" 
	d="
M193.460632,378.000000 
	C187.947586,373.238007 187.157684,366.510406 185.044479,360.434357 
	C182.315689,352.588348 179.940918,344.619232 177.637512,336.122192 
	C182.261749,330.643890 186.662155,325.746552 191.062561,320.849213 
	C192.103485,323.706879 192.822311,326.746185 194.296005,329.359833 
	C195.317032,331.170654 197.277451,333.377228 199.008652,333.555328 
	C200.284256,333.686584 202.601257,331.070282 203.205093,329.261261 
	C213.912735,297.182251 224.316177,265.001099 235.165726,232.970856 
	C236.212494,229.880585 239.770584,227.640961 243.001801,224.992554 
	C252.239868,224.972275 260.639008,224.965927 269.349854,225.098877 
	C275.745544,230.767120 281.829559,236.296051 287.913544,241.824997 
	C278.767273,241.883499 269.621063,241.944855 260.474762,241.999619 
	C253.070374,242.043930 249.964584,244.830841 247.894592,251.818222 
	C244.702698,262.592682 240.992752,273.212952 237.552948,283.914825 
	C228.336288,312.589783 219.203430,341.291992 209.852463,369.923004 
	C208.973816,372.613251 206.787674,374.876434 205.104294,377.668945 
	C201.307098,378.000000 197.614182,378.000000 193.460632,378.000000 
z"/>
<path fill="#122769" opacity="1.000000" stroke="none" 
	d="
M688.000000,192.545898 
	C682.386292,202.075729 674.616516,208.308731 664.039490,210.447876 
	C640.476501,215.213440 614.095459,204.693512 612.954468,173.027527 
	C612.506104,160.585663 614.338989,149.083221 622.899048,139.264526 
	C628.684265,132.628632 635.843811,128.428040 644.275452,127.171478 
	C654.436951,125.657112 664.773499,125.995056 673.899292,131.539627 
	C680.092651,135.302567 685.222900,140.389511 687.648560,147.884979 
	C688.000000,150.041672 688.000000,152.083328 687.532043,154.562500 
	C681.914612,155.000000 676.765198,155.000000 671.675049,155.000000 
	C666.948486,140.712006 651.128845,139.266129 641.520203,144.910095 
	C630.970703,151.106705 625.290710,169.318863 632.773926,183.841415 
	C640.299194,198.445633 661.493408,200.302673 669.128113,188.859344 
	C673.271057,182.649628 677.905762,182.909363 683.508728,182.996475 
	C685.005493,183.019745 686.502869,183.000000 688.000000,183.000000 
	C688.000000,186.030594 688.000000,189.061188 688.000000,192.545898 
z"/>
<path fill="#FFFFFF" opacity="1.000000" stroke="none" 
	d="
M688.000000,182.531342 
	C686.502869,183.000000 685.005493,183.019745 683.508728,182.996475 
	C677.905762,182.909363 673.271057,182.649628 669.128113,188.859344 
	C661.493408,200.302673 640.299194,198.445633 632.773926,183.841415 
	C625.290710,169.318863 630.970703,151.106705 641.520203,144.910095 
	C651.128845,139.266129 666.948486,140.712006 671.675049,155.000000 
	C676.765198,155.000000 681.914612,155.000000 687.532043,155.000000 
	C688.000000,164.020889 688.000000,173.041794 688.000000,182.531342 
z"/>
<path fill="#63BD99" opacity="1.000000" stroke="none" 
	d="
M288.384552,241.893311 
	C281.829559,236.296051 275.745544,230.767120 269.334656,224.901199 
	C269.007751,224.564224 268.986969,224.167496 268.986969,224.167496 
	C270.982605,224.111664 272.978271,224.007217 274.973907,224.007004 
	C350.932953,223.998718 426.892303,224.125214 502.850983,223.958740 
	C559.428589,223.834763 616.005371,223.327301 672.582642,223.007141 
	C680.187500,222.964111 681.976929,224.658417 682.000000,231.681610 
	C682.024841,239.236298 679.569214,241.993103 672.648193,241.992935 
	C544.717346,241.989761 416.786438,241.974411 288.384552,241.893311 
z"/>
<path fill="#122769" opacity="1.000000" stroke="none" 
	d="
M503.708496,179.715988 
	C501.148529,185.343262 498.771912,190.639572 496.527557,195.991348 
	C495.374176,198.741608 494.049377,200.197876 490.491913,200.133865 
	C476.114716,199.875137 476.412201,199.946732 470.915924,185.837311 
	C467.026733,175.853439 462.185089,166.240601 457.146790,155.085342 
	C457.146790,173.840485 457.146790,191.054794 457.146790,208.634094 
	C452.169739,208.634094 447.432373,208.634094 442.000000,208.634094 
	C442.000000,195.442703 442.000000,182.026566 442.000000,168.610428 
	C442.000000,155.294846 442.000000,141.979263 442.000000,128.002106 
	C448.083466,128.002106 454.019806,127.815552 459.924805,128.162399 
	C461.080200,128.230270 462.516937,130.184006 463.142670,131.574493 
	C470.488525,147.898560 477.704407,164.281128 484.953857,180.648590 
	C485.144318,181.078506 485.326721,181.511978 485.961639,182.984879 
	C488.820953,176.992493 491.475952,171.788361 493.817963,166.447006 
	C499.122284,154.349869 504.212189,142.158279 509.591400,130.095230 
	C510.055420,129.054626 511.996460,128.147980 513.289856,128.093628 
	C518.607849,127.870102 523.940735,128.000153 529.633911,128.000153 
	C529.633911,154.836029 529.633911,181.564346 529.633911,208.646851 
	C525.140259,208.646851 520.404785,208.646851 515.267090,208.646851 
	C515.267090,191.429382 515.267090,174.027802 515.267090,156.626205 
	C514.947205,156.537994 514.627319,156.449783 514.307434,156.361572 
	C510.853851,164.043701 507.400238,171.725845 503.708496,179.715988 
z"/>
<path fill="#122769" opacity="1.000000" stroke="none" 
	d="
M395.000000,197.979050 
	C395.000000,201.785172 395.000000,205.094498 395.000000,208.700760 
	C390.350067,208.700760 385.934753,208.700760 381.497192,208.700760 
	C380.960938,206.954697 380.403259,205.138916 379.832916,203.281799 
	C368.127075,213.415787 346.262054,213.879379 333.783478,205.848175 
	C324.033295,199.572937 318.256104,189.975647 317.211151,178.534637 
	C316.202454,167.490662 316.038391,156.236282 322.360931,146.107834 
	C329.449829,134.751740 339.341919,128.230408 352.793243,126.938118 
	C360.470001,126.200600 367.818054,126.721542 375.091003,129.491348 
	C385.754395,133.552353 391.817535,141.196960 394.248688,152.991959 
	C388.516724,152.991959 383.135590,153.074051 377.762604,152.902039 
	C376.971222,152.876694 376.078094,151.754105 375.469177,150.957855 
	C368.020264,141.217163 357.108734,139.306076 346.078125,144.869705 
	C336.061279,149.922012 331.811584,165.835144 333.518768,174.321289 
	C335.364319,183.495071 339.046997,190.831497 347.767303,194.928574 
	C358.544067,199.991806 375.238586,194.593185 377.098083,186.596985 
	C377.787415,183.632797 378.546753,180.684875 379.394226,177.241760 
	C371.832611,177.241760 364.759430,177.241760 357.344849,177.241760 
	C357.344849,173.120453 357.344849,169.388489 357.344849,165.323120 
	C369.579102,165.323120 381.977631,165.323120 395.000000,165.323120 
	C395.000000,175.968903 395.000000,186.725571 395.000000,197.979050 
z"/>
<path fill="#122769" opacity="1.000000" stroke="none" 
	d="
M589.905273,174.000000 
	C580.755981,174.011032 572.094238,174.019363 563.432556,174.044388 
	C563.129822,174.045258 562.827637,174.212448 562.264709,174.379364 
	C562.264709,181.043671 562.264709,187.773972 562.264709,194.944305 
	C575.743469,194.944305 589.144165,194.944305 602.768555,194.944305 
	C602.768555,199.778015 602.768555,204.175827 602.768555,208.787430 
	C584.308044,208.787430 566.032104,208.787430 547.377808,208.787430 
	C547.377808,182.191437 547.377808,155.466843 547.377808,128.370697 
	C565.157288,128.370697 583.218689,128.370697 601.640808,128.370697 
	C601.640808,132.515884 601.640808,136.916672 601.640808,141.759384 
	C588.782715,141.759384 575.714417,141.759384 562.325012,141.759384 
	C562.325012,148.248642 562.325012,154.315933 562.325012,160.826508 
	C573.286499,160.826508 584.355957,160.826508 595.709351,160.826508 
	C595.709351,165.321304 595.709351,169.386536 595.709351,174.000000 
	C593.937439,174.000000 592.165100,174.000000 589.905273,174.000000 
z"/>
<path fill="#122769" opacity="1.000000" stroke="none" 
	d="
M251.960907,192.030090 
	C251.546844,190.249893 251.164185,188.895050 250.688202,187.209839 
	C256.173248,187.209839 261.136200,187.209839 266.304382,187.209839 
	C267.252167,189.295578 267.920624,191.836884 269.386871,193.774490 
	C272.613129,198.037918 278.399567,199.375610 283.074799,197.409653 
	C287.710663,195.460266 290.789886,190.107742 290.468719,184.984879 
	C290.131195,179.601196 287.819305,175.205872 282.788879,173.509979 
	C277.979523,171.888596 273.175812,172.600800 269.286285,176.920837 
	C268.205505,178.121231 265.371735,178.274643 263.437653,178.057663 
	C260.085236,177.681610 255.723221,177.631516 253.839539,175.568481 
	C252.320831,173.905182 253.740402,169.466812 254.016876,166.273514 
	C254.933838,155.682129 255.923370,145.097015 256.907013,134.267944 
	C272.249207,134.267944 287.330231,134.267944 302.706421,134.267944 
	C302.706421,138.648132 302.706421,143.045715 302.706421,147.878845 
	C292.314026,147.878845 281.905579,147.878845 271.275574,147.878845 
	C270.571503,153.013519 269.920990,157.757370 269.196259,163.042709 
	C271.273254,162.325928 273.113861,161.541840 275.029907,161.054398 
	C285.182007,158.471710 294.231689,160.363754 301.038788,168.666550 
	C307.113617,176.076202 308.454163,184.673935 305.636475,193.869919 
	C302.497803,204.113632 293.117798,210.956116 282.215698,211.006683 
	C275.186920,211.039291 268.149170,211.441299 261.811096,207.351761 
	C256.296539,203.793549 253.014740,198.904480 251.960907,192.030090 
z"/>
<path fill="#B8E3F0" opacity="1.000000" stroke="none" 
	d="
M191.035141,320.467773 
	C186.662155,325.746552 182.261749,330.643890 177.531494,335.709290 
	C168.005615,307.669403 158.831268,279.454407 149.600906,251.257721 
	C146.637787,242.206070 146.536163,242.210358 137.018784,241.986359 
	C136.199463,241.967087 135.384232,241.773666 134.292236,241.364914 
	C138.066589,237.687729 142.169525,234.368134 146.138290,230.895203 
	C147.696060,229.532059 148.953537,227.825714 150.862030,226.086121 
	C151.479721,225.797226 151.687698,225.663864 151.668365,225.604416 
	C151.586777,225.353516 151.437454,225.124634 151.312897,224.887711 
	C151.312897,224.887711 151.004974,224.573700 150.875092,224.396378 
	C157.304428,224.030334 161.002991,226.448166 163.019623,232.697952 
	C170.737244,256.615753 178.365234,280.562439 186.025757,304.498627 
	C187.688416,309.693878 189.347168,314.890381 191.035141,320.467773 
z"/>
<path fill="#122769" opacity="1.000000" stroke="none" 
	d="
M306.916412,320.810913 
	C306.989166,326.726196 307.059326,332.216034 306.920776,337.700592 
	C306.901428,338.466553 305.856415,339.206604 305.286163,339.958649 
	C304.858612,339.229706 304.085968,338.512177 304.061432,337.769897 
	C303.935242,333.948944 303.933929,330.120117 304.019836,326.296967 
	C304.097473,322.840668 302.743469,319.316803 299.455597,319.634949 
	C297.446930,319.829346 294.752197,323.622223 294.237976,326.175964 
	C293.373779,330.467773 294.001404,335.059937 294.001404,339.525757 
	C293.537476,339.729309 293.073547,339.932861 292.609650,340.136444 
	C292.073517,339.214935 291.113068,338.310852 291.074493,337.368958 
	C290.904480,333.218170 290.960388,329.056000 291.012573,324.898926 
	C291.053284,321.657196 289.513428,319.398071 286.346069,320.209320 
	C284.617798,320.651947 282.409210,323.086243 282.197235,324.837708 
	C281.623108,329.582458 282.000427,334.442352 282.000427,339.649170 
	C280.718903,339.745117 279.555908,339.832214 278.182526,339.935089 
	C278.182526,332.130249 278.182526,324.694519 278.182526,317.499756 
	C283.207550,317.499756 288.060669,317.499756 294.991028,317.499756 
	C298.906097,314.726227 302.942657,315.643158 306.916412,320.810913 
z"/>
<path fill="#122769" opacity="1.000000" stroke="none" 
	d="
M445.988525,323.595703 
	C443.999756,322.113159 442.020538,321.075287 440.041321,320.037415 
	C439.027557,322.049255 437.350708,323.993530 437.137299,326.087006 
	C436.686279,330.511780 437.000000,335.014557 437.000000,339.521576 
	C434.121460,340.528687 432.853088,340.099487 432.945190,336.886169 
	C433.130798,330.408966 433.000488,323.922729 433.000488,317.610687 
	C436.803345,317.386658 440.520264,316.463898 443.887024,317.182251 
	C446.813812,317.806702 449.169739,318.268463 452.087952,317.057373 
	C457.282532,314.901672 461.937622,318.186249 461.991394,323.660950 
	C462.033905,327.988068 462.111481,332.320801 461.923981,336.640198 
	C461.874969,337.768829 460.895508,338.857056 460.343384,339.963837 
	C459.895721,338.918640 459.112061,337.889282 459.061981,336.825378 
	C458.897736,333.337769 458.693817,329.803192 459.081818,326.351471 
	C459.513519,322.511444 457.669769,319.427490 454.559143,319.455444 
	C451.327454,319.484406 449.091675,322.728058 449.016693,326.462524 
	C448.943207,330.122864 449.111298,333.791534 448.923920,337.443726 
	C448.873444,338.426605 447.915070,339.362885 447.373474,340.320526 
	C446.915009,340.176453 446.456543,340.032379 445.998077,339.888306 
	C445.998077,334.605682 445.998077,329.323029 445.988525,323.595703 
z"/>
<path fill="#122769" opacity="1.000000" stroke="none" 
	d="
M484.000000,330.097198 
	C484.000000,333.544189 484.000000,336.517487 484.000000,339.490814 
	C483.543976,339.701965 483.087952,339.913147 482.631927,340.124298 
	C482.088440,339.217590 481.119324,338.330780 481.075897,337.400696 
	C480.897308,333.579651 481.122192,329.740265 480.959290,325.917816 
	C480.840149,323.122803 480.614380,320.153351 476.677155,320.000153 
	C472.762573,319.847839 471.479462,322.725647 471.121490,325.650024 
	C470.659637,329.423248 471.110779,333.300262 470.924622,337.120728 
	C470.877319,338.092072 469.906769,339.018463 469.360413,339.965546 
	C468.907318,339.091675 468.076019,338.224060 468.061401,337.342865 
	C467.951050,330.695007 468.001160,324.044495 468.001160,316.985535 
	C473.066010,318.607269 478.588135,313.155914 481.438049,317.463867 
	C486.514099,317.379913 490.390472,316.404785 493.544128,317.503693 
	C497.155701,318.762146 497.161743,322.902374 497.029602,326.492249 
	C496.894989,330.150177 497.110992,333.822693 496.922729,337.475891 
	C496.872864,338.443817 495.900299,339.364227 495.351410,340.306427 
	C494.900940,340.154541 494.450470,340.002625 494.000000,339.850708 
	C494.000000,335.733246 494.015839,331.615723 493.995148,327.498383 
	C493.977692,324.025940 494.441864,320.020630 489.259125,320.059937 
	C484.260559,320.097870 483.796234,323.731110 483.995209,327.625824 
	C484.029114,328.290070 484.000000,328.957550 484.000000,330.097198 
z"/>
<path fill="#122769" opacity="1.000000" stroke="none" 
	d="
M648.000000,260.209290 
	C648.000000,269.338287 648.000000,277.989319 648.000000,285.681763 
	C645.041260,286.526489 642.633667,287.253632 640.204651,287.899872 
	C632.596619,289.923981 625.037720,281.534576 627.225037,273.465424 
	C629.608887,264.671112 636.026367,261.415314 645.000000,266.726776 
	C645.000000,264.264008 644.860413,262.019318 645.053650,259.803650 
	C645.165039,258.526886 645.814392,257.297058 646.221680,256.046112 
	C646.814453,257.274536 647.407227,258.502930 648.000000,260.209290 
M632.012573,281.097504 
	C633.839355,283.434479 635.534363,285.750122 639.211121,284.386505 
	C643.446106,282.815826 644.763184,279.163635 644.694458,275.542084 
	C644.622742,271.763855 642.495117,267.879883 638.376465,267.313965 
	C635.116028,266.865936 631.927429,269.023712 631.275513,272.627960 
	C630.833008,275.074127 631.590515,277.737305 632.012573,281.097504 
z"/>
<path fill="#122769" opacity="1.000000" stroke="none" 
	d="
M252.053223,330.948547 
	C254.122299,329.637360 255.363495,329.320160 256.281403,332.320648 
	C257.688812,336.921143 261.501251,338.317627 265.447083,335.978241 
	C266.993103,335.061676 269.003357,332.706177 268.732330,331.453979 
	C268.297577,329.445129 266.408691,327.450714 264.631927,326.121979 
	C263.043274,324.933838 260.738922,324.743164 258.815338,323.953979 
	C254.991928,322.385315 252.265030,319.692993 253.129181,315.346619 
	C253.865875,311.641327 255.973694,308.453339 260.313141,308.028503 
	C265.113800,307.558502 269.598053,308.100983 271.957336,313.192200 
	C272.420685,314.192047 272.613495,315.317200 272.125031,317.406738 
	C271.044739,316.502777 269.629303,315.800140 268.943817,314.658997 
	C266.365662,310.367004 261.368561,309.521515 258.360168,313.195923 
	C256.156494,315.887451 255.727524,318.557129 259.630829,320.226471 
	C261.990234,321.235565 264.491455,321.934875 266.792114,323.054535 
	C270.580353,324.898071 273.066864,328.042908 272.842163,332.275208 
	C272.599365,336.848206 268.734528,339.824158 263.935974,339.999817 
	C256.463165,340.273407 254.619263,338.936646 252.053223,330.948547 
z"/>
<path fill="#122769" opacity="1.000000" stroke="none" 
	d="
M393.798767,311.953186 
	C386.026672,307.682373 378.244293,317.350952 379.220856,325.153473 
	C379.807404,329.839905 381.459900,334.629913 387.334564,336.139038 
	C392.147736,337.375488 395.703461,336.251160 398.447662,332.212860 
	C399.257690,331.020844 400.965363,330.438812 403.240845,328.926453 
	C401.482910,337.406738 396.302917,340.726746 388.183868,339.998230 
	C381.948517,339.438721 376.459686,333.124420 375.978363,326.242584 
	C375.181458,314.848602 381.147095,309.249542 386.395599,308.098206 
	C394.590668,306.300568 400.257843,309.778748 403.074432,318.892670 
	C400.987885,317.624634 399.725555,317.035187 398.680023,316.180511 
	C397.105438,314.893372 395.682434,313.420776 393.798767,311.953186 
z"/>
<path fill="#122769" opacity="1.000000" stroke="none" 
	d="
M417.809723,260.318146 
	C418.828125,262.133362 419.589417,263.665100 420.350739,265.196808 
	C420.039368,265.537781 419.727997,265.878723 419.416626,266.219666 
	C418.282013,265.513702 416.707489,265.074005 416.090424,264.054718 
	C413.675110,260.064880 410.242249,258.410858 405.755920,259.035065 
	C401.095856,259.683441 398.976562,263.298065 397.453369,267.121613 
	C394.713715,273.998657 398.699493,281.753632 405.621002,284.294006 
	C410.307404,286.013977 412.821899,282.916809 415.787750,280.559937 
	C417.101471,279.515991 418.373932,278.420197 420.716644,276.474701 
	C419.068817,283.904938 414.690369,287.746887 409.134674,287.999847 
	C401.689270,288.338806 395.641602,284.512909 394.110626,278.173523 
	C391.821960,268.696564 394.736023,261.278259 400.451569,257.237305 
	C404.658997,254.262619 413.238220,255.824463 417.809723,260.318146 
z"/>
<path fill="#122769" opacity="1.000000" stroke="none" 
	d="
M487.096985,281.235748 
	C487.011414,279.150452 487.000946,277.486450 487.000824,275.822449 
	C487.000061,265.206451 494.167114,261.156799 504.000549,266.736694 
	C504.000549,263.947021 503.848877,261.381439 504.077057,258.850128 
	C504.165253,257.871979 505.114899,256.971436 505.672058,256.035553 
	C506.114349,256.917725 506.932251,257.796082 506.941162,258.682587 
	C507.034760,267.991089 506.998993,277.300934 506.998993,285.584473 
	C504.037354,286.467804 501.651398,287.221710 499.241455,287.888947 
	C494.948792,289.077362 490.103149,286.552612 487.096985,281.235748 
M501.508545,282.975006 
	C502.150208,281.678101 502.877136,280.415680 503.418304,279.078156 
	C505.467529,274.013397 500.997101,265.943207 496.657196,267.293152 
	C494.108459,268.085968 490.807220,270.765625 490.392059,273.058014 
	C489.830872,276.156555 491.017883,280.129608 492.745667,282.931396 
	C494.552124,285.860809 498.022369,285.575745 501.508545,282.975006 
z"/>
<path fill="#122769" opacity="1.000000" stroke="none" 
	d="
M344.690521,284.003052 
	C345.761383,284.559601 346.361267,285.113556 346.961121,285.667542 
	C346.245667,286.110443 345.536957,286.924377 344.813690,286.937500 
	C339.034698,287.042664 333.252930,286.996246 327.239777,286.996246 
	C327.239777,276.588501 327.239777,266.541504 327.239777,256.002747 
	C332.771973,256.002747 338.206604,255.936646 343.635925,256.075989 
	C344.425079,256.096252 345.189056,257.099243 345.964661,257.647491 
	C345.090240,258.097961 344.227264,258.909363 343.339417,258.937592 
	C339.056488,259.073700 334.766846,258.998871 330.243927,258.998871 
	C330.243927,262.743042 330.243927,266.135773 330.243927,270.000519 
	C334.296570,270.000519 338.243622,269.893829 342.177124,270.077576 
	C343.128143,270.122009 344.034271,271.126129 344.961060,271.688934 
	C344.074036,272.125671 343.199127,272.907867 342.297852,272.939484 
	C338.351135,273.078003 334.396759,272.999115 330.228119,272.999115 
	C330.228119,276.775513 330.228119,280.167938 330.228119,284.000488 
	C334.998779,284.000488 339.609161,284.000488 344.690521,284.003052 
z"/>
<path fill="#122769" opacity="1.000000" stroke="none" 
	d="
M357.522522,286.811493 
	C355.432953,284.260712 352.490326,281.983887 352.247528,279.448547 
	C351.568878,272.361481 351.951416,265.166473 352.082520,258.017120 
	C352.097168,257.217590 353.186218,256.437744 353.777008,255.648773 
	C354.184662,255.813553 354.592346,255.978333 355.000000,256.143097 
	C355.000000,262.088226 355.389526,268.066101 354.892700,273.969421 
	C354.374420,280.127472 358.106140,284.411713 363.567505,284.892273 
	C368.144684,285.295074 371.779541,280.465546 371.967926,274.218628 
	C372.123322,269.067322 371.939606,263.906250 372.057343,258.752930 
	C372.078186,257.841156 372.841492,256.946320 373.261902,256.043671 
	C373.841095,256.953247 374.899536,257.851166 374.921967,258.774323 
	C375.071442,264.924591 375.162170,271.085602 374.960297,277.232880 
	C374.678650,285.809540 367.685364,289.720459 357.522522,286.811493 
z"/>
<path fill="#122769" opacity="1.000000" stroke="none" 
	d="
M590.062927,336.997681 
	C593.061951,335.603577 595.661011,334.207855 598.398560,332.737793 
	C598.625854,337.253296 595.703125,339.872314 590.727417,339.999908 
	C583.997620,340.172455 580.420288,336.548981 579.922119,330.165283 
	C579.108276,319.736664 584.563782,316.796478 590.026855,316.203674 
	C595.703430,315.587708 599.827454,321.342743 599.718506,328.943176 
	C594.273010,328.943176 588.814941,328.943176 583.152588,328.943176 
	C583.138916,333.734222 585.644470,335.981537 590.062927,336.997681 
M593.141357,325.999847 
	C595.768494,326.115356 597.401062,325.223938 595.077881,322.810089 
	C593.561096,321.234100 590.796509,319.179504 589.302307,319.641296 
	C586.847168,320.400055 584.969421,323.027344 582.848267,324.866760 
	C583.175903,325.244507 583.503479,325.622253 583.831116,326.000000 
	C586.637451,326.000000 589.443726,326.000000 593.141357,325.999847 
z"/>
<path fill="#122769" opacity="1.000000" stroke="none" 
	d="
M598.999329,270.547455 
	C599.000000,273.978210 598.773865,276.990173 599.076843,279.947968 
	C599.290527,282.034058 600.222412,284.046600 600.956421,286.503113 
	C596.968445,286.920288 591.936523,288.001770 587.000000,287.668945 
	C585.216736,287.548706 582.370972,284.057343 582.339905,282.067932 
	C582.303467,279.738831 584.280396,276.484009 586.349854,275.248169 
	C588.800354,273.784760 592.281738,274.047516 595.708435,273.499329 
	C596.723145,270.775848 595.481812,268.550354 592.558167,268.078613 
	C590.852600,267.803406 588.807434,269.048523 587.048767,269.889374 
	C585.850525,270.462280 584.883606,271.519104 583.049622,272.959167 
	C583.075745,266.742950 586.239746,264.622589 590.279907,264.134918 
	C594.553406,263.619080 597.827393,265.580750 598.999329,270.547455 
M595.987610,278.333282 
	C592.639465,275.723358 589.303955,276.535950 586.623962,279.084930 
	C584.482727,281.121490 585.121399,283.325684 588.022339,284.547272 
	C591.452087,285.991577 594.176270,284.167114 595.987610,278.333282 
z"/>
<path fill="#122769" opacity="1.000000" stroke="none" 
	d="
M323.762634,339.062469 
	C315.806183,341.450592 311.396637,338.864807 312.025574,332.391510 
	C312.485199,327.660706 316.245483,326.686157 319.986145,326.058319 
	C321.886078,325.739471 323.883698,326.002502 326.328400,326.002502 
	C323.227295,314.561615 317.852783,322.419312 313.414185,324.498199 
	C313.608459,318.670807 316.332520,315.945160 321.103760,316.063690 
	C325.689728,316.177643 328.758087,319.072937 328.982697,323.607147 
	C329.081116,325.594421 328.817719,327.611267 329.040955,329.578125 
	C329.413452,332.860016 330.045135,336.112488 330.612732,339.658875 
	C328.623596,339.449036 326.392548,339.213684 323.762634,339.062469 
M320.907379,329.002380 
	C318.947784,330.619995 316.988220,332.237610 315.028656,333.855255 
	C316.330261,334.902588 317.517853,336.619354 318.956146,336.864349 
	C322.450470,337.459625 324.813080,335.493225 325.876190,332.167908 
	C326.149933,331.311737 325.917328,330.293671 325.917328,329.000183 
	C324.352509,329.000183 323.055511,329.000183 320.907379,329.002380 
z"/>
<path fill="#122769" opacity="1.000000" stroke="none" 
	d="
M286.651123,287.981323 
	C278.229218,288.045624 275.076965,283.827515 274.062714,278.548370 
	C272.867615,272.327972 276.082001,266.725555 281.508820,264.916901 
	C287.504272,262.918671 293.038483,265.591064 294.993073,271.428162 
	C297.388947,278.583099 294.857849,284.939056 288.784698,287.076019 
	C288.182159,287.287994 287.637848,287.665436 286.651123,287.981323 
M291.602203,272.087158 
	C289.220154,270.442841 286.579407,267.223083 284.522858,267.560822 
	C282.060455,267.965118 279.728729,271.148499 278.005707,273.596558 
	C275.573273,277.052612 277.580963,280.123169 280.150635,282.555634 
	C282.148743,284.447052 284.271210,285.925385 287.513306,284.187378 
	C291.115448,282.256348 292.250183,279.409363 292.256195,275.725098 
	C292.257782,274.746277 292.062561,273.767090 291.602203,272.087158 
z"/>
<path fill="#122769" opacity="1.000000" stroke="none" 
	d="
M435.043915,287.999847 
	C427.389313,286.544952 424.226837,283.077698 424.000397,276.351074 
	C423.798248,270.345825 426.869751,265.670563 433.163666,264.615967 
	C436.072906,264.128510 440.003235,265.388489 442.407166,267.238251 
	C446.124390,270.098541 446.744904,274.809113 445.807465,279.361450 
	C444.766235,284.417664 440.803741,287.554810 435.043915,287.999847 
M442.066223,278.529480 
	C444.610931,274.680420 441.689880,271.910217 439.689941,269.494293 
	C438.589081,268.164398 435.768646,267.557190 433.838654,267.753937 
	C429.208923,268.226013 428.112671,271.660461 427.936249,275.853851 
	C427.743042,280.447327 429.630676,283.858612 433.865479,284.794495 
	C437.771606,285.657745 440.584351,283.088379 442.066223,278.529480 
z"/>
<path fill="#122769" opacity="1.000000" stroke="none" 
	d="
M532.834778,270.573914 
	C533.044495,273.456787 533.634338,276.073242 533.096741,278.432800 
	C531.445312,285.680939 525.966248,289.435608 519.912231,287.938934 
	C514.409485,286.578552 510.491669,278.573608 512.258240,272.284546 
	C513.512756,267.818390 516.525391,264.784454 520.950012,264.162323 
	C525.947998,263.459595 530.050964,265.702545 532.834778,270.573914 
M525.396179,268.053131 
	C523.593933,268.046082 521.561340,267.494629 520.035156,268.140198 
	C516.350708,269.698761 514.675049,273.153809 515.164185,276.867554 
	C515.693237,280.883698 518.101807,284.757965 522.447571,284.694611 
	C524.837341,284.659760 528.284424,282.125641 529.308228,279.844635 
	C531.144409,275.753998 530.690002,271.257538 525.396179,268.053131 
z"/>
<path fill="#122769" opacity="1.000000" stroke="none" 
	d="
M424.092987,338.390869 
	C417.955902,341.651642 409.893250,340.192841 407.325989,332.837921 
	C404.661926,325.205780 408.048309,318.737579 415.976471,316.500824 
	C422.030640,314.792755 429.962341,322.102234 428.616272,328.639465 
	C427.936096,331.942627 425.826782,334.951508 424.092987,338.390869 
M414.257111,320.241302 
	C413.441040,321.063293 412.495331,321.792694 411.831024,322.723053 
	C408.662140,327.161072 409.684357,332.605560 414.192566,335.702850 
	C417.509766,337.981873 422.108795,337.273499 423.626251,333.411316 
	C424.694000,330.693726 424.650940,327.092834 423.887787,324.208038 
	C422.759705,319.943420 418.899750,319.555176 414.257111,320.241302 
z"/>
<path fill="#122769" opacity="1.000000" stroke="none" 
	d="
M269.498291,272.691895 
	C267.109192,272.961182 265.115112,272.987488 263.120941,272.997986 
	C261.303345,273.007568 259.485657,273.000000 257.231232,273.000000 
	C257.231232,277.546509 257.231232,281.945374 257.231232,286.715057 
	C255.648605,286.792542 254.486984,286.849396 253.153000,286.914703 
	C253.153000,276.546478 253.153000,266.610992 253.153000,256.678894 
	C260.961334,254.899094 269.845093,255.757187 271.142639,259.000000 
	C268.640381,259.000000 266.374207,259.000000 264.108063,259.000000 
	C261.960602,259.000000 259.813141,259.000000 257.333313,259.000000 
	C257.333313,262.560699 257.333313,265.955872 257.333313,270.000397 
	C260.423401,270.000397 263.697906,269.804016 266.924164,270.112518 
	C267.978455,270.213348 268.907104,271.628113 269.498291,272.691895 
z"/>
<path fill="#122769" opacity="1.000000" stroke="none" 
	d="
M622.435669,270.925568 
	C622.736755,276.222504 622.736755,281.206085 622.736755,286.631287 
	C621.773132,286.724274 620.606506,286.836884 618.999939,286.991913 
	C618.999939,282.168304 618.803223,277.690430 619.059448,273.238617 
	C619.282166,269.369385 616.746765,267.279327 613.950684,267.319458 
	C611.178955,267.359253 608.651672,269.450073 608.929871,273.346283 
	C609.236877,277.644867 609.000061,281.982300 609.000061,286.688446 
	C607.679688,286.768433 606.516235,286.838898 605.204224,286.918365 
	C605.204224,279.413483 605.204224,272.314941 605.204224,265.966248 
	C607.923889,265.302399 610.266663,264.797729 612.570374,264.153595 
	C616.702881,262.998077 620.876892,265.783478 622.435669,270.925568 
z"/>
<path fill="#122769" opacity="1.000000" stroke="none" 
	d="
M516.000000,328.744385 
	C516.000000,324.785583 516.000000,321.291779 516.000000,317.387421 
	C517.234314,317.273224 518.397583,317.165588 519.800537,317.035797 
	C519.800537,324.832245 519.800537,332.280640 519.800537,339.057831 
	C516.974548,339.387482 514.360718,339.751495 511.735321,339.986816 
	C505.530121,340.542908 503.032410,338.185730 503.003723,331.798523 
	C502.985046,327.633667 502.915802,323.465271 503.080200,319.306793 
	C503.110840,318.531311 504.143402,317.795471 504.713562,317.041321 
	C505.141235,317.771942 505.907745,318.488678 505.938202,319.235474 
	C506.073792,322.561920 506.060242,325.898376 505.983795,329.228546 
	C505.896332,333.040192 506.094574,337.099640 511.095734,336.841461 
	C515.361816,336.621216 516.397217,333.080811 516.000000,328.744385 
z"/>
<path fill="#122769" opacity="1.000000" stroke="none" 
	d="
M530.266785,321.393677 
	C529.690796,326.639771 529.405212,331.527710 528.960327,336.401123 
	C528.840637,337.711517 528.236450,338.977722 527.854675,340.264191 
	C527.336548,340.143250 526.818420,340.022339 526.300293,339.901428 
	C526.300293,332.355194 526.300293,324.808960 526.300293,316.952423 
	C529.825012,316.952423 533.326355,316.751434 536.795227,317.001434 
	C541.532043,317.342773 542.748291,320.943329 542.942505,324.836395 
	C543.181763,329.630676 542.999695,334.445984 542.999695,339.645050 
	C541.723999,339.743317 540.562073,339.832825 539.000244,339.953156 
	C539.000244,338.613007 539.000183,337.648346 539.000183,336.683685 
	C539.000061,333.197235 539.013794,329.710693 538.996948,326.224304 
	C538.967651,320.170227 536.552185,318.699524 530.266785,321.393677 
z"/>
<path fill="#122769" opacity="1.000000" stroke="none" 
	d="
M604.712280,337.209961 
	C603.873535,335.607025 603.321960,334.286316 602.770325,332.965607 
	C603.072449,332.553009 603.374512,332.140381 603.676636,331.727753 
	C604.795654,332.507690 605.880371,333.343811 607.041870,334.054260 
	C608.723694,335.082916 610.389038,336.554932 612.201416,336.799255 
	C613.310608,336.948730 614.991211,335.350464 615.767639,334.126404 
	C616.039612,333.697449 614.574402,331.778900 613.549255,331.013977 
	C612.293579,330.077057 610.711426,329.498596 609.191528,329.011230 
	C606.099976,328.019806 603.570374,326.103638 604.199890,322.833618 
	C604.609985,320.703186 606.567383,318.419098 608.461731,317.128906 
	C611.505981,315.055573 614.672363,316.285828 617.125183,318.725250 
	C618.078125,319.673004 618.463989,321.190979 618.492371,323.331268 
	C617.273376,322.729950 616.096191,322.012421 614.825256,321.555664 
	C613.091125,320.932404 611.295288,320.202576 609.505920,320.145844 
	C608.772644,320.122528 607.987427,321.736786 607.225769,322.606140 
	C608.641479,323.760406 609.977600,325.034729 611.492249,326.039886 
	C613.586426,327.429535 616.610291,328.134277 617.758789,330.028137 
	C618.869385,331.859741 619.039062,335.379181 617.971436,337.177185 
	C615.877014,340.704590 611.842712,340.502289 608.205566,339.626160 
	C607.033508,339.343842 606.062378,338.227203 604.712280,337.209961 
z"/>
<path fill="#122769" opacity="1.000000" stroke="none" 
	d="
M559.661255,274.266998 
	C564.020752,275.500854 566.827209,277.990509 566.833191,282.186188 
	C566.838013,285.605804 561.841492,288.480408 557.838196,287.996796 
	C553.207947,287.437500 551.209961,285.102203 551.354309,279.411957 
	C552.599304,280.348755 553.353638,281.052521 554.226746,281.545990 
	C556.266296,282.698639 558.293518,283.965515 560.490784,284.674500 
	C560.972412,284.829926 563.015808,282.166412 562.858093,281.965729 
	C561.449280,280.173096 559.969666,278.071320 558.002563,277.168854 
	C555.147705,275.859131 552.208618,275.408936 551.918091,271.290802 
	C551.611511,266.944672 553.707153,264.805054 557.510742,264.058624 
	C561.729126,263.230774 564.943604,265.816620 566.143372,271.694611 
	C564.479553,270.518524 563.656494,269.699493 562.664368,269.289429 
	C561.062866,268.627563 559.318054,267.784576 557.696411,267.899628 
	C556.742310,267.967346 555.909058,269.737091 555.021484,270.741333 
	C556.460205,271.844879 557.898926,272.948364 559.661255,274.266998 
z"/>
<path fill="#122769" opacity="1.000000" stroke="none" 
	d="
M353.288391,338.616730 
	C352.539886,332.392548 352.026550,326.539978 351.500244,320.539886 
	C350.533966,320.017365 349.279785,319.339203 348.025635,318.661011 
	C349.117004,318.068054 350.481934,317.706055 351.228363,316.821869 
	C352.100952,315.788361 352.360809,314.260010 353.026245,313.021423 
	C353.493317,312.152039 354.194244,311.408325 355.594299,309.531036 
	C355.871490,312.854492 356.018890,314.622009 356.164246,316.364929 
	C357.908600,316.982727 359.618439,317.588287 361.328278,318.193848 
	C361.191162,318.681793 361.054077,319.169739 360.916992,319.657684 
	C359.360199,319.868317 357.803406,320.078979 356.150970,320.302582 
	C356.150970,325.774628 356.150970,331.042816 356.150970,336.701385 
	C357.044861,336.801056 357.996246,336.762482 358.840973,337.044006 
	C359.610443,337.300415 360.264130,337.904297 360.968811,338.355042 
	C360.196747,338.902618 359.415375,339.917938 358.654449,339.902863 
	C356.938782,339.868805 355.233246,339.324829 353.288391,338.616730 
z"/>
<path fill="#122769" opacity="1.000000" stroke="none" 
	d="
M567.619751,337.385071 
	C568.277954,341.523041 564.958435,340.267426 563.910278,339.806061 
	C562.315796,339.104309 560.324097,337.231781 560.177307,335.696228 
	C559.705322,330.760437 560.001709,325.751160 560.001709,320.405914 
	C558.396790,320.168884 556.858704,319.941711 555.013062,319.669128 
	C555.145630,318.842438 555.208862,317.486572 555.388428,317.470978 
	C558.661499,317.186859 560.660461,315.938782 560.097229,312.208649 
	C560.048401,311.885162 560.960693,311.045410 561.272827,311.116852 
	C561.893982,311.259033 562.800659,311.798859 562.889648,312.298920 
	C563.118835,313.586517 562.966370,314.942017 562.966370,315.937408 
	C564.782593,316.977539 566.369446,317.886261 567.956238,318.794983 
	C566.451355,319.393341 564.946411,319.991730 563.000183,320.765594 
	C563.000183,324.525452 563.176392,328.664612 562.944946,332.780853 
	C562.756165,336.137360 564.216309,337.317627 567.619751,337.385071 
z"/>
<path fill="#122769" opacity="1.000000" stroke="none" 
	d="
M540.429443,265.177338 
	C542.253967,265.010651 543.711243,264.807129 545.092468,264.365814 
	C548.011841,263.433044 549.650940,263.887573 548.731384,267.804749 
	C542.837952,267.117706 541.718262,270.721863 541.964844,275.671875 
	C542.144775,279.283508 542.000000,282.911316 542.000000,286.757568 
	C540.603821,286.757568 539.543701,286.757568 538.003540,286.757568 
	C538.003540,280.125397 537.947021,273.531372 538.091858,266.941833 
	C538.106201,266.291626 539.353027,265.668488 540.429443,265.177338 
z"/>
<path fill="#122769" opacity="1.000000" stroke="none" 
	d="
M335.000000,330.956390 
	C335.000000,326.145172 335.000000,321.824615 335.000000,318.013763 
	C338.585449,317.418610 341.880310,316.871674 345.593445,316.255310 
	C345.716583,317.160858 345.873901,318.317535 346.030762,319.471039 
	C340.414215,320.343353 338.183441,323.026123 338.018402,329.037231 
	C337.919189,332.649719 338.000153,336.267151 338.000153,340.984406 
	C333.400787,337.997589 335.715057,334.283813 335.000000,330.956390 
z"/>
<path fill="#122769" opacity="1.000000" stroke="none" 
	d="
M454.000977,274.492920 
	C453.999542,278.109985 454.125671,281.283997 453.923828,284.437012 
	C453.860382,285.427521 452.915649,286.361633 451.276917,286.880829 
	C451.276917,279.771240 451.276917,272.661652 451.276917,265.520203 
	C454.326721,265.023041 457.449432,264.514008 462.183716,263.742249 
	C460.720398,265.885559 460.108185,267.742889 459.262085,267.856415 
	C455.457642,268.366730 454.771057,271.161499 454.000977,274.492920 
z"/>
<path fill="#122769" opacity="1.000000" stroke="none" 
	d="
M465.031372,285.626312 
	C465.005554,278.528992 465.005554,271.900238 465.005554,265.601074 
	C468.416321,265.019196 471.442535,264.502899 474.468781,263.986603 
	C474.802643,264.351288 475.136475,264.715942 475.470306,265.080627 
	C474.473785,266.058228 473.631622,267.568329 472.450897,267.910706 
	C469.280975,268.829895 467.925232,270.698090 467.985199,273.897308 
	C468.050598,277.388855 467.970398,280.882904 468.008636,284.375244 
	C468.034790,286.760193 467.465607,287.964325 465.031372,285.626312 
z"/>
<path fill="#122769" opacity="1.000000" stroke="none" 
	d="
M303.968079,285.637360 
	C301.568573,287.937866 300.978027,286.795563 300.990479,284.398651 
	C301.023071,278.122650 301.001434,271.846313 301.001434,265.600983 
	C304.304230,265.047638 307.412994,264.526794 310.775085,263.963501 
	C310.775085,265.332489 310.775085,266.422302 310.775085,267.893005 
	C305.142151,267.180115 303.742798,270.414612 303.970001,275.251190 
	C304.125031,278.550873 303.996185,281.863861 303.968079,285.637360 
z"/>
<path fill="#122769" opacity="1.000000" stroke="none" 
	d="
M549.314819,317.498901 
	C550.379944,317.932892 551.852966,318.730652 551.889587,319.589691 
	C552.109558,324.745361 551.999512,329.915131 552.000000,335.080170 
	C552.000122,336.559174 552.000000,338.038177 552.000000,339.517181 
	C551.491394,339.720093 550.982788,339.923035 550.474182,340.125946 
	C549.982910,339.045105 549.087097,337.971680 549.067017,336.882172 
	C548.950256,330.553864 549.039490,324.221741 549.314819,317.498901 
z"/>
<path fill="#122769" opacity="1.000000" stroke="none" 
	d="
M575.000000,330.954346 
	C574.281128,334.283020 576.600769,338.000885 572.683167,340.541931 
	C570.783508,330.316162 571.798828,318.064453 575.000000,316.933228 
	C575.000000,321.567749 575.000000,326.016174 575.000000,330.954346 
z"/>
<path fill="#122769" opacity="1.000000" stroke="none" 
	d="
M479.031433,266.368958 
	C480.032593,266.146942 481.851898,266.370087 481.859161,266.641815 
	C482.024170,272.801910 482.037537,278.968262 481.922607,285.130463 
	C481.911011,285.751343 480.898224,286.353577 480.350037,286.964447 
	C479.901306,286.253174 479.075623,285.548401 479.063110,284.829559 
	C478.959106,278.833466 479.004913,272.834717 479.031433,266.368958 
z"/>
<path fill="#49B1B3" opacity="1.000000" stroke="none" 
	d="
M268.523254,224.101685 
	C268.986969,224.167496 269.007751,224.564224 269.022949,224.761902 
	C260.639008,224.965927 252.239868,224.972275 243.364685,224.959564 
	C246.859726,224.626907 250.825989,224.173416 254.803116,224.037064 
	C259.216736,223.885727 263.640320,224.023819 268.523254,224.101685 
z"/>
<path fill="#73BEE1" opacity="1.000000" stroke="none" 
	d="
M45.826744,224.241119 
	C45.786736,224.415161 45.455769,224.468582 45.017677,224.359650 
	C45.118961,224.171692 45.327374,224.146088 45.826744,224.241119 
z"/>
<path fill="#73BEE1" opacity="1.000000" stroke="none" 
	d="
M151.214279,225.151794 
	C151.437454,225.124634 151.586777,225.353516 151.668365,225.604416 
	C151.687698,225.663864 151.479721,225.797226 151.160263,225.924774 
	C151.001358,225.773926 151.058517,225.594910 151.214279,225.151794 
z"/>
<path fill="#FFFFFF" opacity="1.000000" stroke="none" 
	d="
M631.911987,280.700470 
	C631.590515,277.737305 630.833008,275.074127 631.275513,272.627960 
	C631.927429,269.023712 635.116028,266.865936 638.376465,267.313965 
	C642.495117,267.879883 644.622742,271.763855 644.694458,275.542084 
	C644.763184,279.163635 643.446106,282.815826 639.211121,284.386505 
	C635.534363,285.750122 633.839355,283.434479 631.911987,280.700470 
z"/>
<path fill="#FFFFFF" opacity="1.000000" stroke="none" 
	d="
M501.229736,283.259888 
	C498.022369,285.575745 494.552124,285.860809 492.745667,282.931396 
	C491.017883,280.129608 489.830872,276.156555 490.392059,273.058014 
	C490.807220,270.765625 494.108459,268.085968 496.657196,267.293152 
	C500.997101,265.943207 505.467529,274.013397 503.418304,279.078156 
	C502.877136,280.415680 502.150208,281.678101 501.229736,283.259888 
z"/>
<path fill="#FFFFFF" opacity="1.000000" stroke="none" 
	d="
M592.695679,325.999939 
	C589.443726,326.000000 586.637451,326.000000 583.831116,326.000000 
	C583.503479,325.622253 583.175903,325.244507 582.848267,324.866760 
	C584.969421,323.027344 586.847168,320.400055 589.302307,319.641296 
	C590.796509,319.179504 593.561096,321.234100 595.077881,322.810089 
	C597.401062,325.223938 595.768494,326.115356 592.695679,325.999939 
z"/>
<path fill="#FFFFFF" opacity="1.000000" stroke="none" 
	d="
M595.991699,278.755249 
	C594.176270,284.167114 591.452087,285.991577 588.022339,284.547272 
	C585.121399,283.325684 584.482727,281.121490 586.623962,279.084930 
	C589.303955,276.535950 592.639465,275.723358 595.991699,278.755249 
z"/>
<path fill="#FFFFFF" opacity="1.000000" stroke="none" 
	d="
M321.332947,329.001282 
	C323.055511,329.000183 324.352509,329.000183 325.917328,329.000183 
	C325.917328,330.293671 326.149933,331.311737 325.876190,332.167908 
	C324.813080,335.493225 322.450470,337.459625 318.956146,336.864349 
	C317.517853,336.619354 316.330261,334.902588 315.028656,333.855255 
	C316.988220,332.237610 318.947784,330.619995 321.332947,329.001282 
z"/>
<path fill="#FFFFFF" opacity="1.000000" stroke="none" 
	d="
M291.779968,272.437622 
	C292.062561,273.767090 292.257782,274.746277 292.256195,275.725098 
	C292.250183,279.409363 291.115448,282.256348 287.513306,284.187378 
	C284.271210,285.925385 282.148743,284.447052 280.150635,282.555634 
	C277.580963,280.123169 275.573273,277.052612 278.005707,273.596558 
	C279.728729,271.148499 282.060455,267.965118 284.522858,267.560822 
	C286.579407,267.223083 289.220154,270.442841 291.779968,272.437622 
z"/>
<path fill="#FFFFFF" opacity="1.000000" stroke="none" 
	d="
M442.035187,278.922821 
	C440.584351,283.088379 437.771606,285.657745 433.865479,284.794495 
	C429.630676,283.858612 427.743042,280.447327 427.936249,275.853851 
	C428.112671,271.660461 429.208923,268.226013 433.838654,267.753937 
	C435.768646,267.557190 438.589081,268.164398 439.689941,269.494293 
	C441.689880,271.910217 444.610931,274.680420 442.035187,278.922821 
z"/>
<path fill="#FFFFFF" opacity="1.000000" stroke="none" 
	d="
M525.709839,268.289429 
	C530.690002,271.257538 531.144409,275.753998 529.308228,279.844635 
	C528.284424,282.125641 524.837341,284.659760 522.447571,284.694611 
	C518.101807,284.757965 515.693237,280.883698 515.164185,276.867554 
	C514.675049,273.153809 516.350708,269.698761 520.035156,268.140198 
	C521.561340,267.494629 523.593933,268.046082 525.709839,268.289429 
z"/>
<path fill="#FFFFFF" opacity="1.000000" stroke="none" 
	d="
M414.652954,320.133179 
	C418.899750,319.555176 422.759705,319.943420 423.887787,324.208038 
	C424.650940,327.092834 424.694000,330.693726 423.626251,333.411316 
	C422.108795,337.273499 417.509766,337.981873 414.192566,335.702850 
	C409.684357,332.605560 408.662140,327.161072 411.831024,322.723053 
	C412.495331,321.792694 413.441040,321.063293 414.652954,320.133179 
z"/>
</svg>