<?xml version="1.0" standalone="no"?>
<!DOCTYPE svg PUBLIC "-//W3C//DTD SVG 20010904//EN"
 "http://www.w3.org/TR/2001/REC-SVG-20010904/DTD/svg10.dtd">
<svg version="1.0" xmlns="http://www.w3.org/2000/svg"
 width="2362.000000pt" height="1772.000000pt" viewBox="0 0 2362.000000 1772.000000"
 preserveAspectRatio="xMidYMid meet">

<g transform="translate(0.000000,1772.000000) scale(0.100000,-0.100000)"
fill="#000000" stroke="none">
<path d="M12960 15949 c-25 -3 -36 -7 -24 -7 11 -1 21 -9 21 -16 0 -12 -5 -12
-26 2 -30 20 -75 18 -67 -3 3 -9 0 -12 -9 -8 -8 3 -13 8 -11 12 2 3 -9 7 -25
8 -16 1 -29 -2 -29 -8 0 -6 -4 -8 -9 -4 -5 3 -12 1 -16 -5 -3 -5 -12 -10 -18
-10 -7 0 -6 4 3 10 11 8 8 10 -15 7 -22 -3 -30 -9 -28 -23 1 -18 1 -18 -12 -1
-12 17 -18 17 -106 2 -52 -9 -166 -33 -254 -55 -1014 -248 -1894 -900 -2444
-1808 -141 -233 -280 -538 -367 -804 l-38 -118 -886 0 c-881 0 -1066 -5 -1295
-36 -1018 -135 -1928 -686 -2533 -1532 -352 -492 -576 -1069 -657 -1693 -23
-171 -31 -562 -16 -741 65 -778 348 -1488 837 -2098 131 -163 397 -433 552
-558 491 -399 1043 -659 1637 -771 309 -59 85 -55 3013 -58 l2682 -3 0 690 0
690 48 -1 c26 -1 39 -3 29 -6 -16 -4 -17 -43 -15 -686 l3 -682 78 -3 77 -3 0
710 0 710 -2697 1 c-1696 0 -2730 4 -2784 10 -488 56 -944 274 -1313 630 -325
313 -555 711 -666 1150 -54 213 -65 313 -65 570 0 256 11 348 65 563 203 804
849 1448 1656 1653 269 68 257 67 1226 71 l877 4 5 -33 c3 -18 10 -78 16 -133
83 -734 406 -1470 908 -2070 105 -124 355 -373 485 -480 387 -321 841 -571
1311 -724 168 -55 447 -123 512 -124 29 -1 50 -5 48 -8 -2 -4 18 -10 44 -13
26 -4 62 -10 81 -13 27 -5 32 -3 26 8 -6 11 -5 12 6 2 39 -37 39 -42 39 686 0
658 1 700 18 704 16 4 16 4 -1 12 -12 5 -22 2 -33 -11 -12 -16 -13 -17 -8 -2
8 24 -21 34 -43 17 -12 -10 -15 -10 -9 -1 13 21 -23 26 -47 6 -12 -10 -16 -12
-9 -4 17 20 15 32 -5 28 -10 -1 -22 0 -28 4 -5 3 -52 18 -104 32 -659 188
-1257 699 -1560 1331 -167 347 -251 714 -251 1096 0 562 175 1087 511 1536 94
125 305 342 434 446 223 180 522 343 789 432 94 31 143 52 139 59 -4 6 1 5 10
-3 14 -11 17 -11 18 0 1 8 1 18 0 22 -1 5 3 6 9 2 6 -3 8 -10 5 -15 -3 -4 3
-7 12 -5 10 2 18 4 18 5 0 1 16 3 35 6 19 2 49 8 65 12 l30 8 0 702 c0 386 4
702 8 702 4 0 19 -7 32 -16 l25 -16 0 -649 c0 -613 1 -648 18 -643 16 5 16 5
0 -6 -22 -13 -24 -45 -4 -37 8 3 17 -1 20 -9 6 -16 55 -9 68 10 5 8 8 7 8 -1
0 -7 5 -13 11 -13 6 0 9 7 6 15 -4 8 -1 17 5 21 6 4 8 3 5 -2 -10 -17 7 -34
23 -24 10 6 11 10 3 10 -7 0 -10 6 -7 14 3 8 12 12 20 9 8 -3 14 0 14 7 0 6
-4 9 -9 5 -5 -3 -12 -1 -15 4 -3 5 -6 313 -6 684 0 634 -2 676 -18 674 -9 -1
-37 -5 -62 -8z m-26 -38 c3 -4 -6 -6 -19 -3 -14 2 -25 6 -25 8 0 8 39 4 44 -5z
m41 -21 c-3 -5 -11 -10 -16 -10 -6 0 -7 5 -4 10 3 6 11 10 16 10 6 0 7 -4 4
-10z m-29 -1317 c-10 -11 -19 -7 -22 10 -2 15 0 16 12 6 8 -6 12 -14 10 -16z"/>
<path d="M13608 15932 c-17 -7 -17 -8 0 -18 15 -10 18 -8 19 7 1 11 1 19 0 18
-1 0 -10 -4 -19 -7z"/>
<path d="M13680 15229 c0 -477 3 -709 10 -709 7 0 10 223 10 679 0 591 2 680
15 691 12 10 15 10 15 0 0 -8 3 -11 6 -7 13 13 -7 27 -25 18 -13 -7 -18 -6
-18 4 0 8 3 12 7 10 3 -2 12 0 20 6 8 5 11 9 5 10 -5 0 -18 2 -27 4 -16 3 -17
-44 -18 -706z"/>
<path d="M13581 15897 c-8 -10 -7 -14 2 -14 8 0 14 6 14 14 0 7 -1 13 -2 13
-2 0 -8 -6 -14 -13z"/>
<path d="M13853 15895 c0 -8 4 -12 9 -9 5 3 6 10 3 15 -9 13 -12 11 -12 -6z"/>
<path d="M13946 15894 c-9 -24 -7 -1386 2 -1380 5 3 6 -9 4 -27 -4 -31 -4 -31
12 -12 13 16 15 17 10 3 -3 -10 -2 -18 4 -18 11 0 10 25 -1 36 -4 4 -7 317 -7
695 0 459 -3 689 -10 692 -6 3 -5 4 2 3 10 -2 14 -145 18 -692 l5 -689 3 687
c2 613 0 688 -14 702 -19 20 -20 20 -28 0z"/>
<path d="M14095 15872 c9 -18 14 -62 6 -62 -3 0 -5 -314 -3 -697 2 -460 6
-692 13 -681 6 10 8 268 7 697 -2 447 0 682 7 685 6 3 4 5 -2 5 -7 1 -13 6
-13 11 0 6 8 10 18 8 10 -2 16 2 14 10 -1 8 2 10 8 7 8 -5 6 -14 -4 -31 -14
-20 -16 -106 -16 -710 0 -632 1 -686 16 -680 14 5 15 4 4 -9 -7 -9 -9 -19 -5
-23 4 -4 10 -2 12 5 3 8 11 5 24 -8 21 -21 39 -25 39 -9 0 6 -10 10 -22 11
-17 1 -14 3 12 11 30 8 32 11 17 20 -13 7 -23 6 -35 -3 -14 -11 -15 -11 -4 1
9 11 12 166 12 703 0 548 -3 687 -12 681 -9 -5 -8 -2 1 10 8 9 20 15 27 12 7
-3 16 -1 19 4 4 6 -8 11 -24 11 -43 2 -48 3 -57 11 -4 4 -13 3 -21 -4 -10 -8
-17 -7 -29 8 -9 10 -12 13 -9 6z m76 -45 c-10 -9 -11 -8 -5 6 3 10 9 15 12 12
3 -3 0 -11 -7 -18z"/>
<path d="M14202 15825 c2 -1 13 -8 26 -14 17 -9 22 -9 22 1 0 7 -12 14 -26 14
-14 1 -24 1 -22 -1z"/>
<path d="M14313 15818 c15 -12 17 -73 19 -744 l3 -731 -22 10 c-13 6 -23 16
-23 24 0 7 -4 13 -8 13 -4 0 -8 -9 -8 -20 0 -11 5 -20 11 -20 5 0 21 -6 35
-13 l25 -13 -3 740 c-3 734 -4 766 -35 766 -6 0 -3 -6 6 -12z"/>
<path d="M14287 15809 c7 -7 15 -10 18 -7 3 3 -2 9 -12 12 -14 6 -15 5 -6 -5z"/>
<path d="M14725 15680 c-4 -6 -12 -8 -18 -4 -7 3 -4 -1 5 -9 10 -8 15 -17 11
-20 -3 -4 -1 -7 5 -7 9 0 13 -191 15 -757 l2 -758 -1 770 c-1 424 -2 776 -4
783 -4 15 -7 15 -15 2z"/>
<path d="M14875 15600 c-25 -6 -26 -8 -7 -9 13 0 21 -5 17 -11 -3 -5 -13 -6
-22 -3 -10 4 -14 2 -9 -5 3 -6 15 -10 26 -9 10 1 17 3 15 5 -2 3 0 13 6 23 5
11 8 18 7 18 -2 -1 -16 -5 -33 -9z"/>
<path d="M14926 15572 c-3 -5 1 -9 9 -9 8 0 12 4 9 9 -3 4 -7 8 -9 8 -2 0 -6
-4 -9 -8z"/>
<path d="M14975 15547 c-12 -10 -14 -16 -7 -21 7 -4 12 -12 12 -17 0 -6 -5 -7
-11 -3 -7 4 -10 1 -7 -6 2 -8 10 -16 18 -18 7 -3 10 0 6 7 -4 6 -3 11 3 11 5
0 13 -5 17 -11 5 -8 12 -5 23 9 12 17 19 19 31 11 13 -9 12 -10 -3 -5 -11 3
-16 2 -12 -4 3 -6 14 -10 23 -11 11 0 12 -3 5 -6 -10 -4 -13 -174 -13 -804 0
-632 3 -799 13 -799 6 -1 2 -9 -10 -19 l-22 -18 23 -22 c21 -20 36 -19 36 2 0
5 -6 7 -13 4 -8 -3 -14 3 -14 14 -1 13 2 17 10 12 7 -4 18 -8 25 -9 10 -2 10
2 -2 15 -14 15 -16 108 -18 833 -2 542 0 814 7 810 6 -3 6 -1 2 4 -5 5 -14 9
-20 9 -7 1 -11 6 -10 13 3 13 -28 4 -38 -11 -3 -4 -14 -1 -23 9 -14 14 -15 19
-4 25 7 5 8 9 2 9 -5 0 -18 -6 -29 -13z m26 -28 c11 -11 19 -23 17 -25 -3 -2
-15 7 -28 21 -28 30 -19 34 11 4z"/>
<path d="M15150 15482 c0 -8 -5 -10 -12 -6 -10 6 -10 4 0 -7 14 -15 16 -33 3
-24 -5 3 -12 2 -15 -3 -3 -5 1 -9 9 -10 8 -1 22 -3 30 -4 8 -1 12 -5 9 -10 -4
-5 -12 -7 -20 -4 -12 5 -14 -116 -15 -812 -1 -449 -2 -824 -3 -832 -2 -23 15
-41 34 -35 14 4 17 0 14 -22 -4 -27 -3 -28 5 -3 8 27 -3 61 -19 57 -7 -1 -10
281 -10 812 0 805 1 814 21 832 20 18 10 37 -13 23 -7 -5 -9 -1 -6 13 3 12 2
27 -3 34 -7 11 -9 11 -9 1z m20 -1736 c-7 -7 -14 -6 -21 1 -9 9 -7 12 9 10 14
-1 18 -5 12 -11z"/>
<path d="M15287 15397 c-3 -8 1 -14 8 -14 7 0 11 6 8 14 -3 7 -6 13 -8 13 -2
0 -5 -6 -8 -13z"/>
<path d="M15390 15344 c-1 -38 2 -1864 3 -1881 1 -17 4 -20 14 -11 9 7 13 7
13 0 0 -6 -8 -16 -17 -21 -10 -6 -12 -11 -5 -11 6 0 12 -6 12 -13 0 -8 11 -24
25 -37 14 -13 25 -18 25 -12 0 6 -10 18 -22 26 -12 9 -17 16 -10 16 9 0 10 5
2 19 -7 14 -6 21 3 25 8 3 6 9 -7 20 -17 14 -18 16 -3 16 16 0 17 61 17 890 0
892 0 895 30 892 3 0 7 9 7 21 2 20 1 20 -8 5 -14 -24 -24 -22 -26 4 -2 18 0
20 7 8 6 -10 10 -11 10 -3 0 13 -40 39 -40 26 0 -4 -7 1 -15 11 -8 11 -15 16
-15 10z"/>
<path d="M15495 15270 c-3 -5 -1 -10 4 -10 6 0 11 5 11 10 0 6 -2 10 -4 10 -3
0 -8 -4 -11 -10z"/>
<path d="M15508 15243 c7 -3 16 -2 19 1 4 3 -2 6 -13 5 -11 0 -14 -3 -6 -6z"/>
<path d="M15525 15221 c-7 -12 4 -18 33 -15 27 2 28 -4 5 -23 -14 -10 -14 -13
-3 -11 13 3 16 -114 20 -980 3 -540 2 -994 -2 -1007 -3 -14 -3 -27 1 -30 10
-6 1 -65 -9 -65 -5 0 -17 8 -26 18 -17 16 -18 16 -11 -1 4 -10 7 -21 7 -23 0
-2 9 -4 20 -4 20 0 20 -7 20 -680 l0 -680 -70 0 -70 0 0 684 c0 538 3 685 13
689 6 3 -6 3 -27 0 -27 -4 -37 -3 -32 5 4 6 13 9 21 5 8 -3 15 0 15 6 0 14
-37 15 -42 1 -1 -5 -2 -322 0 -704 l2 -694 163 1 162 2 2 1694 3 1695 -22 23
c-22 24 -45 32 -32 11 4 -7 3 -8 -4 -4 -6 4 -8 14 -5 23 5 13 2 15 -11 10 -9
-4 -15 -3 -12 2 3 5 -10 21 -29 35 -19 15 -35 22 -35 16 0 -7 -6 -8 -19 0 -12
6 -22 6 -26 1z m131 -113 c-6 -4 -15 -8 -21 -8 -5 0 -4 4 4 9 9 6 10 11 2 15
-6 4 -11 11 -11 17 0 5 8 1 18 -8 12 -12 14 -21 8 -25z"/>
<path d="M15820 13370 l0 -1650 24 -6 c13 -3 38 -4 57 -1 28 3 25 4 -14 5
l-47 2 0 1613 0 1614 26 12 c22 10 24 14 14 26 -7 9 -15 13 -19 10 -3 -3 1
-10 9 -15 12 -8 12 -10 2 -10 -8 0 -16 9 -19 19 -3 11 -11 22 -19 25 -12 5
-14 -234 -14 -1644z"/>
<path d="M15854 14938 c-6 -9 7 -15 35 -14 13 1 26 6 28 13 5 13 -55 14 -63 1z"/>
<path d="M15933 14922 c1 -13 6 -18 16 -14 11 4 13 1 8 -12 -5 -13 -3 -17 6
-13 8 3 14 -1 14 -9 0 -7 -4 -11 -9 -8 -4 3 -9 -706 -10 -1575 l-3 -1581 285
0 c157 0 316 5 353 10 155 23 289 91 402 204 170 172 231 388 189 666 -86 567
-280 1085 -582 1555 -35 55 -68 102 -73 103 -5 2 -9 8 -9 13 0 14 -119 173
-215 288 -111 134 -285 312 -298 304 -5 -3 -8 -2 -5 3 4 5 -11 26 -32 47 -31
30 -39 34 -37 19z"/>
<path d="M15924 14858 c3 -15 26 -23 26 -8 0 6 -4 9 -9 6 -5 -4 -12 -1 -14 4
-3 6 -4 5 -3 -2z"/>
<path d="M13100 14585 c-11 -13 -10 -14 4 -9 9 3 16 10 16 15 0 13 -6 11 -20
-6z"/>
<path d="M13186 14585 c-3 -9 0 -15 9 -15 9 0 12 6 9 15 -4 8 -7 15 -9 15 -2
0 -5 -7 -9 -15z"/>
<path d="M13580 14575 c-11 -13 -11 -18 0 -28 10 -10 12 -9 7 4 -3 9 0 22 6
28 6 6 8 11 5 11 -3 0 -11 -7 -18 -15z"/>
<path d="M13612 14585 c4 -4 3 -14 -3 -21 -8 -9 -5 -16 11 -24 20 -10 21 -10
11 8 -6 11 -8 22 -5 25 3 3 -1 8 -8 13 -7 4 -10 4 -6 -1z"/>
<path d="M13130 14571 c0 -5 -8 -12 -17 -14 -14 -4 -12 -5 5 -6 13 -1 22 5 22
14 0 8 -2 15 -5 15 -3 0 -5 -4 -5 -9z"/>
<path d="M13156 14562 c-3 -5 1 -9 9 -9 8 0 12 4 9 9 -3 4 -7 8 -9 8 -2 0 -6
-4 -9 -8z"/>
<path d="M14059 14508 c9 -12 10 -18 2 -18 -6 0 -11 -8 -10 -17 0 -11 3 -13 6
-5 2 6 8 10 13 7 14 -8 5 24 -10 38 -12 10 -12 9 -1 -5z"/>
<path d="M14057 14439 c7 -7 15 -10 18 -7 3 3 -2 9 -12 12 -14 6 -15 5 -6 -5z"/>
<path d="M14228 14403 c7 -3 16 -2 19 1 4 3 -2 6 -13 5 -11 0 -14 -3 -6 -6z"/>
<path d="M18531 14395 c-187 -41 -331 -117 -465 -244 -381 -365 -386 -975 -12
-1347 124 -123 275 -207 454 -251 106 -27 322 -24 437 6 525 136 831 680 669
1192 -50 160 -121 273 -246 396 -131 129 -309 220 -492 252 -82 15 -268 12
-345 -4z"/>
<path d="M14363 14337 c0 -8 6 -14 14 -14 9 0 10 4 2 14 -6 7 -12 13 -14 13
-1 0 -2 -6 -2 -13z"/>
<path d="M14505 14270 c-3 -6 1 -7 9 -4 18 7 21 14 7 14 -6 0 -13 -4 -16 -10z"/>
<path d="M14515 14250 c-3 -6 1 -7 9 -4 18 7 21 14 7 14 -6 0 -13 -4 -16 -10z"/>
<path d="M14700 14169 c0 -5 5 -7 10 -4 6 3 10 8 10 11 0 2 -4 4 -10 4 -5 0
-10 -5 -10 -11z"/>
<path d="M14707 14136 c-3 -9 4 -21 19 -30 13 -9 24 -12 24 -7 0 5 -9 12 -19
16 -12 4 -18 12 -14 21 3 7 3 14 0 14 -3 0 -7 -6 -10 -14z"/>
<path d="M14856 14113 c5 -5 12 -12 16 -18 4 -6 8 -2 8 8 0 9 -7 17 -17 17 -9
0 -12 -3 -7 -7z"/>
<path d="M14845 14090 c3 -5 8 -10 11 -10 2 0 4 5 4 10 0 6 -5 10 -11 10 -5 0
-7 -4 -4 -10z"/>
<path d="M14830 14060 c15 -16 35 -30 44 -30 8 0 19 -7 23 -15 7 -12 11 -11
21 6 10 16 10 20 0 18 -27 -3 -38 1 -38 16 0 9 -9 15 -25 15 -14 0 -25 5 -25
10 0 6 -6 10 -14 10 -9 0 -4 -11 14 -30z"/>
<path d="M14940 14015 c-11 -13 -10 -14 4 -9 9 3 16 10 16 15 0 13 -6 11 -20
-6z"/>
<path d="M14867 14006 c10 -18 82 -76 97 -77 6 -1 17 -1 24 0 6 1 12 -3 12 -9
0 -5 -4 -10 -10 -10 -5 0 1 -10 13 -22 18 -19 23 -20 28 -8 4 8 0 19 -7 23 -9
5 -11 14 -4 31 7 19 6 24 -5 22 -8 -1 -18 -5 -21 -9 -4 -4 -13 -2 -21 4 -9 8
-13 8 -13 1 0 -6 -7 -9 -15 -6 -12 5 -12 9 2 32 l15 27 -19 -23 -19 -23 -22
24 c-12 13 -19 27 -15 30 3 4 -1 7 -11 7 -12 0 -15 -4 -9 -14z"/>
<path d="M15170 13789 c0 -5 5 -7 10 -4 6 3 10 8 10 11 0 2 -4 4 -10 4 -5 0
-10 -5 -10 -11z"/>
<path d="M15240 13716 c0 -2 8 -10 18 -17 15 -13 16 -12 3 4 -13 16 -21 21
-21 13z"/>
<path d="M15240 13682 c0 -7 -1 -15 -2 -19 -2 -3 5 -7 15 -9 15 -2 16 0 5 14
-7 9 -14 19 -15 21 -2 2 -3 -1 -3 -7z"/>
<path d="M15291 13573 c7 -12 15 -20 18 -17 3 2 -3 12 -13 22 -17 16 -18 16
-5 -5z"/>
<path d="M15345 13580 c3 -5 8 -10 11 -10 2 0 4 5 4 10 0 6 -5 10 -11 10 -5 0
-7 -4 -4 -10z"/>
<path d="M15337 13546 c10 -13 19 -23 21 -21 5 5 -22 45 -31 45 -4 0 0 -11 10
-24z"/>
<path d="M15481 13383 c-1 -12 4 -25 9 -28 12 -7 12 2 0 30 -8 19 -9 19 -9 -2z"/>
<path d="M15481 13311 c-9 -6 -10 -11 -2 -15 6 -4 11 -2 11 4 0 6 5 8 12 4 7
-4 8 -3 4 4 -8 14 -7 14 -25 3z"/>
<path d="M15491 13273 c-1 -17 16 -25 25 -12 4 7 3 9 -4 5 -5 -3 -13 0 -15 6
-4 9 -6 10 -6 1z"/>
<path d="M15546 13214 c-3 -8 -10 -12 -16 -9 -5 3 -7 0 -5 -7 3 -8 15 -15 28
-15 14 -2 17 1 9 6 -7 4 -10 15 -6 24 3 9 4 17 1 17 -3 0 -8 -7 -11 -16z"/>
<path d="M12355 13105 c-235 -51 -419 -209 -513 -437 -14 -35 -26 -79 -26
-100 -1 -20 -4 -34 -7 -32 -12 7 -18 -129 -9 -199 12 -95 35 -168 76 -247 71
-135 173 -234 319 -305 128 -63 206 -76 435 -73 l185 3 3 693 2 692 28 0 c27
0 70 -20 45 -20 -10 0 -13 -144 -13 -685 l0 -685 80 0 80 0 0 705 0 705 -312
-1 c-220 0 -331 -5 -373 -14z"/>
<path d="M13943 12418 c2 -550 5 -702 15 -705 9 -4 12 135 12 670 0 650 -2
737 -21 737 -5 0 -8 -316 -6 -702z"/>
<path d="M13978 12548 c1 -315 3 -631 5 -703 1 -71 4 186 5 573 1 386 -1 702
-5 702 -5 0 -7 -258 -5 -572z"/>
<path d="M14110 13104 c-24 -10 -27 -13 -10 -10 14 2 34 0 45 -4 17 -7 17 -9
3 -9 -17 -1 -18 -43 -21 -683 l-2 -683 -3 683 c-1 449 -5 682 -12 682 -7 0 -9
-229 -8 -682 l3 -683 50 -3 50 -3 -3 689 -2 690 42 4 c24 3 53 1 65 -3 l23 -8
3 -683 2 -683 3 681 c1 532 -1 684 -10 696 -19 23 -171 31 -218 12z"/>
<path d="M14713 13113 c9 -2 23 -2 30 0 6 3 -1 5 -18 5 -16 0 -22 -2 -12 -5z"/>
<path d="M14785 13110 c3 -5 8 -10 11 -10 2 0 4 5 4 10 0 6 -5 10 -11 10 -5 0
-7 -4 -4 -10z"/>
<path d="M14963 13113 c-65 -3 -83 -7 -83 -18 0 -12 17 -15 80 -15 47 0 80 4
80 10 0 6 18 10 40 10 22 0 40 5 40 10 0 6 -17 9 -37 8 -21 -1 -75 -4 -120 -5z"/>
<path d="M13581 13094 c0 -11 3 -14 6 -6 3 7 2 16 -1 19 -3 4 -6 -2 -5 -13z"/>
<path d="M14740 12411 c0 -542 -3 -690 -12 -694 -8 -3 -6 -6 5 -6 16 -1 17 38
17 694 0 382 -2 695 -5 695 -3 0 -5 -310 -5 -689z"/>
<path d="M15146 13084 c-11 -28 -7 -1364 4 -1364 7 0 10 231 10 674 0 371 3
681 6 690 3 9 2 16 -4 16 -5 0 -13 -7 -16 -16z"/>
<path d="M15265 13090 c-3 -5 -1 -10 4 -10 6 0 11 5 11 10 0 6 -2 10 -4 10 -3
0 -8 -4 -11 -10z"/>
<path d="M13680 12405 c0 -450 3 -685 10 -685 7 0 10 235 10 685 0 450 -3 685
-10 685 -7 0 -10 -235 -10 -685z"/>
<path d="M15060 12400 c0 -598 2 -680 15 -680 13 0 15 82 15 680 0 598 -2 680
-15 680 -13 0 -15 -82 -15 -680z"/>
<path d="M18585 11655 c-253 -55 -454 -243 -534 -500 -13 -44 -16 -243 -22
-1670 -4 -1106 -9 -1647 -17 -1705 -45 -342 -278 -611 -607 -702 -78 -21 -100
-22 -770 -28 -379 -3 -692 -7 -694 -8 -2 -1 2 -8 8 -16 9 -11 9 -15 -1 -19
-10 -4 -10 -6 0 -6 9 -1 12 -144 12 -680 0 -534 -3 -680 -12 -684 -7 -3 291
-6 662 -6 552 -1 700 2 810 15 292 33 520 99 765 219 643 314 1086 902 1215
1610 42 227 45 381 45 2025 0 1745 5 1609 -69 1765 -93 196 -258 331 -471 385
-91 23 -228 25 -320 5z"/>
<path d="M15614 10561 c-3 -3 -17 -5 -32 -6 -19 0 -27 -6 -29 -20 -2 -15 -1
-16 5 -5 8 17 42 26 42 10 0 -5 -5 -10 -10 -10 -7 0 -9 -284 -8 -855 2 -611 0
-854 -8 -851 -6 2 -11 -2 -11 -9 0 -17 18 -8 67 35 51 44 53 45 72 52 17 7 21
48 5 48 -5 0 -2 6 5 13 11 11 13 161 10 811 l-2 797 -50 -2 c-28 -2 -53 -5
-56 -8z m97 -1584 c-13 -13 -26 -3 -16 12 3 6 11 8 17 5 6 -4 6 -10 -1 -17z"/>
<path d="M15840 10550 c0 -6 -4 -8 -10 -5 -6 4 -10 -253 -10 -745 0 -453 4
-749 9 -745 5 3 12 1 15 -4 3 -5 -3 -11 -14 -14 -14 -4 -18 -10 -13 -22 5 -16
9 -14 25 9 11 14 23 24 28 21 4 -2 15 3 23 13 15 17 15 18 -8 18 -13 0 -21 -4
-19 -8 3 -4 -2 -8 -10 -8 -14 0 -16 80 -16 726 0 400 -3 730 -5 735 -3 4 4 6
15 4 11 -2 20 1 20 6 0 6 10 8 23 4 16 -4 18 -3 7 3 -28 18 -60 24 -60 12z"/>
<path d="M15515 10540 c-3 -6 1 -7 9 -4 18 7 21 14 7 14 -6 0 -13 -4 -16 -10z"/>
<path d="M15923 10508 c0 -21 4 -38 9 -38 5 0 6 -5 3 -10 -3 -6 1 -13 9 -16
14 -5 16 -75 16 -644 0 -524 2 -640 14 -649 10 -9 40 17 142 124 71 74 150
166 176 204 181 270 150 631 -74 867 -76 80 -208 170 -234 160 -8 -3 -12 -2
-9 4 3 6 2 10 -3 10 -12 0 -24 -29 -17 -41 4 -5 -1 -6 -10 -3 -12 5 -13 10 -6
17 13 13 15 40 2 33 -5 -4 -11 0 -13 6 -3 7 -5 -4 -5 -24z"/>
<path d="M15402 10498 c-16 -16 -18 -1753 -2 -1743 6 3 10 1 10 -4 0 -6 5 -11
11 -11 5 0 7 5 4 10 -3 6 -1 10 5 10 7 0 10 257 10 865 0 771 -2 865 -16 865
-8 0 -12 5 -9 10 8 14 2 13 -13 -2z m28 -39 c0 -5 -8 -9 -17 -8 -12 0 -13 2
-5 6 10 4 10 8 0 21 -12 15 -11 16 5 3 9 -7 17 -17 17 -22z"/>
<path d="M15290 10425 c-7 -8 -16 -12 -21 -10 -4 3 -13 -4 -19 -15 -10 -19
-10 -21 8 -11 11 6 23 7 27 3 3 -4 5 0 3 8 -1 8 2 14 8 13 6 -1 11 5 11 13 0
18 -2 18 -17 -1z"/>
<path d="M15151 10284 c9 -11 8 -18 -5 -33 -10 -11 -13 -22 -8 -25 6 -3 16 7
24 24 11 25 14 27 20 12 5 -14 7 -13 7 6 1 12 -2 22 -6 23 -5 0 -16 2 -26 4
-15 3 -16 1 -6 -11z"/>
<path d="M15079 10221 c-29 -30 -33 -46 -4 -18 15 15 26 29 24 31 -2 2 -11 -4
-20 -13z"/>
<path d="M15072 10179 c-7 -11 -21 -19 -30 -18 -33 3 -44 -1 -39 -15 3 -8 1
-17 -6 -20 -7 -2 5 -3 26 0 l37 5 0 -805 c0 -530 -3 -806 -10 -807 -5 -1 -15
-2 -22 -3 -6 0 -12 -9 -14 -18 -3 -21 36 -16 49 7 4 8 12 13 18 10 5 -4 9 300
9 799 0 531 -3 806 -10 806 -15 0 -12 38 5 47 8 5 11 14 7 20 -6 9 -11 6 -20
-8z m-28 -39 c-21 -8 -37 -3 -29 10 3 4 15 6 27 2 21 -5 21 -6 2 -12z m6
-1636 c0 -8 -19 -13 -24 -6 -3 5 1 9 9 9 8 0 15 -2 15 -3z"/>
<path d="M15140 9389 c0 -645 -3 -809 -12 -803 -10 5 -10 4 -1 -6 19 -21 43
-21 35 -2 -5 14 -3 15 9 5 13 -10 16 -10 16 1 0 8 -7 13 -16 11 -15 -3 -16 72
-13 801 1 537 -1 804 -8 804 -7 0 -10 -271 -10 -811z"/>
<path d="M15085 10150 c-3 -5 -1 -10 4 -10 6 0 11 5 11 10 0 6 -2 10 -4 10 -3
0 -8 -4 -11 -10z"/>
<path d="M14939 10093 c-1 -5 -1 -11 0 -15 1 -7 -14 -12 -31 -9 -4 0 -5 -5 -2
-12 2 -7 15 -13 28 -13 21 0 26 10 16 36 -1 3 -2 8 -1 13 0 4 -1 7 -4 7 -3 0
-6 -3 -6 -7z"/>
<path d="M14871 10033 c-5 -10 -13 -17 -18 -15 -11 3 -11 -19 -1 -41 12 -24
27 -13 23 19 -1 14 4 32 12 40 8 8 10 14 4 14 -5 0 -14 -8 -20 -17z"/>
<path d="M14780 9961 c0 -6 -10 -16 -22 -21 -19 -7 -19 -9 -5 -9 12 -1 16 -6
11 -13 -4 -8 -3 -10 2 -5 5 5 9 12 9 15 0 4 4 13 9 20 4 7 5 16 2 19 -3 4 -6
1 -6 -6z"/>
<path d="M14703 9903 c1 -24 12 -30 22 -13 4 6 10 8 14 6 4 -3 8 1 8 9 0 10
-5 11 -18 5 -12 -7 -19 -6 -22 3 -3 6 -4 2 -4 -10z"/>
<path d="M14741 9155 c-2 -401 -4 -738 -5 -747 -1 -9 -9 -26 -18 -38 -17 -19
-17 -20 7 -20 22 0 30 9 23 26 -2 3 8 12 22 20 25 15 25 15 1 8 -16 -4 -21 -3
-17 5 4 6 4 11 -1 11 -4 0 -7 210 -5 467 1 258 1 587 0 733 -2 146 -5 -63 -7
-465z"/>
<path d="M14531 9746 c-9 -11 -9 -16 1 -22 7 -4 10 -4 6 1 -4 4 -3 14 3 22 6
7 9 13 6 13 -2 0 -10 -6 -16 -14z"/>
<path d="M14371 9689 c5 -10 15 -21 22 -25 8 -6 8 -3 -1 9 -8 9 -11 20 -8 25
3 5 -1 9 -9 9 -10 0 -11 -5 -4 -18z"/>
<path d="M14317 9689 c7 -7 15 -10 18 -7 3 3 -2 9 -12 12 -14 6 -15 5 -6 -5z"/>
<path d="M14290 9670 c6 -12 7 -20 1 -20 -5 0 -12 5 -14 10 -3 6 -4 5 -3 -2 2
-7 15 -13 30 -12 l26 1 -2 -703 c-2 -387 0 -704 3 -704 14 0 30 28 19 35 -11
7 -15 1350 -4 1379 3 9 10 13 15 10 5 -3 6 2 2 11 -3 9 -9 12 -12 7 -8 -13
-55 -27 -47 -14 3 5 -1 13 -9 16 -13 4 -14 2 -5 -14z"/>
<path d="M14220 9650 c-12 -7 -10 -9 8 -7 12 0 22 5 22 9 0 11 -12 10 -30 -2z"/>
<path d="M14178 9642 c-10 -2 -18 -11 -18 -20 0 -13 -2 -14 -9 -3 -7 10 -13
11 -30 2 -11 -7 -21 -15 -21 -18 0 -3 3 -3 7 0 3 4 13 1 21 -6 13 -10 15 -9 8
3 -4 8 0 6 8 -4 20 -25 15 -29 -17 -17 l-26 10 -1 -689 c0 -646 1 -691 17
-707 28 -28 123 -16 147 18 7 10 16 16 21 11 5 -4 5 -2 1 5 -3 6 1 16 10 21 9
5 14 14 10 21 -11 18 -26 13 -26 -9 0 -14 -7 -20 -21 -20 -16 0 -20 -5 -16
-19 3 -14 -2 -20 -19 -24 l-24 -4 -2 726 c-3 686 -4 726 -20 723z m-46 -762
c2 -379 0 -686 -4 -682 -10 10 -15 1372 -6 1372 4 0 9 -310 10 -690z m58 -690
c0 -5 -7 -7 -15 -4 -8 4 -15 8 -15 10 0 2 7 4 15 4 8 0 15 -4 15 -10z"/>
<path d="M14069 9608 c-1 -2 -3 -13 -4 -25 -2 -16 2 -20 13 -15 11 4 12 7 4
10 -7 2 -12 8 -12 13 0 6 5 7 12 3 7 -4 8 -3 4 4 -7 11 -14 15 -17 10z"/>
<path d="M13940 8851 l1 -721 24 2 c28 3 28 18 0 36 -19 12 -19 13 2 7 l22 -6
-2 698 -2 698 -23 3 -23 3 1 -720z m33 -652 c-5 -5 -6 301 -3 679 l5 687 3
-679 c1 -374 -1 -683 -5 -687z"/>
<path d="M12878 8818 c2 -684 4 -720 33 -702 4 2 10 1 12 -3 3 -5 -10 -8 -29
-9 -22 0 -30 2 -22 7 9 6 6 9 -9 9 -28 0 -39 -17 -16 -24 41 -13 173 -17 173
-5 0 8 4 8 13 1 9 -8 11 131 9 691 -1 385 -4 702 -5 703 -1 2 -29 5 -62 8 -33
3 -69 8 -80 11 -20 6 -20 2 -17 -687z m112 -704 c0 -8 -19 -13 -24 -6 -3 5 1
9 9 9 8 0 15 -2 15 -3z"/>
<path d="M13680 8800 c0 -683 0 -709 18 -707 10 0 19 7 19 14 0 6 -4 10 -9 7
-4 -3 -8 303 -8 680 0 598 2 685 15 688 10 2 7 7 -10 14 l-24 12 -1 -708z"/>
<path d="M13590 9490 c-9 -6 -10 -10 -3 -10 6 0 15 5 18 10 8 12 4 12 -15 0z"/>
<path d="M15955 9140 c3 -5 8 -10 11 -10 2 0 4 5 4 10 0 6 -5 10 -11 10 -5 0
-7 -4 -4 -10z"/>
<path d="M15926 9115 c-9 -26 -7 -32 5 -12 6 10 9 21 6 23 -2 3 -7 -2 -11 -11z"/>
<path d="M15503 8820 c1 -11 5 -20 9 -20 11 0 10 28 -1 35 -6 3 -9 -4 -8 -15z"/>
<path d="M15440 8744 c0 -12 -6 -15 -25 -10 -20 5 -25 3 -25 -13 0 -26 17 -35
28 -15 5 9 12 15 15 15 21 -3 27 1 27 19 0 11 -4 20 -10 20 -5 0 -10 -7 -10
-16z"/>
<path d="M15280 8676 c0 -2 11 -11 24 -20 18 -11 27 -13 32 -4 4 6 3 8 -3 5
-6 -4 -16 0 -23 8 -11 14 -30 21 -30 11z"/>
<path d="M15245 8660 c-7 -12 -7 -12 22 -15 12 -1 20 1 17 6 -2 4 -12 5 -21 2
-11 -4 -14 -3 -9 5 4 7 5 12 2 12 -3 0 -8 -4 -11 -10z"/>
<path d="M14980 8510 c-9 -6 -11 -10 -3 -10 7 0 10 -7 6 -16 -5 -12 -7 -13
-14 -2 -6 9 -8 6 -6 -9 1 -15 5 -19 13 -13 6 6 13 7 16 4 3 -3 5 9 4 25 0 17
-1 31 -1 31 0 0 -7 -5 -15 -10z"/>
<path d="M14885 8423 c-4 -11 0 -11 18 -2 31 16 32 18 8 16 -11 -1 -23 -7 -26
-14z"/>
<path d="M14240 8269 c0 -5 5 -7 10 -4 6 3 10 8 10 11 0 2 -4 4 -10 4 -5 0
-10 -5 -10 -11z"/>
<path d="M14333 8233 c-12 -2 -27 -12 -35 -21 -11 -13 -11 -14 2 -7 8 5 21 10
29 12 7 1 18 6 24 12 6 6 9 10 7 10 -3 -1 -15 -4 -27 -6z"/>
<path d="M14053 8184 c0 -6 9 -9 19 -6 10 2 18 7 18 11 0 4 -8 7 -18 7 -10 0
-19 -5 -19 -12z"/>
<path d="M13108 8101 c13 -11 30 -17 38 -14 18 7 14 12 -12 16 -10 1 -26 6
-34 11 -8 4 -5 -2 8 -13z"/>
<path d="M13581 8106 c-9 -11 -9 -16 0 -22 8 -4 9 -3 5 4 -10 16 6 15 24 0 12
-11 12 -10 0 7 -8 11 -15 21 -16 23 -1 1 -7 -4 -13 -12z"/>
<path d="M13170 8080 c-12 -7 -10 -9 7 -7 12 0 19 5 17 9 -6 10 -6 10 -24 -2z"/>
<path d="M13586 7041 c-4 -7 -5 -15 -2 -18 9 -9 19 4 14 18 -4 11 -6 11 -12 0z"/>
<path d="M13942 6342 c2 -558 6 -706 16 -710 10 -3 12 134 10 687 -2 380 0
691 4 691 5 0 9 -309 11 -687 l2 -688 3 703 c1 386 -1 702 -5 703 -5 0 -16 2
-26 4 -16 3 -17 -34 -15 -703z"/>
<path d="M14096 7037 c2 -7 5 -325 7 -707 l2 -695 118 -3 117 -3 0 701 c0 385
-4 700 -9 700 -5 0 -14 -7 -21 -15 -10 -12 -10 -15 4 -15 15 0 16 -59 16 -680
l0 -680 -65 0 -65 0 0 685 c0 475 3 685 11 685 5 0 8 4 4 9 -5 9 18 16 90 24
17 2 -25 5 -92 6 -96 1 -121 -2 -117 -12z m44 -12 c0 -8 -3 -15 -7 -15 -5 0
-8 -309 -8 -687 l0 -688 -5 685 c-3 377 -3 693 -1 703 4 21 21 23 21 2z"/>
<path d="M14728 7043 c6 -2 18 -2 25 0 6 3 1 5 -13 5 -14 0 -19 -2 -12 -5z"/>
<path d="M14778 7043 c7 -3 16 -2 19 1 4 3 -2 6 -13 5 -11 0 -14 -3 -6 -6z"/>
<path d="M14958 7043 c111 -5 105 -23 -7 -23 -50 0 -92 -4 -95 -8 -3 -5 29 -7
72 -5 111 6 142 12 142 28 0 12 -18 15 -97 13 l-98 -2 83 -3z"/>
<path d="M15390 6338 l0 -709 23 3 22 3 3 675 c1 412 -2 686 -7 703 -10 26 -9
27 17 20 14 -3 47 -6 73 -6 40 0 49 -4 53 -21 3 -12 6 -323 6 -693 l0 -672
-32 -4 c-18 -2 13 -5 70 -5 l102 -2 0 709 0 710 -165 -1 -165 -1 0 -709z m17
680 c-3 -8 -6 -5 -6 6 -1 11 2 17 5 13 3 -3 4 -12 1 -19z"/>
<path d="M13680 6340 c0 -460 3 -700 10 -700 7 0 10 235 10 684 0 538 3 685
13 689 7 3 4 6 -6 6 -10 1 -15 6 -12 11 3 6 1 10 -4 10 -8 0 -11 -214 -11
-700z"/>
<path d="M15146 7000 c-11 -73 -2 -1363 9 -1367 9 -3 11 1376 1 1402 -2 5 -6
-10 -10 -35z"/>
<path d="M15830 7021 c-6 -13 -10 -250 -10 -700 l0 -681 24 -6 c13 -3 37 -4
52 -1 22 3 19 4 -13 6 l-43 1 0 680 0 680 40 0 c33 0 40 3 40 20 0 17 -7 20
-40 20 -29 0 -42 -5 -50 -19z"/>
<path d="M14715 7020 c-19 -8 -19 -9 3 -9 l22 -1 0 -684 c0 -538 -3 -685 -12
-689 -7 -3 -4 -6 7 -6 20 -1 20 5 17 699 -1 385 -6 700 -10 699 -4 0 -16 -4
-27 -9z"/>
<path d="M14240 7010 c0 -5 5 -10 11 -10 5 0 7 5 4 10 -3 6 -8 10 -11 10 -2 0
-4 -4 -4 -10z"/>
<path d="M13578 7003 c7 -3 16 -2 19 1 4 3 -2 6 -13 5 -11 0 -14 -3 -6 -6z"/>
<path d="M15060 6320 l0 -679 -92 -4 c-78 -2 -73 -3 32 -4 69 0 117 1 108 4
-17 4 -18 45 -18 684 0 597 -2 679 -15 679 -13 0 -15 -82 -15 -680z"/>
<path d="M4739 3830 c-335 -32 -576 -265 -630 -611 -15 -99 -6 -274 21 -367
69 -245 237 -415 477 -484 113 -33 342 -32 458 1 120 34 198 77 280 153 88 82
115 132 115 212 0 67 -15 101 -65 144 -43 38 -69 46 -139 40 -57 -5 -103 -28
-191 -98 -150 -119 -362 -111 -475 18 -60 68 -84 138 -84 252 -1 84 3 102 27
155 34 73 85 128 152 163 44 24 61 27 145 27 111 0 167 -21 260 -97 30 -25 69
-52 85 -60 137 -70 285 17 285 168 -1 95 -67 187 -196 273 -87 59 -202 98
-307 106 -40 3 -88 7 -107 9 -19 2 -69 0 -111 -4z"/>
<path d="M2673 3820 c-55 -23 -54 -17 -51 -547 l3 -488 28 -79 c82 -233 275
-365 535 -366 235 0 426 107 516 290 63 129 66 160 66 677 l0 462 -24 28 c-19
22 -32 28 -66 28 -34 0 -47 -6 -66 -28 l-24 -28 0 -447 c0 -487 -2 -514 -57
-615 -36 -65 -111 -131 -181 -158 -81 -32 -233 -32 -314 0 -71 28 -151 99
-184 162 -52 103 -54 129 -54 611 l0 447 -22 25 c-26 29 -72 40 -105 26z"/>
<path d="M5865 3823 c-38 -10 -87 -56 -106 -99 -19 -41 -19 -71 -17 -652 l3
-608 27 -41 c14 -22 43 -48 63 -57 40 -19 125 -23 166 -8 39 15 87 68 99 110
6 23 10 252 10 627 0 555 -2 592 -19 631 -28 62 -78 95 -148 99 -32 2 -67 1
-78 -2z"/>
<path d="M10055 3823 c-37 -10 -87 -55 -106 -97 -15 -34 -19 -66 -19 -178 0
-76 -2 -138 -5 -138 -3 0 -22 11 -43 24 -81 53 -246 74 -366 46 -125 -28 -264
-135 -325 -249 -67 -127 -91 -331 -56 -480 43 -180 169 -325 333 -382 150 -53
370 -28 457 52 21 18 21 18 55 -17 41 -44 70 -55 137 -55 68 0 118 25 151 74
l27 41 3 608 c2 581 2 611 -17 652 -28 63 -77 97 -148 101 -32 2 -67 1 -78 -2z
m-274 -674 c158 -53 206 -290 83 -413 -40 -40 -83 -56 -149 -56 -31 0 -70 6
-88 14 -114 48 -164 209 -104 338 46 103 155 151 258 117z"/>
<path d="M13000 3823 c-8 -3 -25 -15 -37 -26 -23 -20 -23 -24 -23 -261 l0
-240 -53 55 c-58 60 -145 110 -222 128 -64 16 -206 16 -270 0 -257 -61 -420
-306 -402 -604 21 -360 305 -588 652 -524 91 17 160 53 231 120 l64 62 0 -67
c0 -58 3 -70 25 -91 30 -31 83 -33 116 -6 l24 19 3 690 2 690 -22 26 c-24 26
-62 39 -88 29z m-303 -515 c131 -48 220 -168 243 -326 26 -186 -63 -368 -219
-445 -61 -30 -73 -32 -166 -32 -87 0 -107 3 -157 27 -148 69 -228 204 -228
382 0 185 76 319 217 383 100 46 206 50 310 11z"/>
<path d="M16305 3811 c-48 -22 -69 -44 -90 -94 -13 -31 -15 -119 -15 -631 0
-396 4 -604 11 -623 13 -35 55 -80 92 -99 39 -21 137 -20 182 2 44 21 79 65
94 119 15 54 15 1155 0 1208 -31 112 -164 169 -274 118z"/>
<path d="M1293 3803 c-13 -2 -32 -16 -43 -30 -20 -25 -20 -39 -20 -680 0 -672
0 -680 39 -710 12 -9 125 -12 454 -13 461 0 484 2 501 45 13 34 5 75 -18 102
l-24 28 -386 3 -386 3 0 229 0 230 331 0 c337 0 358 2 386 39 21 27 15 79 -12
106 l-24 25 -341 0 -340 0 0 225 0 225 383 0 384 0 20 23 c30 32 36 61 19 101
-11 27 -23 37 -53 45 -37 10 -819 14 -870 4z"/>
<path d="M10752 3799 c-64 -19 -63 -6 -60 -730 l3 -651 28 -24 28 -24 443 0
c426 0 444 1 468 20 30 23 40 62 26 102 -20 57 -31 58 -443 58 l-375 0 0 230
0 229 345 3 c336 3 345 4 366 24 30 30 30 86 -1 119 l-23 25 -341 2 -341 3 0
220 0 220 388 5 389 5 19 24 c27 33 24 84 -5 118 l-24 28 -429 2 c-255 1 -441
-2 -461 -8z"/>
<path d="M18351 3799 c-91 -18 -145 -89 -144 -190 1 -60 17 -101 55 -136 47
-44 88 -53 242 -53 l145 0 3 -467 c3 -462 3 -469 25 -510 36 -66 75 -87 163
-91 94 -3 141 20 177 87 l23 44 0 469 0 468 153 0 c126 0 159 4 192 19 75 35
105 85 105 178 0 73 -34 134 -93 166 -42 22 -45 22 -522 24 -264 1 -500 -3
-524 -8z"/>
<path d="M14462 3550 c-12 -5 -53 -34 -91 -65 l-69 -55 -43 18 c-76 32 -140
43 -249 44 -175 0 -292 -42 -375 -134 -100 -112 -107 -289 -15 -418 l21 -30
-32 -27 c-41 -35 -59 -79 -59 -148 0 -59 15 -98 49 -129 12 -11 21 -22 21 -26
0 -4 -18 -20 -40 -35 -25 -18 -49 -47 -66 -82 -35 -72 -30 -155 13 -217 36
-51 129 -100 233 -122 99 -22 356 -22 460 -1 162 33 269 99 305 189 39 97 12
228 -58 283 -79 64 -105 68 -412 74 -245 5 -284 8 -308 23 -51 34 -59 86 -18
127 18 18 20 18 77 -2 74 -25 236 -34 330 -18 133 22 247 99 295 198 34 71 38
185 9 265 l-22 61 71 64 c60 55 71 70 71 97 0 51 -50 84 -98 66z m-304 -220
c60 -27 90 -55 113 -105 55 -118 -15 -243 -156 -280 -142 -36 -294 3 -355 92
-25 37 -36 103 -26 158 13 68 95 135 189 155 63 14 182 3 235 -20z m94 -811
c58 -13 103 -49 114 -95 9 -37 -20 -92 -63 -117 -115 -66 -440 -74 -563 -14
-87 42 -100 136 -29 206 l31 31 228 0 c132 0 251 -5 282 -11z"/>
<path d="M6863 3489 c-306 -30 -513 -259 -513 -569 0 -293 176 -512 454 -565
225 -43 445 13 580 148 113 114 160 238 159 422 -1 181 -53 307 -173 419 -123
114 -303 165 -507 145z m152 -340 c23 -7 57 -28 82 -53 104 -104 91 -299 -25
-381 -58 -40 -158 -48 -219 -16 -86 43 -129 129 -121 241 7 95 42 153 117 192
57 30 102 35 166 17z"/>
<path d="M15275 3489 c-214 -21 -383 -166 -440 -379 -24 -88 -29 -223 -11
-318 50 -280 262 -452 556 -452 155 0 284 45 375 131 116 110 128 229 23 229
-32 0 -43 -8 -93 -65 -42 -47 -75 -74 -123 -97 -63 -31 -73 -33 -177 -33 -99
0 -116 3 -170 28 -78 37 -118 68 -155 122 -35 51 -70 144 -70 187 l0 28 416 0
416 0 30 31 c31 30 31 30 25 117 -10 146 -56 250 -151 340 -111 105 -262 149
-451 131z m253 -185 c55 -27 82 -47 107 -82 36 -49 82 -173 70 -192 -4 -6
-126 -10 -362 -10 l-356 0 7 46 c8 61 61 158 105 195 79 65 164 91 281 84 60
-4 89 -12 148 -41z"/>
<path d="M17380 3489 c-153 -14 -279 -75 -377 -183 -68 -74 -110 -162 -129
-267 -38 -207 19 -405 152 -536 255 -251 757 -204 944 87 77 121 108 308 76
460 -64 303 -317 469 -666 439z m177 -354 c85 -43 129 -130 121 -239 -11 -135
-92 -216 -215 -216 -111 1 -187 62 -213 171 -50 206 130 372 307 284z"/>
<path d="M20665 3489 c-280 -27 -464 -249 -465 -562 0 -299 161 -516 426 -572
136 -29 295 -13 407 39 140 67 239 211 193 281 -13 20 -25 25 -58 25 -35 0
-45 -5 -72 -37 -98 -117 -163 -153 -289 -160 -232 -15 -392 109 -431 335 l-5
32 419 0 419 0 28 24 c27 24 28 28 27 113 -5 318 -250 515 -599 482z m157
-150 c71 -15 135 -49 180 -96 42 -43 85 -131 90 -183 l3 -35 -357 -3 -358 -2
0 29 c0 47 37 134 76 179 83 97 226 140 366 111z"/>
<path d="M7885 3476 c-41 -18 -93 -79 -100 -118 -4 -18 -5 -181 -3 -363 3
-319 4 -332 27 -388 45 -113 146 -210 254 -243 153 -46 327 -22 424 60 l29 25
27 -35 c42 -52 79 -67 156 -62 80 4 120 28 151 92 20 43 21 53 18 489 l-3 445
-31 39 c-57 72 -145 93 -229 54 -96 -44 -104 -74 -105 -399 0 -286 -3 -305
-56 -353 -80 -74 -222 -56 -271 33 -16 29 -19 69 -23 318 l-5 285 -27 47 c-46
76 -151 110 -233 74z"/>
<path d="M21660 3477 c-48 -24 -50 -40 -50 -377 0 -173 5 -345 10 -382 26
-176 111 -292 257 -349 76 -30 258 -33 343 -7 73 23 143 70 186 126 l34 45 0
-57 c0 -60 19 -110 45 -120 35 -13 76 -6 100 19 l25 24 0 519 0 519 -25 23
c-34 32 -87 32 -118 2 -22 -22 -22 -27 -27 -365 l-5 -342 -26 -56 c-36 -76
-89 -133 -157 -166 -51 -25 -68 -28 -157 -28 -90 0 -106 3 -158 29 -45 21 -66
40 -93 80 -56 85 -64 145 -64 503 0 171 -3 319 -6 328 -7 17 -54 45 -76 45 -7
0 -24 -6 -38 -13z"/>
<path d="M19743 2610 c-117 -71 -63 -260 75 -260 139 0 200 158 97 249 -30 26
-44 31 -88 31 -34 0 -63 -7 -84 -20z"/>
</g>
</svg>
