<svg xmlns="http://www.w3.org/2000/svg" width="2362" height="1772" viewBox="0 0 2362 1772" version="1.1"><path d="M 1306.500 175.684 C 1144.942 183.918, 1002.150 293.611, 952.013 448 L 948.278 459.500 847.389 460.082 C 741.186 460.694, 743.505 460.600, 715 465.468 C 628.636 480.219, 544.808 530.212, 489.421 600 C 308.112 828.449, 448.113 1169.327, 739 1207.687 C 759.059 1210.332, 1708.530 1211.070, 1735 1208.461 C 1855.495 1196.584, 1936.070 1112.579, 1943.970 990.595 C 1945.715 963.647, 1945.348 671.992, 1943.557 662.632 C 1930.474 594.256, 1833.278 583.868, 1807.945 648.138 C 1802.201 662.712, 1802.620 650.030, 1801.960 829.500 C 1801.399 982.279, 1801.224 995.056, 1799.592 1002 C 1792.076 1033.998, 1767.918 1057.806, 1736 1064.672 C 1722.794 1067.512, 765.725 1067.526, 748.500 1064.686 C 539.644 1030.251, 479.476 755.342, 655.500 639.765 C 705.707 606.799, 729.427 602.382, 857.669 602.122 L 933.837 601.967 934.504 608.734 C 959.400 861.466, 1213.727 1025.674, 1454.515 944.481 C 1538.037 916.318, 1629.066 846.183, 1639.444 802 C 1657.060 726.997, 1567.282 684.774, 1513.411 742.726 C 1372.342 894.481, 1115.875 820.123, 1078.563 616.649 C 1036.946 389.701, 1296.298 229.697, 1480.964 368.392 C 1509.603 389.901, 1554.798 445.064, 1554.983 458.735 C 1554.996 459.709, 1521.219 460.026, 1395.250 460.235 L 1235.500 460.500 1227.369 463.256 C 1160.337 485.976, 1165.720 585.346, 1234.752 599.537 C 1246.892 602.032, 1660.028 601.241, 1668.465 598.705 C 1708.379 586.714, 1725.656 553.696, 1717.451 505.094 C 1683.936 306.580, 1507.837 165.422, 1306.500 175.684 M 1864.500 330.667 C 1769.362 338.525, 1744.415 466.678, 1829.712 509.377 C 1905.554 547.342, 1989.005 471.973, 1959.971 391.733 C 1947.086 356.124, 1902.023 325.410, 1869.644 330.168 C 1869.015 330.261, 1866.700 330.485, 1864.500 330.667 M 467 1389.425 C 392.425 1405.244, 389.034 1517.157, 462.558 1536.021 C 503.459 1546.516, 553.470 1520.742, 546.005 1493.017 C 541.820 1477.477, 526.076 1475.113, 509.428 1487.526 C 480.529 1509.071, 451.499 1496.781, 451.500 1463 C 451.501 1430.322, 482.079 1417.053, 508.438 1438.293 C 524.453 1451.197, 540.054 1449.434, 545.461 1434.110 C 554.598 1408.215, 506.787 1380.986, 467 1389.425 M 588.917 1389.022 C 573.795 1391.592, 573.904 1391.029, 574.228 1464.690 L 574.500 1526.657 577.384 1530.437 C 585.816 1541.490, 602.839 1540.069, 609.106 1527.790 C 612.184 1521.759, 612.024 1404.747, 608.929 1398.353 C 605.593 1391.461, 597.305 1387.597, 588.917 1389.022 M 1007.917 1389.022 C 996.376 1390.983, 993 1397.276, 993 1416.824 L 993 1431.017 987.750 1428.058 C 941.084 1401.755, 892.428 1459.343, 918.194 1510.384 C 931.176 1536.102, 968.737 1546.865, 991.249 1531.318 L 994.999 1528.729 997.171 1531.490 C 1004.112 1540.315, 1019.501 1539.765, 1026.616 1530.437 L 1029.500 1526.657 1029.772 1464.690 C 1030.041 1403.565, 1030.016 1402.665, 1027.951 1398.400 C 1024.592 1391.459, 1016.330 1387.592, 1007.917 1389.022 M 1638.482 1388.591 C 1637.942 1388.726, 1635.786 1389.123, 1633.690 1389.475 C 1628.126 1390.407, 1622.375 1395.998, 1620.506 1402.293 C 1618.610 1408.675, 1618.251 1514.408, 1620.095 1523.009 C 1624.071 1541.546, 1652.461 1543.092, 1657.862 1525.066 C 1660.061 1517.725, 1659.362 1404.394, 1657.087 1399.384 C 1654.161 1392.940, 1644.200 1387.161, 1638.482 1388.591 M 266.206 1390.048 C 260.528 1392.326, 258.226 1478.521, 263.363 1496.500 C 279.486 1552.933, 359.850 1552.933, 375.650 1496.500 C 377.775 1488.908, 378.969 1403.314, 377.049 1396.183 C 375.330 1389.797, 369.206 1387.291, 363.072 1390.463 C 358.925 1392.607, 359.003 1391.736, 358.969 1436.332 C 358.916 1507.022, 353.403 1518.500, 319.500 1518.500 C 285.620 1518.500, 280.075 1506.992, 279.988 1436.500 C 279.949 1405.087, 279.629 1394.100, 278.718 1392.913 C 275.939 1389.294, 270.938 1388.148, 266.206 1390.048 M 1297.656 1390.078 C 1293.695 1392.498, 1293 1396.857, 1293 1419.274 L 1293 1440.613 1287.581 1435.364 C 1248.623 1397.631, 1186.473 1441.299, 1200.515 1496.540 C 1210.582 1536.142, 1259.784 1552.484, 1287.572 1525.454 L 1292.759 1520.408 1293.298 1526.350 C 1294.235 1536.688, 1302.911 1541.293, 1308.722 1534.537 L 1311 1531.888 1311 1463.055 C 1311 1398.837, 1310.882 1394.076, 1309.240 1392.048 C 1307.188 1389.513, 1300.454 1388.368, 1297.656 1390.078 M 127.451 1392.131 C 122.402 1394.583, 122.520 1393.046, 122.221 1460.787 C 121.847 1545.772, 114.847 1535.500, 173.133 1535.500 C 224.562 1535.500, 227.654 1534.682, 222.537 1522.435 C 220.272 1517.013, 220.168 1517, 179.066 1517 L 141 1517 141 1494 L 141 1471 174.865 1471 C 212.391 1471, 213.010 1470.894, 214.297 1464.273 C 216.297 1453.983, 212.777 1453, 173.953 1453 L 141 1453 141 1431.500 L 141 1410 177.532 1410 C 217.423 1410, 220.032 1409.676, 222.006 1404.483 C 223.702 1400.024, 223.148 1396.994, 220.077 1393.923 L 217.154 1391 173.327 1391.068 C 146.429 1391.109, 128.709 1391.520, 127.451 1392.131 M 1071.923 1393.923 L 1069 1396.846 1069 1462.473 C 1069 1546.470, 1061.583 1536.233, 1122.128 1535.801 L 1164.166 1535.500 1167.083 1532.234 C 1170.958 1527.896, 1170.956 1523.802, 1167.077 1519.923 L 1164.154 1517 1126.077 1517 L 1088 1517 1088 1494 L 1088 1471 1121.577 1471 L 1155.154 1471 1158.077 1468.077 C 1161.741 1464.413, 1161.924 1460.186, 1158.588 1456.306 L 1156.175 1453.500 1122.088 1453.212 L 1088 1452.924 1088 1431.497 L 1088 1410.069 1125.978 1409.784 L 1163.957 1409.500 1166.540 1406.915 C 1170.807 1402.647, 1169.987 1395.079, 1164.979 1392.489 C 1162.558 1391.237, 1155.153 1391, 1118.473 1391 L 1074.846 1391 1071.923 1393.923 M 1831.459 1392.880 C 1820.544 1397.837, 1816.735 1411.956, 1823.538 1422.236 C 1827.852 1428.756, 1831.902 1429.952, 1849.750 1429.978 L 1865 1430 1865.006 1475.250 C 1865.013 1533.032, 1866.583 1537.956, 1885 1537.956 C 1903.458 1537.956, 1905 1533.135, 1905 1475.442 L 1905 1430.135 1921.328 1429.817 C 1937.078 1429.511, 1937.797 1429.406, 1941.671 1426.839 C 1954.526 1418.323, 1951.218 1396.208, 1936.477 1392.115 C 1928.839 1389.995, 1836.328 1390.668, 1831.459 1392.880 M 1443.973 1417.704 C 1442.613 1418.641, 1438.917 1421.543, 1435.759 1424.153 L 1430.019 1428.898 1424.759 1426.507 C 1383.109 1407.575, 1333.782 1448.463, 1362.016 1478.517 C 1363.917 1480.541, 1363.901 1480.591, 1360.136 1484.245 C 1352.330 1491.821, 1352.166 1505.564, 1359.801 1512.353 L 1361.885 1514.206 1357.693 1517.367 C 1348.408 1524.368, 1345.897 1539.338, 1352.609 1547.677 C 1371.568 1571.235, 1444.559 1565.285, 1453.357 1539.464 C 1461.892 1514.417, 1446.217 1504.062, 1399.700 1504.020 C 1373.199 1503.996, 1371 1503.310, 1371 1495.073 C 1371 1490.136, 1374.002 1488.512, 1379.690 1490.373 C 1420.592 1503.759, 1456.677 1478.121, 1443.978 1444.699 L 1442.057 1439.643 1446.200 1436.072 C 1448.479 1434.107, 1451.169 1431.910, 1452.178 1431.189 C 1455.268 1428.980, 1457.118 1424.440, 1456.060 1421.657 C 1454.086 1416.465, 1448.447 1414.620, 1443.973 1417.704 M 682.069 1423.019 C 610.672 1438.135, 621.770 1538, 694.846 1538 C 773.844 1538, 776.486 1425.072, 697.549 1422.449 C 691.472 1422.247, 684.506 1422.503, 682.069 1423.019 M 866.500 1422.747 C 861.217 1423.621, 859.784 1424.251, 856.480 1427.152 C 850.487 1432.414, 850.541 1432.109, 850 1463.500 C 849.450 1495.388, 849.235 1496.507, 842.718 1501.365 C 838.323 1504.641, 827.560 1504.900, 823.092 1501.837 C 815.420 1496.576, 815.557 1497.210, 815 1464.679 C 814.571 1439.635, 814.257 1435.056, 812.786 1432.369 C 805.747 1419.512, 785.842 1419.705, 779.391 1432.694 C 776.141 1439.235, 776.548 1498.594, 779.913 1508.866 C 788.820 1536.060, 829.008 1548.602, 848.295 1530.206 L 851.089 1527.540 853.715 1530.895 C 860.823 1539.978, 875.683 1540.107, 883.218 1531.152 C 887.691 1525.837, 888.131 1520.624, 887.803 1476.838 L 887.500 1436.500 885 1432.051 C 881.456 1425.745, 873.269 1421.627, 866.500 1422.747 M 1523.500 1423.022 C 1469.718 1433.817, 1464.889 1517.091, 1517 1535.121 C 1545.920 1545.127, 1585 1529.846, 1585 1508.532 C 1585 1498.583, 1576.516 1498.580, 1567.618 1508.525 C 1545.447 1533.309, 1504.957 1521.846, 1499.532 1489.250 L 1498.824 1485 1540.690 1485 C 1591.597 1485, 1590.297 1485.478, 1588.003 1467.611 C 1583.897 1435.637, 1556.164 1416.466, 1523.500 1423.022 M 1731.500 1423.411 C 1702.372 1430.125, 1686.064 1450.608, 1686.015 1480.540 C 1685.891 1556.457, 1802.722 1558.832, 1805.768 1482.974 C 1807.414 1441.970, 1772.492 1413.963, 1731.500 1423.411 M 2060.276 1423.511 C 2005.631 1435.385, 2005.773 1522.517, 2060.460 1536.478 C 2084.566 1542.633, 2113.257 1533.138, 2121.931 1516.135 C 2129.428 1501.439, 2118.652 1495.848, 2106.728 1508.247 C 2083.118 1532.797, 2042.781 1521.868, 2038.376 1489.727 L 2037.728 1485 2079.910 1485 L 2122.091 1485 2124.545 1482.545 C 2129.223 1477.868, 2127.382 1460.642, 2120.814 1447.631 C 2111.040 1428.269, 2085.398 1418.053, 2060.276 1423.511 M 2163.858 1425.988 L 2160.870 1428.976 2161.235 1466.738 C 2161.644 1508.993, 2161.937 1510.934, 2169.523 1521.604 C 2183.844 1541.746, 2219.871 1544.294, 2237.750 1526.430 L 2244 1520.185 2244 1526.037 C 2244 1536.577, 2252.125 1541.328, 2258.777 1534.678 L 2261.500 1531.956 2261.777 1482.010 C 2262.107 1422.426, 2261.892 1421.297, 2250.605 1423.414 C 2244.064 1424.641, 2244 1424.983, 2244 1458.673 C 2244 1496.564, 2242.694 1503.240, 2233.474 1512.460 C 2221.489 1524.445, 2197.072 1524.819, 2186.848 1513.175 C 2179.627 1504.950, 2179.555 1504.499, 2179 1464.162 L 2178.500 1427.824 2175.694 1425.412 C 2171.787 1422.053, 2167.588 1422.258, 2163.858 1425.988 M 1388.222 1438.470 C 1376.785 1442.041, 1371.036 1451.981, 1374.009 1463.042 C 1379.700 1484.210, 1423.343 1483.225, 1428.152 1461.819 C 1432.129 1444.120, 1410.545 1431.499, 1388.222 1438.470 M 1522.324 1439.385 C 1510.599 1443.204, 1501.850 1453.165, 1499.606 1465.250 L 1498.909 1469 1534.455 1469 L 1570 1469 1570 1466.538 C 1570 1447.420, 1543.681 1432.430, 1522.324 1439.385 M 2060.300 1439.807 C 2048.117 1444.145, 2038 1456.792, 2038 1467.682 C 2038 1468.748, 2044.805 1469, 2073.628 1469 L 2109.256 1469 2108.607 1464.945 C 2105.368 1444.689, 2081.488 1432.263, 2060.300 1439.807 M 1244.500 1440.345 C 1198.399 1455.624, 1214.505 1529.613, 1262.055 1520.990 C 1307.736 1512.706, 1303.293 1440.913, 1257 1439.313 C 1251.829 1439.134, 1246.933 1439.538, 1244.500 1440.345 M 690.058 1457.143 C 670.971 1460.658, 667.001 1493.119, 684.634 1501.499 C 700.569 1509.073, 715.956 1498.757, 715.956 1480.500 C 715.956 1463.836, 705.403 1454.318, 690.058 1457.143 M 967.380 1457.025 C 956.372 1458.562, 949.186 1469.272, 950.252 1482.552 C 952.542 1511.076, 990.458 1511.076, 992.748 1482.552 C 994.097 1465.744, 983.231 1454.811, 967.380 1457.025 M 1741.905 1456.986 C 1721.464 1460.677, 1718.265 1493.401, 1737.491 1502.135 C 1752.071 1508.759, 1767.306 1497.784, 1767.338 1480.634 C 1767.369 1464.393, 1756.557 1454.340, 1741.905 1456.986 M 1977 1509.068 C 1967.053 1513.233, 1964.295 1526.118, 1971.809 1533.317 C 1983.642 1544.654, 2001.959 1531.803, 1995.613 1516.617 C 1992.987 1510.332, 1983.332 1506.416, 1977 1509.068 M 1372.294 1521.338 C 1353.355 1536.257, 1382.014 1551.253, 1417.616 1545.053 C 1435.786 1541.889, 1442.468 1530.196, 1430.547 1522.425 C 1426.018 1519.472, 1375.850 1518.536, 1372.294 1521.338" stroke="none" fill="#647489" fill-rule="evenodd"/><path d="M 0 886 L 0 1772.001 1181.250 1771.750 L 2362.500 1771.500 2362.751 885.750 L 2363.001 0 1181.501 0 L 0 0 0 886 M 0.498 886.500 C 0.498 1373.800, 0.611 1573, 0.750 1329.168 C 0.889 1085.335, 0.889 686.635, 0.750 443.168 C 0.611 199.700, 0.498 399.200, 0.498 886.500 M 1306.500 175.684 C 1144.942 183.918, 1002.150 293.611, 952.013 448 L 948.278 459.500 847.389 460.082 C 741.186 460.694, 743.505 460.600, 715 465.468 C 628.636 480.219, 544.808 530.212, 489.421 600 C 308.112 828.449, 448.113 1169.327, 739 1207.687 C 759.059 1210.332, 1708.530 1211.070, 1735 1208.461 C 1855.495 1196.584, 1936.070 1112.579, 1943.970 990.595 C 1945.715 963.647, 1945.348 671.992, 1943.557 662.632 C 1930.474 594.256, 1833.278 583.868, 1807.945 648.138 C 1802.201 662.712, 1802.620 650.030, 1801.960 829.500 C 1801.399 982.279, 1801.224 995.056, 1799.592 1002 C 1792.076 1033.998, 1767.918 1057.806, 1736 1064.672 C 1722.794 1067.512, 765.725 1067.526, 748.500 1064.686 C 539.644 1030.251, 479.476 755.342, 655.500 639.765 C 705.707 606.799, 729.427 602.382, 857.669 602.122 L 933.837 601.967 934.504 608.734 C 959.400 861.466, 1213.727 1025.674, 1454.515 944.481 C 1538.037 916.318, 1629.066 846.183, 1639.444 802 C 1657.060 726.997, 1567.282 684.774, 1513.411 742.726 C 1372.342 894.481, 1115.875 820.123, 1078.563 616.649 C 1036.946 389.701, 1296.298 229.697, 1480.964 368.392 C 1509.603 389.901, 1554.798 445.064, 1554.983 458.735 C 1554.996 459.709, 1521.219 460.026, 1395.250 460.235 L 1235.500 460.500 1227.369 463.256 C 1160.337 485.976, 1165.720 585.346, 1234.752 599.537 C 1246.892 602.032, 1660.028 601.241, 1668.465 598.705 C 1708.379 586.714, 1725.656 553.696, 1717.451 505.094 C 1683.936 306.580, 1507.837 165.422, 1306.500 175.684 M 1864.500 330.667 C 1769.362 338.525, 1744.415 466.678, 1829.712 509.377 C 1905.554 547.342, 1989.005 471.973, 1959.971 391.733 C 1947.086 356.124, 1902.023 325.410, 1869.644 330.168 C 1869.015 330.261, 1866.700 330.485, 1864.500 330.667 M 467 1389.425 C 392.425 1405.244, 389.034 1517.157, 462.558 1536.021 C 503.459 1546.516, 553.470 1520.742, 546.005 1493.017 C 541.820 1477.477, 526.076 1475.113, 509.428 1487.526 C 480.529 1509.071, 451.499 1496.781, 451.500 1463 C 451.501 1430.322, 482.079 1417.053, 508.438 1438.293 C 524.453 1451.197, 540.054 1449.434, 545.461 1434.110 C 554.598 1408.215, 506.787 1380.986, 467 1389.425 M 588.917 1389.022 C 573.795 1391.592, 573.904 1391.029, 574.228 1464.690 L 574.500 1526.657 577.384 1530.437 C 585.816 1541.490, 602.839 1540.069, 609.106 1527.790 C 612.184 1521.759, 612.024 1404.747, 608.929 1398.353 C 605.593 1391.461, 597.305 1387.597, 588.917 1389.022 M 1007.917 1389.022 C 996.376 1390.983, 993 1397.276, 993 1416.824 L 993 1431.017 987.750 1428.058 C 941.084 1401.755, 892.428 1459.343, 918.194 1510.384 C 931.176 1536.102, 968.737 1546.865, 991.249 1531.318 L 994.999 1528.729 997.171 1531.490 C 1004.112 1540.315, 1019.501 1539.765, 1026.616 1530.437 L 1029.500 1526.657 1029.772 1464.690 C 1030.041 1403.565, 1030.016 1402.665, 1027.951 1398.400 C 1024.592 1391.459, 1016.330 1387.592, 1007.917 1389.022 M 1638.482 1388.591 C 1637.942 1388.726, 1635.786 1389.123, 1633.690 1389.475 C 1628.126 1390.407, 1622.375 1395.998, 1620.506 1402.293 C 1618.610 1408.675, 1618.251 1514.408, 1620.095 1523.009 C 1624.071 1541.546, 1652.461 1543.092, 1657.862 1525.066 C 1660.061 1517.725, 1659.362 1404.394, 1657.087 1399.384 C 1654.161 1392.940, 1644.200 1387.161, 1638.482 1388.591 M 266.206 1390.048 C 260.528 1392.326, 258.226 1478.521, 263.363 1496.500 C 279.486 1552.933, 359.850 1552.933, 375.650 1496.500 C 377.775 1488.908, 378.969 1403.314, 377.049 1396.183 C 375.330 1389.797, 369.206 1387.291, 363.072 1390.463 C 358.925 1392.607, 359.003 1391.736, 358.969 1436.332 C 358.916 1507.022, 353.403 1518.500, 319.500 1518.500 C 285.620 1518.500, 280.075 1506.992, 279.988 1436.500 C 279.949 1405.087, 279.629 1394.100, 278.718 1392.913 C 275.939 1389.294, 270.938 1388.148, 266.206 1390.048 M 1297.656 1390.078 C 1293.695 1392.498, 1293 1396.857, 1293 1419.274 L 1293 1440.613 1287.581 1435.364 C 1248.623 1397.631, 1186.473 1441.299, 1200.515 1496.540 C 1210.582 1536.142, 1259.784 1552.484, 1287.572 1525.454 L 1292.759 1520.408 1293.298 1526.350 C 1294.235 1536.688, 1302.911 1541.293, 1308.722 1534.537 L 1311 1531.888 1311 1463.055 C 1311 1398.837, 1310.882 1394.076, 1309.240 1392.048 C 1307.188 1389.513, 1300.454 1388.368, 1297.656 1390.078 M 127.451 1392.131 C 122.402 1394.583, 122.520 1393.046, 122.221 1460.787 C 121.847 1545.772, 114.847 1535.500, 173.133 1535.500 C 224.562 1535.500, 227.654 1534.682, 222.537 1522.435 C 220.272 1517.013, 220.168 1517, 179.066 1517 L 141 1517 141 1494 L 141 1471 174.865 1471 C 212.391 1471, 213.010 1470.894, 214.297 1464.273 C 216.297 1453.983, 212.777 1453, 173.953 1453 L 141 1453 141 1431.500 L 141 1410 177.532 1410 C 217.423 1410, 220.032 1409.676, 222.006 1404.483 C 223.702 1400.024, 223.148 1396.994, 220.077 1393.923 L 217.154 1391 173.327 1391.068 C 146.429 1391.109, 128.709 1391.520, 127.451 1392.131 M 1071.923 1393.923 L 1069 1396.846 1069 1462.473 C 1069 1546.470, 1061.583 1536.233, 1122.128 1535.801 L 1164.166 1535.500 1167.083 1532.234 C 1170.958 1527.896, 1170.956 1523.802, 1167.077 1519.923 L 1164.154 1517 1126.077 1517 L 1088 1517 1088 1494 L 1088 1471 1121.577 1471 L 1155.154 1471 1158.077 1468.077 C 1161.741 1464.413, 1161.924 1460.186, 1158.588 1456.306 L 1156.175 1453.500 1122.088 1453.212 L 1088 1452.924 1088 1431.497 L 1088 1410.069 1125.978 1409.784 L 1163.957 1409.500 1166.540 1406.915 C 1170.807 1402.647, 1169.987 1395.079, 1164.979 1392.489 C 1162.558 1391.237, 1155.153 1391, 1118.473 1391 L 1074.846 1391 1071.923 1393.923 M 1831.459 1392.880 C 1820.544 1397.837, 1816.735 1411.956, 1823.538 1422.236 C 1827.852 1428.756, 1831.902 1429.952, 1849.750 1429.978 L 1865 1430 1865.006 1475.250 C 1865.013 1533.032, 1866.583 1537.956, 1885 1537.956 C 1903.458 1537.956, 1905 1533.135, 1905 1475.442 L 1905 1430.135 1921.328 1429.817 C 1937.078 1429.511, 1937.797 1429.406, 1941.671 1426.839 C 1954.526 1418.323, 1951.218 1396.208, 1936.477 1392.115 C 1928.839 1389.995, 1836.328 1390.668, 1831.459 1392.880 M 1443.973 1417.704 C 1442.613 1418.641, 1438.917 1421.543, 1435.759 1424.153 L 1430.019 1428.898 1424.759 1426.507 C 1383.109 1407.575, 1333.782 1448.463, 1362.016 1478.517 C 1363.917 1480.541, 1363.901 1480.591, 1360.136 1484.245 C 1352.330 1491.821, 1352.166 1505.564, 1359.801 1512.353 L 1361.885 1514.206 1357.693 1517.367 C 1348.408 1524.368, 1345.897 1539.338, 1352.609 1547.677 C 1371.568 1571.235, 1444.559 1565.285, 1453.357 1539.464 C 1461.892 1514.417, 1446.217 1504.062, 1399.700 1504.020 C 1373.199 1503.996, 1371 1503.310, 1371 1495.073 C 1371 1490.136, 1374.002 1488.512, 1379.690 1490.373 C 1420.592 1503.759, 1456.677 1478.121, 1443.978 1444.699 L 1442.057 1439.643 1446.200 1436.072 C 1448.479 1434.107, 1451.169 1431.910, 1452.178 1431.189 C 1455.268 1428.980, 1457.118 1424.440, 1456.060 1421.657 C 1454.086 1416.465, 1448.447 1414.620, 1443.973 1417.704 M 682.069 1423.019 C 610.672 1438.135, 621.770 1538, 694.846 1538 C 773.844 1538, 776.486 1425.072, 697.549 1422.449 C 691.472 1422.247, 684.506 1422.503, 682.069 1423.019 M 866.500 1422.747 C 861.217 1423.621, 859.784 1424.251, 856.480 1427.152 C 850.487 1432.414, 850.541 1432.109, 850 1463.500 C 849.450 1495.388, 849.235 1496.507, 842.718 1501.365 C 838.323 1504.641, 827.560 1504.900, 823.092 1501.837 C 815.420 1496.576, 815.557 1497.210, 815 1464.679 C 814.571 1439.635, 814.257 1435.056, 812.786 1432.369 C 805.747 1419.512, 785.842 1419.705, 779.391 1432.694 C 776.141 1439.235, 776.548 1498.594, 779.913 1508.866 C 788.820 1536.060, 829.008 1548.602, 848.295 1530.206 L 851.089 1527.540 853.715 1530.895 C 860.823 1539.978, 875.683 1540.107, 883.218 1531.152 C 887.691 1525.837, 888.131 1520.624, 887.803 1476.838 L 887.500 1436.500 885 1432.051 C 881.456 1425.745, 873.269 1421.627, 866.500 1422.747 M 1523.500 1423.022 C 1469.718 1433.817, 1464.889 1517.091, 1517 1535.121 C 1545.920 1545.127, 1585 1529.846, 1585 1508.532 C 1585 1498.583, 1576.516 1498.580, 1567.618 1508.525 C 1545.447 1533.309, 1504.957 1521.846, 1499.532 1489.250 L 1498.824 1485 1540.690 1485 C 1591.597 1485, 1590.297 1485.478, 1588.003 1467.611 C 1583.897 1435.637, 1556.164 1416.466, 1523.500 1423.022 M 1731.500 1423.411 C 1702.372 1430.125, 1686.064 1450.608, 1686.015 1480.540 C 1685.891 1556.457, 1802.722 1558.832, 1805.768 1482.974 C 1807.414 1441.970, 1772.492 1413.963, 1731.500 1423.411 M 2060.276 1423.511 C 2005.631 1435.385, 2005.773 1522.517, 2060.460 1536.478 C 2084.566 1542.633, 2113.257 1533.138, 2121.931 1516.135 C 2129.428 1501.439, 2118.652 1495.848, 2106.728 1508.247 C 2083.118 1532.797, 2042.781 1521.868, 2038.376 1489.727 L 2037.728 1485 2079.910 1485 L 2122.091 1485 2124.545 1482.545 C 2129.223 1477.868, 2127.382 1460.642, 2120.814 1447.631 C 2111.040 1428.269, 2085.398 1418.053, 2060.276 1423.511 M 2163.858 1425.988 L 2160.870 1428.976 2161.235 1466.738 C 2161.644 1508.993, 2161.937 1510.934, 2169.523 1521.604 C 2183.844 1541.746, 2219.871 1544.294, 2237.750 1526.430 L 2244 1520.185 2244 1526.037 C 2244 1536.577, 2252.125 1541.328, 2258.777 1534.678 L 2261.500 1531.956 2261.777 1482.010 C 2262.107 1422.426, 2261.892 1421.297, 2250.605 1423.414 C 2244.064 1424.641, 2244 1424.983, 2244 1458.673 C 2244 1496.564, 2242.694 1503.240, 2233.474 1512.460 C 2221.489 1524.445, 2197.072 1524.819, 2186.848 1513.175 C 2179.627 1504.950, 2179.555 1504.499, 2179 1464.162 L 2178.500 1427.824 2175.694 1425.412 C 2171.787 1422.053, 2167.588 1422.258, 2163.858 1425.988 M 1388.222 1438.470 C 1376.785 1442.041, 1371.036 1451.981, 1374.009 1463.042 C 1379.700 1484.210, 1423.343 1483.225, 1428.152 1461.819 C 1432.129 1444.120, 1410.545 1431.499, 1388.222 1438.470 M 1522.324 1439.385 C 1510.599 1443.204, 1501.850 1453.165, 1499.606 1465.250 L 1498.909 1469 1534.455 1469 L 1570 1469 1570 1466.538 C 1570 1447.420, 1543.681 1432.430, 1522.324 1439.385 M 2060.300 1439.807 C 2048.117 1444.145, 2038 1456.792, 2038 1467.682 C 2038 1468.748, 2044.805 1469, 2073.628 1469 L 2109.256 1469 2108.607 1464.945 C 2105.368 1444.689, 2081.488 1432.263, 2060.300 1439.807 M 1244.500 1440.345 C 1198.399 1455.624, 1214.505 1529.613, 1262.055 1520.990 C 1307.736 1512.706, 1303.293 1440.913, 1257 1439.313 C 1251.829 1439.134, 1246.933 1439.538, 1244.500 1440.345 M 690.058 1457.143 C 670.971 1460.658, 667.001 1493.119, 684.634 1501.499 C 700.569 1509.073, 715.956 1498.757, 715.956 1480.500 C 715.956 1463.836, 705.403 1454.318, 690.058 1457.143 M 967.380 1457.025 C 956.372 1458.562, 949.186 1469.272, 950.252 1482.552 C 952.542 1511.076, 990.458 1511.076, 992.748 1482.552 C 994.097 1465.744, 983.231 1454.811, 967.380 1457.025 M 1741.905 1456.986 C 1721.464 1460.677, 1718.265 1493.401, 1737.491 1502.135 C 1752.071 1508.759, 1767.306 1497.784, 1767.338 1480.634 C 1767.369 1464.393, 1756.557 1454.340, 1741.905 1456.986 M 1977 1509.068 C 1967.053 1513.233, 1964.295 1526.118, 1971.809 1533.317 C 1983.642 1544.654, 2001.959 1531.803, 1995.613 1516.617 C 1992.987 1510.332, 1983.332 1506.416, 1977 1509.068 M 1372.294 1521.338 C 1353.355 1536.257, 1382.014 1551.253, 1417.616 1545.053 C 1435.786 1541.889, 1442.468 1530.196, 1430.547 1522.425 C 1426.018 1519.472, 1375.850 1518.536, 1372.294 1521.338" stroke="none" fill="#fbfbfb" fill-rule="evenodd"/></svg>