<?xml version="1.0" encoding="utf-8"?>
<!-- Generator: Adobe Illustrator 25.4.1, SVG Export Plug-In . SVG Version: 6.00 Build 0)  -->
<svg version="1.0" id="katman_1" xmlns="http://www.w3.org/2000/svg" xmlns:xlink="http://www.w3.org/1999/xlink" x="0px" y="0px"
	 viewBox="0 0 1024 768" style="enable-background:new 0 0 1024 768;" xml:space="preserve">
<style type="text/css">
	.st0{fill:#009FE3;}
</style>
<polygon class="st0" points="347.3,325 305.9,325 305.9,348.6 340.3,348.6 340.3,365.2 305.9,365.2 305.9,390 349.7,390 
	349.7,406.6 286.2,406.6 286.2,308.4 347.3,308.4 "/>
<g>
	<g>
		<path class="st0" d="M428.2,308.4v67.9c0,20.2-13.9,31.8-34.6,31.8c-20.7,0-34.6-11.7-34.6-31.8v-67.9h19.9V370
			c0,16.4,4.9,21.4,14.9,21.4s14.9-5.1,14.9-21.4v-61.6H428.2z"/>
		<path class="st0" d="M482.4,308.4c22.6,0,31.5,16.1,31.5,28.7c-0.1,10.9-6.6,20.6-16.7,24.7l19.4,44.8h-20.6l-17.7-40.8h-15v40.8
			h-19.7v-98.2H482.4z M472.1,349.2c8.6,0,21.7,0.5,21.7-11.7c0-13.5-13.3-12.4-23-12.4h-7.5v24.1L472.1,349.2z"/>
		<path class="st0" d="M601,357.5c0,24.8-12.5,50.5-40.5,50.5c-28,0-40.5-25.9-40.5-50.5c0-24.7,12.5-50.5,40.5-50.5
			S601,332.8,601,357.5 M540.2,357.5c0,12.6,3.4,35,20.3,35c16.9,0,20.3-22.5,20.3-35s-3.4-35-20.3-35
			C543.5,322.5,540.2,345,540.2,357.5"/>
	</g>
</g>
<polygon class="st0" points="669.9,325 644.4,325 644.4,406.6 624.7,406.6 624.7,325 599.2,325 599.2,308.4 669.9,308.4 "/>
<polygon class="st0" points="741.3,325 699.9,325 699.9,348.6 734.2,348.6 734.2,365.2 699.9,365.2 699.9,390 743.7,390 
	743.7,406.6 680.2,406.6 680.2,308.4 741.3,308.4 "/>
<g>
	<g>
		<path class="st0" d="M824,375.7c-3.1,20.2-16.6,32.5-37,32.5c-28,0-40.5-25.9-40.5-50.5c0-24.7,12.5-50.5,40.5-50.5
			c20.2,0,33.7,11.7,37,32.5l-18.7,2.6c-1.9-10.3-6.5-19.4-18.3-19.4c-17,0-20.3,22.5-20.3,35c0,12.5,3.4,35,20.3,35
			c11.7,0,16.4-9.2,18.3-19.4L824,375.7z"/>
	</g>
</g>
<polygon class="st0" points="887.9,308.4 887.9,346.8 855.4,346.8 855.4,308.4 835.7,308.4 835.7,406.6 855.4,406.6 855.4,363.5 
	887.9,363.5 887.9,406.6 907.5,406.6 907.5,308.4 "/>
<polygon class="st0" points="160.2,326.4 160.2,332.1 181.6,332.1 187,337.6 207.7,337.6 207.7,320.8 187,320.8 181.6,326.4 "/>
<polygon class="st0" points="160.2,380.8 160.2,386.5 181.6,386.5 187,392 207.7,392 207.7,375.2 187,375.2 181.6,380.8 "/>
<polygon class="st0" points="160.2,353.6 160.2,359.3 181.6,359.3 187,364.9 207.7,364.9 207.7,348.1 187,348.1 181.6,353.6 "/>
<g>
	<g>
		<path class="st0" d="M248.6,356.5c0,35.4-28.7,64.2-64.2,64.2s-64.2-28.7-64.2-64.2c0-35.4,28.7-64.2,64.2-64.2c0,0,0,0,0,0
			C219.9,292.3,248.5,321,248.6,356.5 M184.4,286.5c-38.6,0-70,31.3-70,70s31.3,70,70,70s70-31.3,70-70S223.1,286.5,184.4,286.5"/>
		<path class="st0" d="M293.3,436.6h-7.1v35h7.1V436.6z M308.8,446.5h-6.7v25.3h6.7v-17.5c1.1-1.8,3-2.9,5.1-3
			c2.8,0,2.7,2.6,2.7,4.5v15.9h6.7v-17.5c1.1-1.7,2.9-2.8,5-3c2.8,0,2.7,2.6,2.7,4.5v15.9h6.7v-18.3c0.4-3.8-2.4-7.1-6.2-7.5
			c-0.3,0-0.6,0-0.9,0c-2.9,0.2-5.7,1.4-7.8,3.5c-1.2-2.4-3.8-3.8-6.5-3.5c-2.8,0.2-5.4,1.3-7.5,3.2V446.5z M362,471.8h6.5
			c-0.7-1.7-1-3.5-0.9-5.3v-12.6c0-4.7-3.1-8-10-8c-4.8-0.7-9.3,2.4-10.4,7.1l6.4,1c0.2-1.9,2-3.3,3.9-3.1c2.5,0,3.7,1.2,3.2,4.8
			c-5.4,0.6-14.8,2.1-14.8,9.2c0,4.1,3.4,7.5,7.5,7.5c0.1,0,0.2,0,0.3,0c2.7,0,5.2-1,7.2-2.8L362,471.8z M360.9,464
			c-1.3,2-3.5,3.2-5.9,3.3c-1.6,0-2.3-1.2-2.3-2.7c0-3.9,5.5-3.9,8.2-4.5V464z M384,454.9c0-2.4,0.9-4.7,3.9-4.7
			c3,0,3.6,1.9,3.6,4.2c0,2.3-0.8,4.7-3.6,4.7C385.1,459.1,384,457.2,384,454.9 M390.5,472.5c3.9,0.2,4.9,0,4.9,1.4
			c0,2-5.9,2.1-7,2.1s-6.3,0-6.3-2.5c0-0.7,0.4-1.3,1-1.6L390.5,472.5z M387.7,463.8c5.1,0.5,9.6-3.2,10.1-8.2c0-0.2,0-0.4,0-0.6
			c-0.1-1.5-0.6-3-1.4-4.3c0.5-0.4,1.1-0.6,1.8-0.7c0.7,0.1,1.5,0.2,2.1,0.5v-4.7c-0.6-0.1-1.3-0.1-1.9,0c-1.7,0-3.4,0.8-4.6,2.1
			c-1.9-1.1-4-1.7-6.2-1.7c-5.1-0.5-9.6,3.1-10.2,8.2c0,0.2,0,0.4,0,0.6c0,2.7,1.2,5.2,3.1,7c-2,0.9-3.2,2.9-3.3,5.1
			c0.1,1.3,0.8,2.6,2,3.2c-1.5,0.9-2.8,1.9-2.8,3.9c0,3.3,3,6.4,11.7,6.4c10,0,12.6-3.9,12.6-7.8c0-9.9-17.5-4.2-17.5-7.5
			c0.1-0.9,0.9-1.7,1.8-1.6c0,0,0,0,0,0L387.7,463.8z M415.6,446.6h-6.6v25.3h6.7L415.6,446.6z M415.6,436.7h-6.6v6.1h6.7
			L415.6,436.7z M431.6,446.6h-6.6v25.3h6.7V454c1.1-1.5,2.8-2.5,4.7-2.8c2.9,0,2.8,3.2,2.8,5.3v15.2h6.7v-17.9
			c0-6.3-3.9-7.8-6.6-7.8c-2.9,0.1-5.6,1.2-7.8,3.1L431.6,446.6z M461.4,456.6c0-2.7,1.3-5.6,4.4-5.6c3,0,4.4,2.8,4.4,5.6H461.4z
			 M476.7,460.8c0-11.7-4.7-14.8-11.1-14.8c-7.4,0-11.1,6.5-11.1,13.2s3.9,13.2,11.1,13.2c5,0.1,9.5-3,11.1-7.8l-6.2-1.1
			c-0.5,2.1-1.8,4.1-4.2,4.1c-3.2-0.4-5.5-3.2-5.1-6.4c0-0.1,0-0.2,0.1-0.4H476.7z M493.4,465.2h-6.7v6.7h6.7V465.2z M529.3,466.3
			v-10.1c6.8-0.5,10.8,0,10.8,4.9s-3.9,5.1-6.2,5.1L529.3,466.3z M536,471.9c5.7,0.5,10.8-3.7,11.3-9.4c0-0.2,0-0.5,0-0.7
			c0.1-3.5-2-6.8-5.2-8.2c2.8-1.4,4.5-4.2,4.4-7.3c0-5.7-2.9-9.7-14.3-9.7h-10.1v35L536,471.9z M529.3,442.1c5,0,10.1-0.5,10.1,4.5
			s-4.9,4.2-10.1,4.2V442.1z M570.1,471.8h6.7v-25.3h-6.7v17.7c-1.1,1.5-2.8,2.5-4.7,2.8c-2.9,0-2.8-3.2-2.8-5.2v-15.2h-6.7v18
			c0,6.2,3.9,7.8,6.6,7.8c2.8-0.1,5.5-1.3,7.6-3.1V471.8z M592.9,446.5h-6.7v25.3h6.7V446.5z M592.9,436.6h-6.7v6.1h6.7V436.6z
			 M609,436.6h-6.7v35h6.7V436.6z M634.6,471.6h5.4v-35h-6.7v12.6c-1.6-1.8-3.9-2.9-6.3-3c-3.7,0-9.3,3.2-9.3,12.6
			c0,10.7,4.7,13.8,9.8,13.8c2.4,0.1,4.8-0.9,6.5-2.6L634.6,471.6z M633.3,453.8v9.8c-0.8,1.7-2.5,2.8-4.4,2.9
			c-3.9,0-4.6-4.9-4.6-7.8s0.8-7.5,4.5-7.5c1.8,0.2,3.5,1.2,4.5,2.8 M657.3,465.1h-6.7v6.7h6.7V465.1z M709,445.6
			c-0.4-5.7-5.3-10.1-11-9.8c-6.1-0.2-11.2,4.6-11.4,10.7c0,0.1,0,0.1,0,0.2c0,12,16.6,7.8,16.6,15c0,2.5-2,4.5-4.5,4.5
			c-0.2,0-0.4,0-0.6,0c-3.3,0-4.9-2.2-5.5-5.2l-7,1c0.8,6.2,6.4,10.7,12.6,10.1c6.1,0.5,11.4-4,11.9-10c0-0.2,0-0.4,0-0.7
			c0-13.1-16.6-8.6-16.6-15.6c0.1-2.3,2.1-4,4.3-3.9c2.8,0,4.2,2.5,4.9,4.9L709,445.6z M732.6,471.8h6.7v-25.3h-6.7v17.7
			c-1.1,1.5-2.8,2.5-4.7,2.8c-2.9,0-2.8-3.2-2.8-5.2v-15.2h-6.6v18c0,6.2,3.9,7.8,6.6,7.8c2.8-0.1,5.5-1.3,7.6-3.1L732.6,471.8z
			 M763.7,462.5c-0.5,2.4-1.2,4.9-4.5,4.9c-3.4,0-4.2-5.1-4.2-8.3c0-3.1,0.6-8.3,4.2-8.3s3.9,2.4,4.5,4.8l6.1-1
			c-0.8-5.2-5.4-9-10.6-8.7c-7.4,0-11.1,6.5-11.1,13.2s4,13.3,11.2,13.3c5.2,0.2,9.8-3.5,10.6-8.7L763.7,462.5z M793.4,462.5
			c-0.5,2.4-1.1,4.9-4.5,4.9c-3.4,0-4.2-5.1-4.2-8.3c0-3.1,0.6-8.3,4.2-8.3s3.9,2.4,4.5,4.8l6.1-1c-0.8-5.2-5.3-9-10.6-8.7
			c-7.4,0-11.1,6.5-11.1,13.2s3.9,13.2,11.1,13.2c5.2,0.2,9.8-3.5,10.6-8.7L793.4,462.5z M814.5,456.5c0-2.7,1.3-5.6,4.3-5.6
			s4.4,2.8,4.4,5.6H814.5z M829.8,460.8c0-11.7-4.7-14.8-11.1-14.8c-7.4,0-11.1,6.5-11.1,13.2s3.9,13.2,11.1,13.2
			c5,0.1,9.5-3,11.1-7.8l-6.2-1.1c-0.5,2.1-1.8,4.1-4.2,4.1c-3.2-0.3-5.5-3.2-5.2-6.4c0-0.1,0-0.3,0.1-0.4H829.8z M844.8,456.6
			c0-2.7,1.3-5.6,4.4-5.6s4.3,2.8,4.3,5.6H844.8z M860.1,460.8c0.2-11.7-4.7-14.8-11.1-14.8c-7.4,0-11.1,6.5-11.1,13.2
			s3.6,13.2,11.1,13.2c5,0.1,9.5-3,11.1-7.8l-6.2-1.1c-0.2,2.2-2,3.9-4.2,4.1c-3.2-0.4-5.5-3.3-5.1-6.5c0-0.1,0-0.2,0-0.2
			L860.1,460.8z M885,471.9h5.4v-35h-6.7v12.2c-1.6-1.8-3.8-2.9-6.2-3c-3.7,0-9.3,3.2-9.3,12.6c0,10.7,4.7,13.8,9.8,13.8
			c2.4,0.1,4.7-0.9,6.4-2.6L885,471.9z M883.6,454.1v9.8c-0.8,1.7-2.5,2.8-4.4,2.9c-3.9,0-4.6-4.9-4.6-7.8s0.8-7.5,4.5-7.5
			c1.8,0.2,3.5,1.2,4.5,2.8 M907.5,465.1h-6.7v6.7h6.7V465.1z"/>
	</g>
</g>
</svg>
