<?xml version="1.0" encoding="UTF-8" standalone="no"?>
<!-- Created with Inkscape (http://www.inkscape.org/) -->

<svg
   version="1.1"
   id="svg2"
   width="1240.8687"
   height="230.27533"
   viewBox="0 0 1240.8686 230.27532"
   sodipodi:docname="Kontron logo.svg"
   inkscape:version="1.2.2 (732a01da63, 2022-12-09)"
   xmlns:inkscape="http://www.inkscape.org/namespaces/inkscape"
   xmlns:sodipodi="http://sodipodi.sourceforge.net/DTD/sodipodi-0.dtd"
   xmlns="http://www.w3.org/2000/svg"
   xmlns:svg="http://www.w3.org/2000/svg">
  <defs
     id="defs6">
    <clipPath
       clipPathUnits="userSpaceOnUse"
       id="clipPath40">
      <path
         d="M 0,841.89 H 595.276 V 0 H 0 Z"
         id="path38" />
    </clipPath>
    <clipPath
       clipPathUnits="userSpaceOnUse"
       id="clipPath52">
      <path
         d="m 391.181,774.615 h 147.401 v 27.354 H 391.181 Z"
         id="path50" />
    </clipPath>
  </defs>
  <sodipodi:namedview
     id="namedview4"
     pagecolor="#ffffff"
     bordercolor="#000000"
     borderopacity="0.25"
     inkscape:showpageshadow="2"
     inkscape:pageopacity="0.0"
     inkscape:pagecheckerboard="0"
     inkscape:deskcolor="#d1d1d1"
     showgrid="false"
     inkscape:zoom="0.71624558"
     inkscape:cx="804.89153"
     inkscape:cy="425.13351"
     inkscape:window-width="1920"
     inkscape:window-height="991"
     inkscape:window-x="-9"
     inkscape:window-y="-9"
     inkscape:window-maximized="1"
     inkscape:current-layer="g8" />
  <g
     id="g8"
     inkscape:groupmode="layer"
     inkscape:label="Kontron_Geschaeftsbericht_2022_final_sec"
     transform="matrix(8.4183421,0,0,-8.4183421,-3293.0988,6751.2494)">
    <g
       id="g32">
      <g
         id="g34">
        <g
           id="g36"
           clip-path="url(#clipPath40)">
          <g
             id="g42"
             transform="translate(391.1814,801.9684)">
            <path
               d="m 0,0 v -26.773 l 7.349,9.576 V 0 Z"
               style="fill:#46b294;fill-opacity:1;fill-rule:nonzero;stroke:none"
               id="path44" />
          </g>
          <g
             id="g46">
            <g
               id="g48"
               clip-path="url(#clipPath52)">
              <g
                 id="g54"
                 transform="translate(531.3115,795.191)">
                <path
                   d="m 0,0 c -2.475,0 -4.409,-0.774 -6.073,-2.707 l -0.116,2.127 h -7.232 v -19.416 h 7.348 v 11.139 c 0,0.232 -0.463,4.216 3.172,4.216 2.282,0 2.746,-2.05 2.824,-3.945 v -11.41 H 7.271 V -7.001 C 7.271,-2.707 4.177,0 0,0 m -30.696,-10.288 c 0,2.746 0.658,6.033 3.752,6.033 3.094,0 3.751,-3.287 3.751,-6.033 0,-2.746 -0.657,-6.034 -3.751,-6.034 -3.094,0 -3.752,3.288 -3.752,6.034 M -26.944,0 c -6.072,0 -11.294,-3.133 -11.294,-10.288 0,-7.155 5.222,-10.288 11.294,-10.288 6.073,0 11.294,3.133 11.294,10.288 C -15.65,-3.133 -20.871,0 -26.944,0 M -45.968,-0.58 H -53.2 v -19.416 h 7.348 v 7.774 c -0.116,3.713 1.2,5.995 5.028,6.034 0.503,0 1.006,0 1.548,-0.039 V 0 c -3.249,0.078 -5.647,-1.006 -6.498,-4.216 h -0.078 z m -22.291,-13.276 c -0.387,-5.957 2.63,-6.653 7.619,-6.653 1.083,0 2.282,0.077 3.945,0.387 v 4.37 c -0.85,-0.116 -1.856,-0.116 -2.823,-0.116 -1.702,0 -1.392,2.514 -1.392,3.017 v 7.697 h 4.254 v 4.574 h -4.254 v 7.358 l -7.349,-9.544 z M -78.742,0 c -2.475,0 -4.409,-0.774 -6.072,-2.708 l -0.116,2.128 h -7.233 v -19.416 h 7.349 v 11.139 c 0,0.232 -0.464,4.216 3.171,4.216 2.283,0 2.746,-2.05 2.824,-3.945 v -11.41 h 7.349 v 12.995 c 0,4.294 -3.094,7.001 -7.272,7.001 m -31.008,-10.288 c 0,2.746 0.657,6.033 3.752,6.033 3.094,0 3.751,-3.287 3.751,-6.033 0,-2.746 -0.657,-6.034 -3.751,-6.034 -3.095,0 -3.752,3.288 -3.752,6.034 M -105.998,0 c -6.073,0 -11.294,-3.133 -11.294,-10.288 0,-7.155 5.221,-10.288 11.294,-10.288 6.072,0 11.293,3.133 11.293,10.288 0,7.155 -5.221,10.288 -11.293,10.288 m -11.237,-0.58 -7.715,-9.84 7.542,-9.576 h -8.703 l -6.67,9.576 7.54,9.84 z"
                   style="fill:#005083;fill-opacity:1;fill-rule:nonzero;stroke:none"
                   id="path56" />
              </g>
            </g>
          </g>
        </g>
      </g>
    </g>
  </g>
</svg>
