<svg xmlns="http://www.w3.org/2000/svg" width="1207" height="360" viewBox="0 0 1207 360" version="1.1"><path d="M 495.500 159.161 C 491.747 161.224, 490.045 164.335, 490.022 169.173 C 489.973 179.582, 501.221 184.506, 508.476 177.252 L 511 174.727 511 169.265 L 511 163.802 507.894 160.901 C 504.552 157.779, 499.342 157.048, 495.500 159.161 M 1039.500 163.411 C 1004.227 172.165, 995.065 220.128, 1024.969 239.480 C 1032.217 244.171, 1032.174 243.785, 1025.870 247.500 C 1018.997 251.551, 1011.745 259.688, 1007.776 267.802 L 1004.500 274.500 1004.500 287 L 1004.500 299.500 1007.329 305 C 1013.101 316.222, 1020.218 322.608, 1032.500 327.584 L 1039.500 330.420 1054 330.435 L 1068.500 330.449 1075.796 327.491 C 1112.007 312.808, 1114.972 266.149, 1080.790 248.894 C 1073.928 245.430, 1074.078 245.881, 1078.750 242.763 C 1089.482 235.600, 1098.048 222.589, 1100.167 210.231 L 1101.378 203.173 1100.148 196.336 C 1095.471 170.338, 1069.155 156.051, 1039.500 163.411 M 299.546 168.250 C 297.786 178.746, 292.757 245.782, 290.524 288.500 C 289.690 304.450, 288.814 319.863, 288.576 322.750 L 288.145 328 295.487 328 L 302.829 328 303.377 320.750 C 303.678 316.762, 304.635 298.200, 305.504 279.500 C 307.861 228.771, 310.574 192, 311.962 192 C 313.432 192, 361.708 292.970, 364.436 301.750 L 365.135 304 372.317 303.985 L 379.500 303.970 383.463 294.735 C 385.642 289.656, 390.736 278.557, 394.782 270.072 C 398.827 261.586, 404.412 249.661, 407.192 243.572 C 411.979 233.087, 431.783 192.973, 432.612 192.083 C 434.541 190.012, 439.033 252.563, 440.505 302 C 440.841 313.275, 441.350 323.738, 441.637 325.250 L 442.159 328 449.579 328 L 457 328 456.999 324.750 C 456.993 311.898, 450.672 217.286, 447.846 187.750 L 445.669 165 439.403 165 L 433.136 165 431.216 167.750 C 424.517 177.345, 398.071 230.746, 380.949 269.250 C 372.392 288.491, 373.220 287.656, 370.058 280.233 C 368.715 277.080, 366.185 271.350, 364.436 267.500 C 362.687 263.650, 360.337 258.475, 359.213 256 C 345.431 225.646, 325.722 185.945, 317.201 171.370 L 313.500 165.038 306.795 165.019 L 300.091 165 299.546 168.250 M 872 246.500 L 872 328 879.500 328 L 887 328 887 287.500 C 887 265.225, 887.236 247, 887.525 247 C 897.870 247, 949.396 295.146, 967 321.261 L 971.500 327.937 979.750 327.968 C 989.590 328.006, 989.508 328.377, 982.079 317.316 C 966.369 293.924, 936.310 263.277, 912.657 246.535 L 905.813 241.691 922.657 225.703 C 931.920 216.909, 949.305 199.766, 961.290 187.607 L 983.079 165.500 974.157 165.214 L 965.235 164.928 958.868 171.692 C 942.293 189.297, 889.152 241, 887.631 241 C 887.284 241, 887 223.900, 887 203 L 887 165 879.500 165 L 872 165 872 246.500 M 1042.332 175.793 C 1008.617 187.823, 1017.231 228.702, 1055.759 239.512 L 1062.002 241.264 1065.810 238.745 C 1090.230 222.584, 1092.696 188.774, 1070.281 177.433 L 1064.682 174.601 1056.091 174.275 C 1049.629 174.030, 1046.219 174.406, 1042.332 175.793 M 579.404 205.506 C 528.391 219.263, 523.378 306.862, 572.500 326.145 L 580.500 329.286 593.013 329.767 L 605.525 330.248 614.474 328.007 C 625.791 325.171, 628.157 324.100, 627.560 322.083 C 627.302 321.212, 626.584 318.431, 625.965 315.903 L 624.840 311.306 618.170 313.865 L 611.500 316.424 598.500 316.409 C 567.953 316.374, 554.472 301.077, 554.517 266.500 L 554.534 253.500 556.815 246.187 C 563.328 225.305, 574.598 217.465, 598 217.540 L 610.500 217.579 616.259 219.637 L 622.018 221.696 623.850 215.598 L 625.681 209.500 622.592 208.146 C 613.426 204.127, 589.858 202.687, 579.404 205.506 M 678.142 205.078 C 671.924 205.884, 658.229 209.468, 654.750 211.199 L 653 212.070 653 270.035 L 653 328 659.991 328 L 666.983 328 667.241 274.315 L 667.500 220.630 672.500 219.279 C 682.709 216.519, 704.761 216.669, 712.266 219.548 C 713.511 220.026, 717.695 208.362, 716.652 207.319 C 714.296 204.963, 689.954 203.546, 678.142 205.078 M 768 205.886 C 705.615 226.055, 718.910 330.108, 783.855 329.979 L 794.500 329.958 801.455 327.504 C 869.468 303.507, 836.520 183.733, 768 205.886 M 1153.251 205.491 C 1136.330 210.222, 1127.726 220.622, 1127.599 236.500 L 1127.536 244.500 1129.818 249.169 C 1134.305 258.349, 1140.924 262.840, 1165 273.038 C 1187.945 282.758, 1193.944 289.446, 1191.086 302.117 C 1187.487 318.075, 1157.062 322.844, 1130.824 311.563 L 1129.148 310.843 1127.372 317.171 C 1125.225 324.822, 1124.706 323.972, 1133.364 326.973 L 1140.500 329.446 1159 329.473 L 1177.500 329.500 1184 327.137 C 1193.192 323.796, 1200.179 318.288, 1203.382 311.860 L 1206 306.607 1205.978 297.554 C 1205.934 279.332, 1199.760 272.678, 1172.102 261.043 C 1147.534 250.708, 1143.085 247.069, 1142.217 236.599 C 1140.667 217.915, 1167.315 210.314, 1195.187 221.489 L 1196.873 222.165 1198.437 216.901 C 1200.683 209.336, 1200.663 209.295, 1193.250 206.892 L 1186.500 204.704 1172.500 204.364 C 1162.350 204.117, 1157.056 204.427, 1153.251 205.491 M 494 267.500 L 494 328 501 328 L 508 328 508 267.500 L 508 207 501 207 L 494 207 494 267.500 M 771.300 218.804 C 759.930 222.860, 751.760 231.483, 747.239 244.201 L 744.644 251.500 744.212 264.547 C 743.399 289.119, 751.248 306.177, 766.798 313.634 L 772.500 316.369 781.500 316.787 L 790.500 317.206 796.346 315.145 C 830.823 302.991, 832.844 235.680, 799.196 220.224 C 791.565 216.718, 778.948 216.076, 771.300 218.804 M 1036 253.827 C 1012.731 271, 1013.269 304.076, 1037 315.352 L 1043.500 318.440 1054 318.460 L 1064.500 318.480 1070.800 315.581 C 1101.685 301.368, 1094.227 264.718, 1058.024 252.799 C 1043.615 248.055, 1043.835 248.045, 1036 253.827" stroke="none" fill="#000000" fill-rule="evenodd"/><path d="M 0.667 0.667 C 0.300 1.033, -0 82.033, -0 180.667 L 0 360 117 360 L 234 360 234 180 L 234 0 117.667 0 C 53.683 0, 1.033 0.300, 0.667 0.667 M 148.734 160.104 C 122.485 166.180, 122.841 202.667, 149.204 208.197 L 154.568 209.322 160.314 207.515 C 189.576 198.311, 178.558 153.200, 148.734 160.104 M 106 163.075 C 85.743 166.134, 64.454 179.868, 52.665 197.482 C 49.132 202.761, 49.221 202.998, 54.750 203.013 C 57.558 203.020, 61.509 203.955, 64.415 205.299 L 69.330 207.573 76.415 200.497 C 87.028 189.898, 97.757 184.596, 112.779 182.530 L 117.871 181.830 118.971 176.697 C 119.577 173.875, 121.181 169.581, 122.536 167.156 C 123.891 164.732, 125 162.580, 125 162.374 C 125 161.721, 111.719 162.211, 106 163.075 M 936 194.500 C 931.903 198.625, 928.775 202, 929.050 202 C 929.325 202, 932.903 198.625, 937 194.500 C 941.097 190.375, 944.225 187, 943.950 187 C 943.675 187, 940.097 190.375, 936 194.500 M 183.602 202.416 C 182.143 204.906, 178.985 208.585, 176.585 210.591 L 172.220 214.239 174.602 219.443 C 180.825 233.035, 180.503 252.148, 173.799 267.141 L 170.765 273.926 174.831 278.546 C 177.068 281.087, 179.661 285.163, 180.593 287.605 L 182.289 292.045 185.756 286.896 C 202.835 261.536, 203.765 226.684, 188.054 200.848 L 186.255 197.890 183.602 202.416 M 493.459 207.250 C 493.196 207.938, 493.102 235.500, 493.249 268.500 L 493.516 328.500 493.758 267.794 L 494 207.088 501.250 206.743 L 508.500 206.397 501.219 206.199 C 496.161 206.061, 493.791 206.382, 493.459 207.250 M 652.459 212.250 C 652.196 212.938, 652.098 239.375, 652.241 271 L 652.501 328.500 653 269.750 C 653.275 237.437, 653.373 211, 653.219 211 C 653.064 211, 652.722 211.563, 652.459 212.250 M 43.183 214.902 C 24.148 221.476, 21.224 247.825, 38.354 258.415 C 47.257 263.920, 59.684 262.991, 67.129 256.264 C 87.300 238.042, 68.784 206.060, 43.183 214.902 M 61 271.500 C 59.075 272.241, 54.681 272.882, 51.236 272.924 L 44.971 273 47.877 278.757 C 60.138 303.046, 84.103 319.232, 111.750 321.896 C 119.984 322.690, 119.872 322.813, 116.463 316.713 C 115.068 314.217, 113.658 309.910, 113.330 307.142 L 112.734 302.109 107.617 301.039 C 91.912 297.754, 76.152 286.863, 68.131 273.750 C 65.571 269.565, 65.820 269.644, 61 271.500 M 143.326 277.084 C 120.479 281.385, 116.434 312.508, 137.336 323.171 L 141.308 325.198 149.073 324.845 L 156.838 324.493 161.141 321.468 C 163.508 319.805, 166.793 316.525, 168.442 314.179 L 171.439 309.914 171.827 303.048 C 172.791 286.002, 159.631 274.014, 143.326 277.084 M 779.776 330.733 C 782.128 330.945, 785.728 330.942, 787.776 330.727 C 789.824 330.512, 787.900 330.339, 783.500 330.343 C 779.100 330.346, 777.424 330.522, 779.776 330.733 M 1154.750 330.737 C 1157.638 330.939, 1162.362 330.939, 1165.250 330.737 C 1168.138 330.535, 1165.775 330.370, 1160 330.370 C 1154.225 330.370, 1151.862 330.535, 1154.750 330.737" stroke="none" fill="#eb5323" fill-rule="evenodd"/><path d="M 234 180 L 234 360 720.500 360 L 1207 360 1206.958 331.750 L 1206.917 303.500 1205.208 308.263 C 1201.758 317.883, 1194.168 324.295, 1181.500 328.292 L 1174.500 330.500 1159 330.412 L 1143.500 330.323 1135 327.565 C 1124.277 324.085, 1124.698 324.654, 1127.046 316.828 L 1129.035 310.198 1132.767 311.980 C 1152.236 321.275, 1184.535 317.536, 1189.606 305.400 C 1194.656 293.314, 1189.195 284.021, 1172.803 276.810 C 1168.236 274.801, 1160.248 271.282, 1155.051 268.990 C 1097.894 243.779, 1133.285 188.165, 1194.461 207.061 C 1199.219 208.530, 1201.011 209.529, 1200.637 210.503 C 1200.348 211.258, 1199.614 213.816, 1199.006 216.187 C 1197.187 223.286, 1197.400 223.046, 1194.301 221.501 C 1188.562 218.639, 1179.486 217, 1169.540 217.031 L 1159.500 217.061 1154.094 219.281 C 1133.789 227.616, 1138.989 246.948, 1164.362 257.460 C 1194.473 269.934, 1201.778 275.233, 1205.567 287.346 L 1206.866 291.500 1206.933 145.750 L 1207 0 720.500 0 L 234 0 234 180 M 493.707 160.016 C 487.676 164.760, 488.004 175.202, 494.304 179.044 C 503.187 184.460, 513.247 177.342, 511.481 166.890 C 510.153 159.026, 499.972 155.088, 493.707 160.016 M 148.734 160.104 C 122.485 166.180, 122.841 202.667, 149.204 208.197 L 154.568 209.322 160.314 207.515 C 189.576 198.311, 178.558 153.200, 148.734 160.104 M 1044.951 162.008 C 1028.355 164.611, 1015.577 174.325, 1009.898 188.656 L 1007.583 194.500 1007.541 205 L 1007.500 215.500 1009.847 221.683 C 1012.754 229.341, 1017.258 234.705, 1025.066 239.807 L 1031.083 243.738 1026.069 246.956 C 991.256 269.295, 997.638 317.730, 1036.932 329.388 C 1094.342 346.422, 1132.767 275.023, 1080.568 248.306 L 1075.636 245.782 1080.068 242.184 C 1087.822 235.889, 1092.997 229.704, 1096.635 222.385 L 1100.171 215.270 1100.710 207.385 C 1102.799 176.814, 1078.198 156.793, 1044.951 162.008 M 106 163.075 C 85.743 166.134, 64.454 179.868, 52.665 197.482 C 49.132 202.761, 49.221 202.998, 54.750 203.013 C 57.558 203.020, 61.509 203.955, 64.415 205.299 L 69.330 207.573 76.415 200.497 C 87.028 189.898, 97.757 184.596, 112.779 182.530 L 117.871 181.830 118.971 176.697 C 119.577 173.875, 121.181 169.581, 122.536 167.156 C 123.891 164.732, 125 162.580, 125 162.374 C 125 161.721, 111.719 162.211, 106 163.075 M 298.118 178.750 C 294.224 222.571, 292.802 241.932, 290.526 282.114 C 289.137 306.652, 288 327.014, 288 327.364 C 288 327.714, 291.600 328, 296 328 L 304 328 304 320.750 C 304.001 305.413, 307.849 235.640, 310.645 200.250 C 311.584 188.366, 319.909 203.900, 361.025 294.250 L 365.462 304 372.494 304 L 379.526 304 385.961 289.750 C 389.501 281.913, 395.626 268.750, 399.574 260.500 C 403.521 252.250, 409.074 240.550, 411.913 234.500 C 421.002 215.135, 432.483 192.043, 433.033 192.021 C 434.348 191.969, 439.050 264.770, 440.541 308.250 L 441.219 328 449.109 328 L 457 328 456.992 321.250 C 456.986 315.151, 454.846 277.714, 452.006 234 C 451.023 218.870, 447.825 182.884, 446.341 170.250 L 445.725 165 439.061 165 L 432.398 165 428.298 172.250 C 426.043 176.238, 423.194 181.300, 421.967 183.500 C 416.373 193.532, 398.158 231.050, 386.412 256.732 C 374.928 281.842, 372 287.389, 372 284.039 C 372 280.418, 331.083 195.544, 319.334 174.793 L 313.789 165 306.565 165 L 299.340 165 298.118 178.750 M 872 246.542 L 872 328.084 879.548 327.792 L 887.095 327.500 887.026 287.750 L 886.957 248 888.278 248 C 898.456 248, 946.036 291.975, 965.133 319.033 L 971.462 328 980.266 328 L 989.070 328 987.883 325.750 C 976.735 304.620, 935.622 261.385, 911.357 245.274 L 905.968 241.696 917.734 230.695 C 924.205 224.645, 941.650 207.501, 956.500 192.598 L 983.500 165.500 974.277 165.213 L 965.054 164.926 944.277 186.105 C 920.633 210.206, 889.512 240, 887.980 240 C 887.290 240, 887.043 227.680, 887.226 202.500 L 887.500 164.999 879.750 165 L 872 165 872 246.542 M 1043.870 175.500 C 1035.535 178.184, 1029.903 182.801, 1026.186 190 L 1022.830 196.500 1023.181 206 C 1023.828 223.481, 1032.202 232.217, 1054.738 238.924 L 1061.976 241.078 1065.238 238.812 C 1101.058 213.939, 1083.751 162.659, 1043.870 175.500 M 183.602 202.416 C 182.143 204.906, 178.985 208.585, 176.585 210.591 L 172.220 214.239 174.602 219.443 C 180.825 233.035, 180.503 252.148, 173.799 267.141 L 170.765 273.926 174.831 278.546 C 177.068 281.087, 179.661 285.163, 180.593 287.605 L 182.289 292.045 185.756 286.896 C 202.835 261.536, 203.765 226.684, 188.054 200.848 L 186.255 197.890 183.602 202.416 M 585.387 203.999 C 551.322 208.991, 531.256 245.880, 540.362 286.772 C 548.320 322.507, 581.262 339.040, 620 326.742 L 627.500 324.361 627.336 321.856 C 627.245 320.478, 626.655 317.434, 626.025 315.092 L 624.878 310.833 623.189 311.558 C 591.604 325.127, 562.168 312.849, 555.918 283.500 C 546.172 237.734, 575.581 206.314, 615.505 219.842 C 622.407 222.181, 622.269 222.256, 624.341 215.031 C 626.140 208.758, 626.148 208.770, 618.404 206.465 C 608.703 203.577, 595.166 202.566, 585.387 203.999 M 774.763 203.975 C 752.803 207.940, 737.236 222.693, 730.421 246 L 728.521 252.500 728.536 267 C 728.609 337.504, 812.775 357.120, 835.179 291.855 L 838.391 282.500 838.402 267.500 C 838.434 225.639, 810.303 197.560, 774.763 203.975 M 677.500 204.643 C 673.065 205.325, 655.775 210.051, 653.750 211.134 L 652 212.070 652 270.035 L 652 328 659.500 328 L 667 328 667 274.547 L 667 221.094 670.750 220.018 C 681.439 216.952, 701.865 216.727, 711.685 219.567 L 713.869 220.199 714.879 216.350 C 715.435 214.232, 716.172 211.326, 716.518 209.890 L 717.146 207.280 712.823 206.059 C 708.433 204.819, 682.984 203.799, 677.500 204.643 M 493.667 206.667 C 493.300 207.033, 493 234.483, 493 267.667 L 493 328 500.500 328 L 508 328 508 267 L 508 206 501.167 206 C 497.408 206, 494.033 206.300, 493.667 206.667 M 43.183 214.902 C 24.148 221.476, 21.224 247.825, 38.354 258.415 C 47.257 263.920, 59.684 262.991, 67.129 256.264 C 87.300 238.042, 68.784 206.060, 43.183 214.902 M 773 218.540 C 736.865 228.641, 733.053 297.547, 767.730 313.796 L 773.500 316.500 783.500 316.500 L 793.500 316.500 799.196 313.830 C 845.105 292.311, 821.126 205.088, 773 218.540 M 1038.487 252.362 C 1027.298 259.904, 1021.848 268.328, 1019.874 281.133 L 1018.737 288.500 1020.388 295 C 1027.579 323.313, 1072.729 327.616, 1085.689 301.224 L 1088.500 295.500 1088.458 286.500 L 1088.416 277.500 1085.997 272.683 C 1081.211 263.150, 1073.644 258.022, 1056.097 252.420 C 1043.178 248.296, 1044.512 248.300, 1038.487 252.362 M 61 271.500 C 59.075 272.241, 54.681 272.882, 51.236 272.924 L 44.971 273 47.877 278.757 C 60.138 303.046, 84.103 319.232, 111.750 321.896 C 119.984 322.690, 119.872 322.813, 116.463 316.713 C 115.068 314.217, 113.658 309.910, 113.330 307.142 L 112.734 302.109 107.617 301.039 C 91.912 297.754, 76.152 286.863, 68.131 273.750 C 65.571 269.565, 65.820 269.644, 61 271.500 M 143.326 277.084 C 120.479 281.385, 116.434 312.508, 137.336 323.171 L 141.308 325.198 149.073 324.845 L 156.838 324.493 161.141 321.468 C 163.508 319.805, 166.793 316.525, 168.442 314.179 L 171.439 309.914 171.827 303.048 C 172.791 286.002, 159.631 274.014, 143.326 277.084" stroke="none" fill="#fbfafa" fill-rule="evenodd"/></svg>