<?xml version="1.0" standalone="no"?>
<!DOCTYPE svg PUBLIC "-//W3C//DTD SVG 20010904//EN"
 "http://www.w3.org/TR/2001/REC-SVG-20010904/DTD/svg10.dtd">
<svg version="1.0" xmlns="http://www.w3.org/2000/svg"
 width="241.000000pt" height="88.000000pt" viewBox="0 0 241.000000 88.000000"
 preserveAspectRatio="xMidYMid meet">

<g transform="translate(0.000000,88.000000) scale(0.100000,-0.100000)"
fill="#000000" stroke="none">
<path d="M146 864 c-20 -14 -20 -14 0 -28 26 -19 51 -2 32 23 -7 9 -12 17 -13
18 0 1 -9 -5 -19 -13z"/>
<path d="M97 802 c-16 -18 -16 -20 1 -36 17 -15 20 -15 32 -1 19 23 69 18 106
-10 l33 -25 19 25 c17 21 28 25 66 23 25 0 49 2 54 6 4 5 -22 6 -58 5 -36 -2
-70 0 -77 4 -6 4 -15 3 -18 -3 -9 -14 -105 -1 -126 16 -14 12 -18 12 -32 -4z"/>
<path d="M23 783 c9 -2 25 -2 35 0 9 3 1 5 -18 5 -19 0 -27 -2 -17 -5z"/>
<path d="M455 780 c22 -4 45 -5 52 -3 7 3 20 -1 29 -8 13 -10 17 -10 24 0 4 8
10 9 14 3 3 -5 -3 -17 -14 -27 -11 -10 -20 -23 -20 -29 0 -6 5 -5 12 2 9 9 17
7 33 -8 l21 -20 24 25 c18 20 21 28 12 37 -7 7 -12 15 -12 19 0 4 70 8 155 8
85 1 155 0 155 -3 0 -2 -19 -15 -42 -29 -24 -14 -56 -39 -72 -56 -40 -42 -79
-43 -41 -1 13 15 12 19 -10 40 l-26 24 -37 -37 c-34 -35 -35 -37 -13 -35 13 2
26 -3 28 -9 3 -8 -5 -13 -21 -13 -15 0 -36 6 -47 13 -17 10 -23 10 -26 0 -8
-22 -63 -15 -83 10 l-18 22 -24 -22 c-17 -16 -27 -20 -35 -12 -8 8 -13 8 -17
0 -5 -7 -46 -11 -108 -11 -80 0 -105 3 -120 17 -17 15 -19 15 -36 0 -12 -11
-42 -17 -102 -20 l-85 -3 90 -2 c55 -1 96 -7 103 -14 9 -9 15 -9 24 0 7 7 25
12 41 12 25 0 28 -2 17 -16 -11 -12 -10 -18 3 -32 16 -15 18 -15 34 0 13 14
14 20 3 32 -11 14 -3 16 73 16 64 0 88 -4 97 -15 7 -9 19 -14 26 -11 9 3 11 0
7 -11 -5 -12 4 -8 29 10 41 32 70 37 44 8 -16 -18 -15 -20 14 -45 17 -14 30
-26 28 -27 -31 -6 -59 -6 -64 2 -3 5 -11 6 -17 2 -27 -17 -63 -9 -95 20 l-32
31 -33 -34 -33 -33 35 -33 36 -32 37 34 c50 45 81 46 41 1 -17 -18 -17 -20 10
-42 15 -13 27 -27 27 -30 0 -10 -106 -5 -118 7 -8 8 -15 8 -26 -1 -11 -9 -70
-13 -203 -14 l-188 -1 175 -3 c124 -3 176 -7 182 -16 6 -9 8 -8 8 2 0 11 5 9
21 -5 20 -18 22 -18 34 -1 7 10 25 17 45 17 l34 0 -29 -30 c-16 -17 -35 -28
-42 -26 -7 3 -13 2 -13 -3 0 -5 9 -11 20 -14 11 -3 20 -10 20 -15 0 -7 -79
-11 -227 -12 -125 0 -229 -3 -232 -5 -2 -3 106 -5 240 -5 172 0 248 -3 257
-12 8 -8 15 -8 24 0 8 6 50 11 93 11 72 0 83 -3 106 -25 l26 -25 20 25 20 25
24 -25 c13 -14 44 -38 69 -52 l45 -27 -465 -5 -465 -5 499 -3 c451 -2 497 -1
485 14 -11 13 -6 21 29 57 l42 42 37 -38 c33 -33 36 -40 25 -57 -6 -11 -12
-21 -12 -22 0 -2 108 -2 240 0 l240 3 0 89 0 90 80 0 c82 0 132 14 163 44 15
16 17 15 23 -11 26 -109 132 -202 249 -217 41 -6 171 6 180 16 2 2 6 52 10
112 l7 109 -32 -23 c-17 -12 -51 -25 -74 -27 -135 -16 -189 155 -68 213 42 20
86 13 137 -22 l37 -25 -7 108 c-4 59 -11 113 -16 118 -6 6 -58 10 -117 10 -99
0 -111 -2 -154 -27 -25 -15 -64 -48 -86 -73 l-40 -45 -12 30 c-17 41 -72 87
-117 99 -21 5 -144 11 -273 13 -129 2 -203 2 -165 -1 l70 -6 3 -57 c3 -54 1
-58 -19 -58 -12 0 -39 18 -61 39 -21 22 -52 46 -69 53 -33 15 -37 25 -11 30 9
2 -170 4 -398 5 -228 0 -397 -3 -375 -7z m335 -135 c0 -2 -7 -20 -16 -39 -15
-29 -19 -33 -35 -23 -15 9 -23 7 -41 -10 -25 -22 -48 -20 -48 4 0 9 6 13 14
10 8 -3 22 3 32 15 18 19 18 20 -1 34 -17 13 -13 14 38 14 31 0 57 -2 57 -5z
m600 -32 c0 -39 -9 -36 -28 10 -10 24 -10 27 8 27 16 0 20 -7 20 -37z m-720 8
c0 -6 -4 -13 -10 -16 -5 -3 -10 1 -10 9 0 9 5 16 10 16 6 0 10 -4 10 -9z m573
-113 c-21 -21 -43 -36 -49 -34 -7 3 -14 -4 -17 -15 -5 -17 -15 -19 -105 -19
-92 0 -101 2 -107 20 -19 59 39 140 100 140 20 0 46 -5 57 -11 17 -9 25 -7 46
15 l26 26 43 -42 43 -42 -37 -38z m434 101 c17 -15 17 -53 -1 -68 -8 -7 -30
-15 -50 -18 l-36 -6 0 50 c0 27 3 53 7 57 10 10 62 -1 80 -15z m-707 1 c0 -5
-4 -10 -10 -10 -5 0 -10 5 -10 10 0 6 5 10 10 10 6 0 10 -4 10 -10z m-532 -41
c-2 -6 -8 -10 -13 -10 -5 0 -11 4 -13 10 -2 6 4 11 13 11 9 0 15 -5 13 -11z
m532 1 c0 -5 -4 -10 -10 -10 -5 0 -10 5 -10 10 0 6 5 10 10 10 6 0 10 -4 10
-10z m-92 -46 l35 -35 -36 -37 -37 -37 -37 37 -37 38 34 35 c19 19 36 35 38
35 2 0 20 -16 40 -36z m-196 8 c9 -9 6 -18 -16 -41 -18 -18 -24 -31 -17 -36
21 -12 2 -21 -39 -17 l-42 4 31 31 c31 29 31 30 11 44 -11 8 -18 18 -16 22 8
12 74 7 88 -7z m-244 -3 c-2 -6 -8 -10 -13 -10 -5 0 -11 4 -13 10 -2 6 4 11
13 11 9 0 15 -5 13 -11z m123 -2 c-1 -12 -15 -9 -19 4 -3 6 1 10 8 8 6 -3 11
-8 11 -12z m174 -7 c-3 -5 -10 -10 -16 -10 -5 0 -9 5 -9 10 0 6 7 10 16 10 8
0 12 -4 9 -10z m-167 -32 c-6 -18 -28 -21 -28 -4 0 9 7 16 16 16 9 0 14 -5 12
-12z m367 3 c3 -5 1 -12 -5 -16 -5 -3 -10 1 -10 9 0 18 6 21 15 7z m-198 -15
c0 -8 -6 -12 -14 -9 -7 3 -13 9 -13 14 0 5 6 9 13 9 8 0 14 -6 14 -14z m203
-37 c0 -5 -4 -9 -10 -9 -5 0 -10 7 -10 16 0 8 5 12 10 9 6 -3 10 -10 10 -16z
m-342 -21 c-8 -24 -35 -32 -52 -15 -23 23 -20 27 20 27 23 0 34 -4 32 -12z
m95 -5 c18 -17 19 -17 28 0 11 19 39 23 39 5 0 -16 -71 -88 -87 -88 -17 0 -16
10 4 32 15 17 15 19 0 36 -30 33 -17 45 16 15z m187 7 c0 -5 -5 -10 -11 -10
-5 0 -7 5 -4 10 3 6 8 10 11 10 2 0 4 -4 4 -10z m310 -25 l34 -35 -36 -36 -36
-37 -31 34 c-17 19 -29 39 -27 45 3 6 -9 11 -26 12 -31 1 -78 26 -78 42 0 6
36 10 83 10 82 0 84 -1 117 -35z m-560 15 c0 -5 -4 -10 -10 -10 -5 0 -10 5
-10 10 0 6 5 10 10 10 6 0 10 -4 10 -10z m756 -77 c-2 -3 -11 -3 -19 -1 -12 2
-11 8 2 38 l15 35 4 -33 c2 -19 1 -36 -2 -39z m-506 42 c0 -8 -4 -15 -10 -15
-5 0 -10 7 -10 15 0 8 5 15 10 15 6 0 10 -7 10 -15z m112 -22 l38 -37 -37 -38
c-20 -21 -41 -38 -47 -38 -12 0 -76 66 -76 78 0 11 66 72 77 72 4 0 24 -17 45
-37z m-357 17 c-3 -5 -10 -10 -16 -10 -5 0 -9 5 -9 10 0 6 7 10 16 10 8 0 12
-4 9 -10z m-40 -30 c3 -5 -1 -10 -9 -10 -9 0 -16 5 -16 10 0 6 4 10 9 10 6 0
13 -4 16 -10z m795 -75 l0 -55 -85 0 c-50 0 -85 4 -85 10 0 6 6 10 14 10 8 0
36 20 63 45 26 24 58 44 71 45 20 0 22 -5 22 -55z"/>
<path d="M1170 570 c0 -5 5 -10 11 -10 5 0 7 5 4 10 -3 6 -8 10 -11 10 -2 0
-4 -4 -4 -10z"/>
<path d="M1000 550 c0 -5 24 -9 55 -8 30 1 55 6 55 10 0 4 -25 8 -55 8 -30 0
-55 -4 -55 -10z"/>
<path d="M1170 530 c0 -5 5 -10 11 -10 5 0 7 5 4 10 -3 6 -8 10 -11 10 -2 0
-4 -4 -4 -10z"/>
<path d="M815 500 c4 -6 11 -8 16 -5 14 9 11 15 -7 15 -8 0 -12 -5 -9 -10z"/>
<path d="M815 460 c4 -6 11 -8 16 -5 14 9 11 15 -7 15 -8 0 -12 -5 -9 -10z"/>
<path d="M1130 390 c0 -5 5 -10 10 -10 6 0 10 5 10 10 0 6 -4 10 -10 10 -5 0
-10 -4 -10 -10z"/>
<path d="M1130 350 c0 -5 5 -10 11 -10 5 0 7 5 4 10 -3 6 -8 10 -11 10 -2 0
-4 -4 -4 -10z"/>
<path d="M910 330 c0 -5 5 -10 10 -10 6 0 10 5 10 10 0 6 -4 10 -10 10 -5 0
-10 -4 -10 -10z"/>
<path d="M910 290 c0 -5 5 -10 10 -10 6 0 10 5 10 10 0 6 -4 10 -10 10 -5 0
-10 -4 -10 -10z"/>
<path d="M2342 758 c-17 -17 -15 -33 5 -49 15 -13 15 -12 3 8 -11 18 -12 24
-1 37 16 19 10 21 -7 4z"/>
<path d="M2390 761 c0 -7 -4 -10 -9 -6 -5 3 -13 0 -17 -6 -4 -6 1 -16 10 -21
9 -5 14 -13 11 -19 -4 -5 -2 -9 4 -9 16 0 25 50 12 63 -8 8 -11 8 -11 -2z m10
-29 c0 -12 -3 -12 -15 -2 -8 7 -15 13 -15 15 0 1 7 2 15 2 8 0 15 -7 15 -15z"/>
<path d="M382 738 c-9 -9 -8 -16 5 -30 15 -17 18 -17 34 -2 15 14 16 18 4 30
-17 17 -27 18 -43 2z"/>
<path d="M340 730 c0 -5 5 -10 10 -10 6 0 10 5 10 10 0 6 -4 10 -10 10 -5 0
-10 -4 -10 -10z"/>
<path d="M340 690 c0 -5 5 -10 10 -10 6 0 10 5 10 10 0 6 -4 10 -10 10 -5 0
-10 -4 -10 -10z"/>
<path d="M555 600 c3 -5 8 -10 11 -10 2 0 4 5 4 10 0 6 -5 10 -11 10 -5 0 -7
-4 -4 -10z"/>
<path d="M140 580 c0 -5 5 -10 11 -10 5 0 7 5 4 10 -3 6 -8 10 -11 10 -2 0 -4
-4 -4 -10z"/>
<path d="M179 570 c-14 -15 -28 -17 -93 -13 -43 3 -76 1 -76 -5 0 -5 26 -8 58
-8 31 1 63 -3 70 -8 8 -6 17 -5 24 2 8 8 16 7 28 -1 13 -8 22 -8 32 0 7 6 25
10 41 8 15 -2 27 0 27 5 0 4 -11 8 -25 8 -14 0 -34 7 -44 16 -21 19 -22 19
-42 -4z"/>
<path d="M340 564 c0 -11 -6 -15 -20 -11 -12 3 -17 1 -14 -5 3 -5 -1 -17 -10
-27 -15 -16 -14 -19 9 -41 l25 -23 24 23 c22 20 23 24 10 37 -8 9 -12 24 -8
39 4 14 2 24 -5 24 -6 0 -11 -7 -11 -16z"/>
<path d="M255 510 c3 -5 8 -10 11 -10 2 0 4 5 4 10 0 6 -5 10 -11 10 -5 0 -7
-4 -4 -10z"/>
<path d="M255 470 c3 -5 8 -10 11 -10 2 0 4 5 4 10 0 6 -5 10 -11 10 -5 0 -7
-4 -4 -10z"/>
<path d="M2 63 c0 -38 3 -53 5 -35 3 25 9 32 26 33 l22 0 -22 9 c-33 13 -30
48 5 53 25 4 25 4 -5 6 l-33 1 2 -67z"/>
<path d="M232 118 c-15 -15 -16 -90 0 -106 20 -20 47 -14 54 11 3 13 4 41 2
63 -2 30 -8 40 -23 42 -11 1 -26 -3 -33 -10z m46 -51 c2 -37 -1 -49 -13 -54
-21 -7 -35 12 -35 49 0 39 10 59 29 56 11 -2 17 -16 19 -51z"/>
<path d="M491 130 c-7 -14 -7 -97 1 -112 13 -27 47 -22 58 8 13 32 13 91 1 99
-6 3 -11 -19 -13 -52 -2 -45 -7 -59 -20 -61 -14 -3 -18 7 -21 60 -2 35 -4 61
-6 58z"/>
<path d="M752 63 c1 -67 1 -67 7 -18 l6 50 19 -43 c11 -24 23 -45 28 -48 4 -3
7 25 6 63 -1 68 -1 68 -8 18 l-6 -50 -22 48 c-12 26 -24 47 -27 47 -3 0 -4
-30 -3 -67z"/>
<path d="M1010 65 c0 -61 1 -65 23 -65 34 0 47 19 47 65 0 46 -13 65 -47 65
-22 0 -23 -4 -23 -65z m44 49 c21 -8 22 -77 1 -94 -23 -19 -35 -2 -35 51 0 49
4 54 34 43z"/>
<path d="M1292 109 c-6 -15 -13 -44 -16 -65 -3 -22 -3 -31 0 -21 8 24 43 21
55 -5 7 -18 8 -14 3 17 -3 22 -12 53 -19 70 l-13 30 -10 -26z m27 -51 c1 -5
-6 -8 -14 -8 -16 0 -19 9 -8 36 6 16 7 16 14 -2 4 -10 8 -22 8 -26z"/>
<path d="M1523 118 c11 -9 17 -32 20 -68 l3 -55 2 62 c1 38 7 63 15 66 6 3 -3
6 -22 6 -30 1 -33 -1 -18 -11z"/>
<path d="M1773 65 c0 -38 2 -53 4 -32 2 20 2 52 0 70 -2 17 -4 1 -4 -38z"/>
<path d="M1980 111 c-23 -44 -5 -111 30 -111 23 0 40 28 40 65 0 58 -47 88
-70 46z m51 -18 c13 -33 0 -78 -21 -78 -21 0 -34 45 -21 78 6 15 15 27 21 27
6 0 15 -12 21 -27z"/>
<path d="M2232 63 c1 -67 1 -67 7 -18 l6 50 19 -43 c11 -24 23 -45 28 -48 4
-3 7 25 6 63 -1 68 -1 68 -8 18 l-6 -50 -22 48 c-12 26 -24 47 -27 47 -3 0 -4
-30 -3 -67z"/>
</g>
</svg>
