<svg xmlns="http://www.w3.org/2000/svg" width="593" height="202" viewBox="0 0 593 202" version="1.1"><path d="M 17 89.750 L 17 139.500 290.500 139.876 L 564 140.252 564 135.626 L 564 131 294.500 131 L 25 131 25 85.500 L 25 40 21 40 L 17 40 17 89.750 M 41 170.884 L 41 181 46.566 181 L 52.131 181 54.316 179.837 C 55.517 179.197, 57.048 177.959, 57.718 177.087 L 58.936 175.500 58.968 171.306 L 59 167.112 56.635 164.362 L 54.269 161.612 47.635 161.189 L 41 160.767 41 170.884 M 64.143 170.409 C 59.347 181.301, 59.410 181, 61.933 181 L 63.865 181 64.500 179 L 65.135 177 70.032 177 L 74.930 177 76 179 L 77.070 181 79.142 181 L 81.214 181 80.614 179.437 C 80.284 178.577, 78.329 174.077, 76.270 169.437 L 72.525 161 70.406 161 L 68.286 161 64.143 170.409 M 78.185 162.750 L 78.516 164.500 81.758 164.813 L 85 165.127 85 173.063 L 85 181 87 181 L 89 181 89 173 L 89 165 92 165 L 95 165 95 163 L 95 161 86.427 161 L 77.853 161 78.185 162.750 M 99.455 170.142 C 97.280 175.170, 95.350 179.670, 95.167 180.142 L 94.833 181 96.881 181 L 98.930 181 100 179 L 101.070 177 105.968 177 L 110.865 177 111.500 179 L 112.135 181 114.067 181 C 116.666 181, 116.634 180.843, 111.869 170.250 L 107.708 161 105.559 161 L 103.410 161 99.455 170.142 M 45 171 L 45 177 48.800 177 L 52.600 177 53.800 175.800 L 55 174.600 55 171.371 L 55 168.143 53.429 166.571 L 51.857 165 48.429 165 L 45 165 45 171 M 68.784 169.555 L 67.199 173.500 68.588 173.821 C 69.352 173.998, 70.815 173.998, 71.839 173.821 L 73.701 173.500 72.035 169.555 L 70.369 165.611 68.784 169.555 M 104.149 169.003 C 103.517 170.816, 103 172.681, 103 173.149 L 103 174 106 174 L 109 174 108.958 173.250 C 108.935 172.838, 108.102 170.972, 107.107 169.104 L 105.298 165.708 104.149 169.003 M 129 173.055 L 129 175.110 133.741 174.805 L 138.482 174.500 138.814 172.750 L 139.147 171 134.073 171 L 129 171 129 173.055" stroke="none" fill="#04acec" fill-rule="evenodd"/><path d="M 29 85.500 L 29 131 84 131 L 139 131 139 85.500 L 139 40 84 40 L 29 40 29 85.500 M 146 90 L 146 126 188 126 L 230 126 230 117 L 230 108 199.500 108 L 169 108 169 103 L 169 98 198.042 98 L 227.084 98 226.792 90.250 L 226.500 82.500 197.250 82.235 L 168 81.970 168 76.985 L 168 72 198.358 72 L 228.715 72 229.358 65.853 C 229.711 62.473, 230 58.423, 230 56.853 L 230 54 188 54 L 146 54 146 90 M 251 90 L 251 126 262 126 L 273 126 273 99.059 L 273 72.118 273.750 71.655 L 274.500 71.193 293.851 98.596 L 313.203 126 332.101 126 L 351 126 351 90 L 351 54 340 54 L 329 54 328.901 75.750 C 328.847 87.713, 328.509 99.975, 328.151 103 L 327.500 108.500 308.161 81.250 L 288.821 54 269.911 54 L 251 54 251 90 M 366 63 L 366 72 383.500 72 L 401 72 401 99 L 401 126 412.500 126 L 424 126 424 99.500 L 424 73 441.500 73 L 459 73 459 63.500 L 459 54 412.500 54 L 366 54 366 63 M 483.190 63.250 C 472.599 83.055, 451 124.718, 451 125.342 L 451 126 463.269 126 L 475.538 126 478.837 120 L 482.135 114 502.553 114 L 522.971 114 526 120 L 529.029 126 542.560 126 L 556.091 126 550.295 115.209 C 547.108 109.274, 538.425 93.082, 531 79.227 L 517.500 54.035 502.818 54.018 L 488.137 54 483.190 63.250 M 42 63.465 L 42 72 73.393 72 L 104.786 72 105.393 73.582 C 105.727 74.452, 106 77.631, 106 80.648 L 106 86.131 104.965 88.066 L 103.930 90 72.965 90 L 42 90 42 107 L 42 124 52 124 L 62 124 62 115 L 62 106 87.750 105.984 L 113.500 105.967 117.406 103.734 L 121.312 101.500 123.406 98.677 L 125.500 95.853 125.500 81.677 L 125.500 67.500 123.431 63.557 L 121.363 59.613 118.609 57.557 L 115.856 55.500 78.928 55.215 L 42 54.930 42 63.465 M 496.736 85.499 C 493.581 91.837, 491 97.242, 491 97.511 C 491 97.780, 496.175 98, 502.500 98 L 514 98 513.948 97.250 C 513.920 96.838, 511.326 91.432, 508.184 85.238 L 502.471 73.976 496.736 85.499 M 29 168 L 29 197 84 197 L 139 197 139 186 L 139 175 144.500 175 L 150 175 150 173 L 150 171 144.617 171 L 139.233 171 138.710 173 L 138.187 175 133.594 175 L 129 175 129 173 L 129 171 134 171 L 139 171 139 155 L 139 139 84 139 L 29 139 29 168 M 274.284 160.701 L 272.068 161.130 269.664 163.987 L 267.261 166.844 265.100 163.922 L 262.940 161 256.470 161 L 250 161 250 171 L 250 181 252 181 L 254 181 254 178 L 254 175 255.812 175 L 257.624 175 259.842 178 L 262.060 181 265.226 181 L 268.392 181 265.375 177.750 L 262.358 174.500 264.679 172.286 L 267 170.071 267 172.901 L 267 175.730 269.043 178.328 L 271.087 180.926 274.655 181.595 L 278.222 182.264 281.611 180.648 L 285 179.032 285 174.016 L 285 169 280.500 169 L 276 169 276 171 L 276 173 278.500 173 L 281 173 281 174.883 L 281 176.767 278.893 177.318 L 276.785 177.869 274.529 177.011 L 272.273 176.153 271.636 174.495 C 271.286 173.583, 271 171.818, 271 170.573 L 271 168.310 272.974 166.523 L 274.949 164.736 278.858 165.361 L 282.766 165.986 283.903 164.617 L 285.040 163.247 281.619 161.623 C 279.737 160.731, 277.816 160.061, 277.349 160.136 C 276.882 160.211, 275.503 160.465, 274.284 160.701 M 393.028 161.102 C 389.937 162.349, 389.035 163.744, 389.015 167.301 L 389 170.102 392.468 171.551 C 394.375 172.348, 396.864 173, 397.999 173 L 400.063 173 400.677 174.601 L 401.291 176.202 399.896 177.086 C 399.128 177.572, 397.543 177.976, 396.372 177.985 L 394.245 178 393.008 176.510 L 391.771 175.019 389.636 175.536 L 387.500 176.052 384.405 168.776 L 381.311 161.500 378.823 161.200 L 376.336 160.900 372.336 169.964 L 368.336 179.029 366.498 176.997 L 364.659 174.966 366.830 172.944 L 369 170.922 369 167.961 L 369 165 367 163 L 365 161 358.500 161 L 352 161 352 171 L 352 181 354 181 L 356 181 356 178 L 356 175 357.911 175 L 359.822 175 362.347 178 L 364.871 181 368.935 181 L 373 181 373 179.500 L 373 178 378.393 178 L 383.786 178 384.362 179.500 L 384.937 181 387.528 181 L 390.118 181 389.393 179.827 L 388.668 178.654 391.057 180.327 L 393.445 182 396.288 182 C 401.717 182, 404.959 179.306, 404.985 174.773 L 405 172.046 402.750 170.635 C 401.512 169.859, 398.813 168.929, 396.750 168.567 L 393 167.909 393 166.522 L 393 165.135 394.962 164.512 L 396.924 163.889 398.836 164.912 L 400.748 165.936 405.874 165.329 L 411 164.721 411 172.861 L 411 181 413.500 181 L 416 181 416 173 L 416 165 419 165 L 422 165 422 173 L 422 181 424 181 L 426 181 426 178 L 426 175 427.911 175 L 429.822 175 432.347 178 L 434.871 181 437.623 181 L 440.374 181 437.499 177.999 L 434.624 174.999 436.812 172.960 L 439 170.922 439 167.961 L 439 165 437 163 L 435 161 420 161 L 405 161 405 162.655 L 405 164.310 403.250 162.766 C 402.288 161.917, 400.150 160.971, 398.500 160.664 L 395.500 160.104 393.028 161.102 M 41 170.884 L 41 181 46.566 181 L 52.131 181 54.316 179.837 C 55.517 179.197, 57.048 177.959, 57.718 177.087 L 58.936 175.500 58.968 171.306 L 59 167.112 56.635 164.362 L 54.269 161.612 47.635 161.189 L 41 160.767 41 170.884 M 64.143 170.409 C 59.347 181.301, 59.410 181, 61.933 181 L 63.865 181 64.500 179 L 65.135 177 70.032 177 L 74.930 177 76 179 L 77.070 181 79.142 181 L 81.214 181 80.614 179.437 C 80.284 178.577, 78.329 174.077, 76.270 169.437 L 72.525 161 70.406 161 L 68.286 161 64.143 170.409 M 78.185 162.750 L 78.516 164.500 81.758 164.813 L 85 165.127 85 173.063 L 85 181 87 181 L 89 181 89 173 L 89 165 92 165 L 95 165 95 163 L 95 161 86.427 161 L 77.853 161 78.185 162.750 M 99.455 170.142 C 97.280 175.170, 95.350 179.670, 95.167 180.142 L 94.833 181 96.881 181 L 98.930 181 100 179 L 101.070 177 105.968 177 L 110.865 177 111.500 179 L 112.135 181 114.067 181 C 116.666 181, 116.634 180.843, 111.869 170.250 L 107.708 161 105.559 161 L 103.410 161 99.455 170.142 M 159 171 L 159 181 166.500 181 L 174 181 174 179 L 174 177 168.500 177 L 163 177 163 175 L 163 173 168.500 173 L 174 173 174 171 L 174 169 168.500 169 L 163 169 163 167 L 163 165 168.500 165 L 174 165 174 163 L 174 161 166.500 161 L 159 161 159 171 M 176 171 L 176 181 177.952 181 L 179.905 181 180.202 175.020 L 180.500 169.039 185.278 175.020 L 190.056 181 191.528 181 L 193 181 193 171 L 193 161 191.050 161 L 189.100 161 188.800 166.677 L 188.500 172.354 184.128 166.677 L 179.757 161 177.878 161 L 176 161 176 171 M 198 171 L 198 181 206 181 L 214 181 214 179 L 214 177 208.500 177 L 203 177 203 175 L 203 173 208 173 L 213 173 213 171 L 213 169 208 169 L 203 169 203 167 L 203 165 208.500 165 L 214 165 214 163 L 214 161 206 161 L 198 161 198 171 M 215 171 L 215 181 217.450 181 L 219.900 181 220.200 175.250 L 220.500 169.500 224.987 175.250 L 229.474 181 231.237 181 L 233 181 233 171 L 233 161 230.500 161 L 228 161 228 166.592 L 228 172.183 223.445 166.592 L 218.890 161 216.945 161 L 215 161 215 171 M 234 171 L 234 181 241.500 181 L 249 181 249 179 L 249 177 243.500 177 L 238 177 238 175 L 238 173 243.500 173 L 249 173 249 171 L 249 169 243.500 169 L 238 169 238 167 L 238 165 243.500 165 L 249 165 249 163 L 249 161 241.500 161 L 234 161 234 171 M 286 171 L 286 181 288.500 181 L 291 181 291 171 L 291 161 288.500 161 L 286 161 286 171 M 292 171 L 292 181 299.500 181 L 307 181 307 179 L 307 177 301.500 177 L 296 177 296 175 L 296 173 301.500 173 L 307 173 307 171 L 307 169 301.500 169 L 296 169 296 167 L 296 165 301.500 165 L 307 165 307 163 L 307 161 299.500 161 L 292 161 292 171 M 312 171 L 312 181 314.500 181 L 317 181 317 171 L 317 161 314.500 161 L 312 161 312 171 M 318 171 L 318 181 320.450 181 L 322.900 181 323.200 175.250 L 323.500 169.500 327.987 175.250 L 332.474 181 334.237 181 L 336 181 336 171 L 336 161 333.500 161 L 331 161 331 166.592 L 331 172.183 326.445 166.592 L 321.890 161 319.945 161 L 318 161 318 171 M 337 171 L 337 181 339 181 L 341 181 341 177.500 L 341 174 346 174 L 351 174 351 172 L 351 170 346 170 L 341 170 341 167.500 L 341 165 346 165 L 351 165 351 163 L 351 161 344 161 L 337 161 337 171 M 440 168.444 L 440 175.888 442.394 178.672 L 444.788 181.455 449 181.455 L 453.212 181.455 455.606 178.672 L 458 175.888 458 168.444 L 458 161 455.500 161 L 453 161 453 168.465 L 453 175.930 451.072 176.961 L 449.145 177.993 447.545 177.379 C 446.665 177.041, 445.507 175.947, 444.972 174.948 L 444 173.131 444 167.066 L 444 161 442 161 L 440 161 440 168.444 M 462.422 163.336 L 459.932 165.500 459.338 169.233 L 458.744 172.967 460.013 176.031 L 461.282 179.094 464.091 180.547 C 467.482 182.301, 471.026 182.401, 474.453 180.839 L 477 179.679 477 178.399 C 477 177.694, 476.523 176.823, 475.940 176.463 L 474.879 175.807 471.946 177.023 L 469.012 178.238 466.582 176.646 L 464.152 175.053 463.550 173.159 L 462.949 171.264 463.939 168.660 L 464.929 166.056 467.538 165.401 L 470.147 164.746 472.538 165.835 L 474.929 166.925 475.523 165.962 L 476.118 165 479.059 165 L 482 165 482 173 L 482 181 484.500 181 L 487 181 487 173 L 487 165 490 165 L 493 165 493 168.851 C 493 170.969, 493.511 174.167, 494.135 175.958 L 495.271 179.215 498.721 180.657 L 502.172 182.099 505.593 180.969 L 509.015 179.840 510.008 177.986 L 511 176.131 511 168.566 L 511 161 509 161 L 507 161 507 167.929 L 507 174.857 505.429 176.429 C 504.564 177.293, 503.246 178, 502.500 178 C 501.754 178, 500.436 177.293, 499.571 176.429 L 498 174.857 498 167.924 L 498 160.991 481.455 161.082 L 464.911 161.173 462.422 163.336 M 513 171 L 513 181 515 181 L 517 181 517 178 L 517 175 518.911 175 L 520.822 175 523.347 178 L 525.871 181 535.935 181 L 546 181 546 179 L 546 177 540.500 177 L 535 177 535 175 L 535 173 540 173 L 545 173 545 171 L 545 169 540 169 L 535 169 535 167 L 535 165 540.500 165 L 546 165 546 163 L 546 161 538 161 L 530 161 530 163 L 530 165 528 163 L 526 161 519.500 161 L 513 161 513 171 M 547 171 L 547 181 549.450 181 L 551.900 181 552.200 175.317 L 552.500 169.635 556.782 175.317 L 561.065 181 562.532 181 L 564 181 564 171 L 564 161 562.050 161 L 560.100 161 559.800 166.527 L 559.500 172.055 555.191 166.527 L 550.883 161 548.941 161 L 547 161 547 171 M 45 171 L 45 177 48.800 177 L 52.600 177 53.800 175.800 L 55 174.600 55 171.371 L 55 168.143 53.429 166.571 L 51.857 165 48.429 165 L 45 165 45 171 M 254 168 L 254 171.121 257.750 170.810 L 261.500 170.500 261.500 168 L 261.500 165.500 257.750 165.190 L 254 164.879 254 168 M 356 168 L 356 171 359.378 171 L 362.755 171 364 169.500 L 365.245 168 364 166.500 L 362.755 165 359.378 165 L 356 165 356 168 M 426 168 L 426 171 429.378 171 L 432.755 171 434 169.500 L 435.245 168 434 166.500 L 432.755 165 429.378 165 L 426 165 426 168 M 517 168 L 517 171 520.378 171 L 523.755 171 525 169.500 L 526.245 168 525 166.500 L 523.755 165 520.378 165 L 517 165 517 168 M 68.784 169.555 L 67.199 173.500 68.588 173.821 C 69.352 173.998, 70.815 173.998, 71.839 173.821 L 73.701 173.500 72.035 169.555 L 70.369 165.611 68.784 169.555 M 104.149 169.003 C 103.517 170.816, 103 172.681, 103 173.149 L 103 174 106 174 L 109 174 108.958 173.250 C 108.935 172.838, 108.102 170.972, 107.107 169.104 L 105.298 165.708 104.149 169.003 M 377.173 169.520 C 375.604 172.963, 375.619 173, 378.567 173 L 381.135 173 380.455 170.750 C 380.081 169.512, 379.454 168.150, 379.060 167.723 L 378.346 166.946 377.173 169.520 M 527.551 173.082 L 525.602 175.046 527.801 177.245 L 530 179.444 530 175.222 C 530 172.900, 529.888 171.027, 529.750 171.059 C 529.612 171.092, 528.623 172.002, 527.551 173.082" stroke="none" fill="#04040b" fill-rule="evenodd"/></svg>