<svg xmlns="http://www.w3.org/2000/svg" width="1000" height="374" viewBox="0 0 1000 374" version="1.1"><path d="M 199.230 39.250 C 198.672 39.938, 198.054 41.323, 197.858 42.329 C 197.588 43.706, 186.501 48.718, 153.003 62.604 L 108.507 81.049 105.321 79.334 C 101.420 77.233, 97.628 78.527, 95.777 82.590 C 94.787 84.764, 94.884 85.734, 96.351 88.290 L 98.119 91.370 80.369 134.290 C 69.447 160.696, 62.018 177.398, 61.059 177.698 C 54.341 179.806, 52 182.187, 52 186.912 C 52 189.863, 55.841 193.879, 59.293 194.539 C 62.481 195.148, 62.605 195.407, 80.139 237.809 L 97.779 280.466 95.889 282.868 C 93.031 286.502, 93.467 290.374, 97.077 293.411 C 100.741 296.494, 103.845 296.696, 107.186 294.069 L 109.641 292.137 152.320 309.805 C 191.368 325.970, 195 327.673, 195 329.814 C 195 331.101, 196.368 333.522, 198.040 335.194 C 200.575 337.729, 201.603 338.129, 204.224 337.605 C 208.399 336.770, 210.829 334.426, 211.560 330.531 C 212.156 327.357, 212.442 327.219, 254.741 309.722 L 297.322 292.108 299.796 294.054 C 303.291 296.803, 306.672 296.482, 310.077 293.077 C 313.480 289.674, 313.803 286.291, 311.060 282.803 L 309.120 280.337 327.215 236.668 C 343.274 197.917, 345.558 193, 347.501 193 C 350.496 193, 353 189.961, 353 186.326 C 353 182.958, 350.368 180, 347.370 180 C 345.711 180, 342.488 172.965, 327.148 135.866 L 308.899 91.732 310.500 88.358 C 311.855 85.502, 311.901 84.566, 310.798 82.265 C 308.951 78.412, 304.656 77.087, 300.933 79.224 C 298.034 80.888, 297.953 80.859, 253.895 62.614 C 212.097 45.304, 209.690 44.169, 208.429 41.168 C 207.301 38.486, 206.571 38, 203.671 38 C 201.787 38, 199.788 38.563, 199.230 39.250 M 153.500 65.418 C 129.300 75.477, 109.586 84.111, 109.692 84.604 C 109.798 85.097, 115.399 86.742, 122.140 88.260 L 134.397 91.020 139.526 87.614 C 145.929 83.363, 154.467 79, 156.383 79 C 157.181 79, 157.983 78.662, 158.167 78.250 C 159.106 76.138, 173.831 71.975, 182.750 71.302 C 186.188 71.042, 189 70.470, 189 70.031 C 189 69.592, 189.828 69.017, 190.839 68.752 C 192.111 68.420, 193.807 65.198, 196.339 58.305 C 200.452 47.110, 200.480 46.975, 198.750 47.065 C 198.063 47.100, 177.700 55.360, 153.500 65.418 M 209 47.618 C 209 47.895, 213.080 53.207, 218.067 59.423 C 225.776 69.032, 227.760 70.916, 231.317 72.006 C 242.216 75.347, 248.544 77.520, 249 78.079 C 249.275 78.416, 250.625 78.974, 252 79.319 C 254.908 80.049, 270.605 89.345, 275.101 93 C 276.792 94.375, 280.482 97.638, 283.300 100.250 C 286.118 102.862, 288.666 104.986, 288.962 104.968 C 289.258 104.951, 291.638 101.837, 294.251 98.048 C 298.571 91.784, 298.932 90.823, 298.232 87.452 L 297.461 83.745 265.481 70.507 C 247.891 63.226, 227.988 54.984, 221.250 52.192 C 214.512 49.399, 209 47.341, 209 47.618 M 201.884 51.750 C 199.491 57.922, 196 67.783, 196 68.371 C 196 68.717, 200.950 69, 207 69 C 213.667 69, 218 69.394, 218 70 C 218 70.550, 219.150 71, 220.556 71 C 222.948 71, 222.577 70.295, 214.806 60.043 C 206.049 48.492, 203.726 47.001, 201.884 51.750 M 191.540 78.127 C 191.270 78.882, 189.543 83.499, 187.701 88.386 L 184.354 97.271 186.191 100.875 L 188.028 104.479 225.764 116.189 C 246.519 122.630, 264.288 127.922, 265.250 127.950 C 266.212 127.977, 266.985 127.438, 266.968 126.750 C 266.950 126.063, 258.950 115.375, 249.189 103 C 228.379 76.614, 230.896 78.140, 206.766 77.279 C 194.825 76.853, 191.939 77.014, 191.540 78.127 M 177.500 79.888 C 164.839 83.037, 143.793 92.362, 145.700 93.978 C 146.140 94.351, 152.937 96.091, 160.805 97.845 C 173.584 100.694, 175.271 100.872, 176.625 99.518 C 177.458 98.685, 179.143 97.751, 180.369 97.444 C 182.099 97.009, 183.317 94.939, 185.808 88.192 C 187.574 83.411, 189.015 79.162, 189.009 78.750 C 188.995 77.599, 185.194 77.975, 177.500 79.888 M 251.938 103.306 L 268.853 124.612 272.949 124.510 C 276.724 124.415, 277.317 124.002, 280.522 119.243 C 282.435 116.403, 284 113.668, 284 113.167 C 284 111.262, 269.088 98.197, 261.556 93.502 C 254.231 88.937, 239.075 82.055, 236.261 82.017 C 235.580 82.008, 242.635 91.588, 251.938 103.306 M 107.534 89.894 C 106.914 91.845, 113.530 108, 114.948 108 C 115.317 108, 119.062 104.709, 123.271 100.688 L 130.923 93.375 121.211 91.103 C 115.870 89.854, 110.749 88.626, 109.831 88.374 C 108.789 88.088, 107.925 88.660, 107.534 89.894 M 99.450 95.750 C 79.127 144.077, 65.031 179.431, 65.785 180.185 C 66.354 180.754, 70.788 178.696, 77.270 174.855 C 88.924 167.950, 87.850 169.565, 89.632 156.250 C 89.945 153.912, 90.606 152, 91.101 152 C 91.595 152, 92 150.650, 92 149 C 92 147.350, 92.450 146, 93 146 C 93.550 146, 94 144.875, 94 143.500 C 94 142.125, 94.450 141, 95 141 C 95.550 141, 96 140.180, 96 139.178 C 96 137.202, 101.581 126.327, 103.698 124.179 C 104.414 123.452, 105 122.480, 105 122.018 C 105 121.557, 106.724 118.998, 108.832 116.332 L 112.664 111.484 108.183 101.742 C 105.719 96.384, 103.101 92, 102.365 92 C 101.629 92, 100.317 93.688, 99.450 95.750 M 296.289 99.924 L 291.078 107.867 294.522 111.683 C 296.416 113.782, 298.229 116.287, 298.550 117.250 C 298.872 118.213, 299.554 119, 300.067 119 C 300.580 119, 301 119.590, 301 120.311 C 301 121.033, 301.859 122.544, 302.908 123.671 C 305.291 126.229, 309 133.406, 309 135.460 C 309 136.307, 309.450 137, 310 137 C 310.550 137, 311 137.900, 311 139 C 311 140.100, 311.450 141, 312 141 C 312.550 141, 313 142.125, 313 143.500 C 313 144.875, 313.401 146, 313.891 146 C 314.380 146, 315.023 147.463, 315.318 149.250 C 316.345 155.463, 317.657 160.512, 318.790 162.620 C 319.783 164.464, 340.868 181, 342.227 181 C 342.506 181, 334.496 161.088, 324.427 136.750 C 303.008 84.979, 304.668 87.152, 296.289 99.924 M 138.242 98.418 C 129.779 104.971, 125.951 108.430, 122.076 113.024 L 118.057 117.791 123.173 128.799 C 127.760 138.669, 128.601 139.870, 131.307 140.411 C 133.194 140.789, 134.921 140.508, 135.913 139.663 C 136.786 138.919, 146.050 131.199, 156.500 122.509 C 173.811 108.112, 176.487 105.244, 174.516 103.194 C 174.354 103.026, 167.021 101.189, 158.221 99.113 L 142.221 95.337 138.242 98.418 M 185.125 107.630 C 183.943 108.965, 184.855 113.520, 191.591 139.916 L 199.433 170.648 203.325 171.863 L 207.216 173.077 222.358 163.541 C 267.332 135.218, 265.500 136.496, 265.500 133.427 L 265.500 130.582 226 118.325 C 204.275 111.583, 186.500 106.069, 186.500 106.072 C 186.500 106.074, 185.881 106.775, 185.125 107.630 M 156.114 125.593 C 138.055 140.693, 135.340 143.330, 135.734 145.389 C 136.121 147.414, 140.396 149.714, 164.674 160.959 C 180.341 168.215, 193.809 173.903, 194.603 173.599 C 195.396 173.294, 196.292 172.402, 196.594 171.616 C 197.058 170.406, 182.727 111.985, 181.465 109.943 C 181.226 109.557, 180.112 109.001, 178.989 108.707 C 177.426 108.299, 172.065 112.256, 156.114 125.593 M 282.117 120.207 C 278.989 124.989, 278.825 125.627, 279.934 128.693 C 280.593 130.516, 280.862 132.861, 280.531 133.903 C 280.042 135.442, 282.609 137.770, 294.215 146.313 C 302.072 152.096, 308.609 156.720, 308.743 156.588 C 309.364 155.973, 304.496 143.460, 300.904 136.435 C 297.019 128.839, 287.477 114.982, 286.155 115.018 C 285.795 115.028, 283.978 117.363, 282.117 120.207 M 111.470 126.940 C 108.906 130.904, 105.552 136.927, 104.017 140.324 C 100.839 147.358, 95.721 163.055, 96.388 163.722 C 96.632 163.966, 102.941 160.641, 110.408 156.333 C 119.435 151.125, 123.987 147.929, 123.992 146.797 C 123.996 145.860, 124.498 144.001, 125.106 142.666 C 126.048 140.600, 125.586 138.837, 122.018 130.869 C 119.710 125.716, 117.442 121.102, 116.978 120.616 C 116.504 120.121, 114.085 122.898, 111.470 126.940 M 277.254 138.235 C 275.631 140.255, 289.002 188.882, 291.549 190.222 C 292.622 190.787, 293.992 191.858, 294.594 192.602 C 295.470 193.686, 296.962 193.750, 302.094 192.923 C 314.609 190.908, 313.361 192.343, 312.723 180.696 C 312.416 175.088, 311.659 168.222, 311.040 165.438 C 309.818 159.942, 312.181 162.026, 281.385 139.271 C 278.941 137.464, 278.052 137.241, 277.254 138.235 M 237.500 156.561 C 208.150 175.180, 204.614 178.148, 210.185 179.485 C 211.458 179.790, 228.700 183.137, 248.500 186.923 C 282.041 193.335, 284.617 193.692, 286.213 192.153 C 287.827 190.596, 287.531 189.034, 281.104 165.225 C 277.352 151.323, 274.106 139.795, 273.891 139.607 C 273.676 139.419, 271.925 139.018, 270 138.715 C 266.795 138.211, 264.053 139.717, 237.500 156.561 M 110.306 158.343 C 102.500 162.829, 95.807 167.175, 95.434 168 C 94.459 170.157, 93.622 194.172, 94.381 198.219 C 95 201.517, 95.566 201.883, 111.683 209.391 C 126.771 216.419, 128.571 217.032, 130.731 215.876 C 132.414 214.976, 132.968 213.996, 132.614 212.550 C 132.337 211.422, 131.794 203.166, 131.406 194.202 C 131.018 185.238, 130.613 176.688, 130.507 175.202 C 130.400 173.716, 130.243 168.355, 130.157 163.289 C 130.019 155.215, 129.730 153.826, 127.811 152.039 C 126.608 150.918, 125.370 150.042, 125.061 150.093 C 124.753 150.144, 118.113 153.857, 110.306 158.343 M 132.711 151.392 C 131.196 152.566, 131.015 153.752, 131.533 159.139 C 131.870 162.638, 132.694 176.407, 133.364 189.737 C 134.458 211.491, 134.776 214.116, 136.465 215.351 C 138.163 216.593, 140.347 215.461, 158.923 203.713 C 170.240 196.555, 182.524 188.854, 186.220 186.599 C 192.109 183.007, 192.944 182.125, 192.970 179.469 C 193 176.470, 192.704 176.300, 165.250 163.583 C 149.988 156.514, 136.825 150.566, 136 150.368 C 135.175 150.169, 133.695 150.629, 132.711 151.392 M 319.351 170.500 C 319.721 172.150, 320.308 176.988, 320.655 181.250 C 321.002 185.512, 321.559 188.999, 321.893 188.999 C 322.227 188.998, 326.325 188.323, 331 187.500 C 335.675 186.677, 339.613 186.002, 339.750 186.001 C 339.887 186.001, 340 185.361, 340 184.580 C 340 183.799, 335.837 180.131, 330.750 176.430 C 325.663 172.728, 320.865 169.205, 320.089 168.600 C 318.918 167.687, 318.792 168.010, 319.351 170.500 M 77.308 178.258 C 69.357 182.749, 68.201 183.742, 68.340 185.957 C 68.475 188.098, 69.747 189.093, 76.380 192.250 C 80.714 194.313, 84.623 196, 85.067 196 C 85.637 196, 86.881 175.844, 86.468 173.301 C 86.450 173.192, 82.328 175.422, 77.308 178.258 M 205.496 184.418 L 202.492 187.431 205.656 216.466 C 207.397 232.435, 208.861 245.558, 208.911 245.629 C 208.960 245.699, 210.310 246.300, 211.911 246.963 C 214.750 248.139, 215.699 247.548, 249.851 223.335 C 269.116 209.676, 284.906 197.946, 284.940 197.269 C 285.013 195.777, 286.523 196.131, 254 190.014 C 239.425 187.272, 223.225 184.214, 218 183.217 L 208.500 181.405 205.496 184.418 M 167 201.064 C 146.187 214.316, 140.437 218.431, 140.206 220.235 C 139.936 222.345, 142.418 223.652, 170.567 236.229 C 200.596 249.646, 201.270 249.891, 203.580 248.213 C 206.541 246.061, 206.542 246.306, 203.506 217.317 C 200.219 185.927, 200.532 187.412, 196.812 185.556 C 195.096 184.700, 193.649 184.043, 193.596 184.095 C 193.543 184.147, 181.575 191.783, 167 201.064 M 328.842 190.658 L 321.185 192.150 319.998 200.825 C 319.345 205.596, 318.437 210.400, 317.980 211.500 C 317.100 213.622, 316.202 217.420, 315.319 222.750 C 315.023 224.537, 314.380 226, 313.891 226 C 313.401 226, 313 227.350, 313 229 C 313 230.650, 312.550 232, 312 232 C 311.450 232, 311 232.900, 311 234 C 311 235.100, 310.550 236, 310 236 C 309.450 236, 309 236.661, 309 237.470 C 309 239.066, 305.985 244.781, 302.705 249.405 C 300.652 252.297, 300.651 252.363, 302.430 264.905 C 304.037 276.233, 305.157 280.207, 306.384 278.933 C 306.613 278.695, 314.796 259.207, 324.568 235.627 C 342.912 191.361, 343.387 189.772, 338.398 189.333 C 337.354 189.241, 333.054 189.838, 328.842 190.658 M 66.031 192.463 C 65.236 193.420, 69.499 204.705, 82.618 236.376 C 103.249 286.182, 102.071 284.655, 108.767 270.275 C 112.961 261.266, 112.993 260.497, 109.332 256.500 C 105.121 251.902, 96 236.098, 96 233.398 C 96 232.629, 95.550 232, 95 232 C 94.450 232, 94 231.100, 94 230 C 94 228.900, 93.550 228, 93 228 C 92.450 228, 92 226.650, 92 225 C 92 223.350, 91.595 222, 91.101 222 C 90.606 222, 89.956 220.088, 89.656 217.750 C 88.565 209.255, 87.195 200.863, 86.851 200.579 C 86.658 200.420, 82.135 198.238, 76.800 195.732 C 69.093 192.111, 66.881 191.439, 66.031 192.463 M 303.367 194.406 C 298.718 195.324, 296.608 196.329, 294.649 198.558 C 293.227 200.176, 292.049 201.826, 292.032 202.224 C 291.974 203.538, 298.047 240.381, 298.375 240.709 C 298.552 240.885, 300.602 236.928, 302.931 231.915 C 307.303 222.505, 311.238 208.794, 312.450 198.750 C 313.245 192.161, 313.683 192.370, 303.367 194.406 M 250.750 225.127 C 219.426 247.665, 216 250.404, 216 252.908 C 216 255.642, 216.407 255.827, 242.518 264.913 L 269.035 274.140 272.852 271.117 C 278.617 266.551, 289.586 254.606, 293.415 248.723 L 296.815 243.500 293.377 222.540 C 290.175 203.014, 289.236 199.949, 286.500 200.077 C 285.950 200.103, 269.863 211.376, 250.750 225.127 M 95.317 205.599 C 95.618 206.644, 96.571 210.352, 97.434 213.838 C 99.273 221.263, 104.230 233.977, 107.240 238.986 C 111.834 246.633, 116.231 253, 116.916 253 C 117.314 253, 120.493 246.908, 123.981 239.462 C 128.799 229.179, 130.045 225.645, 129.162 224.762 C 128.523 224.123, 128 222.636, 128 221.458 C 128 219.679, 125.412 218.083, 112.750 212.053 C 93.411 202.844, 94.656 203.305, 95.317 205.599 M 567.500 213.346 C 557.683 215.903, 550.175 220.978, 544.928 228.604 C 534.244 244.133, 535.363 268.826, 547.412 283.430 C 552.302 289.356, 560.328 293.788, 569.594 295.678 C 588.634 299.560, 606.785 291.320, 614.701 275.199 C 617.063 270.389, 617.554 267.979, 617.844 259.750 L 618.187 250 600.189 250 L 582.191 250 579.095 255.485 C 577.393 258.502, 576 261.202, 576 261.485 C 576 261.768, 582.124 262, 589.608 262 L 603.217 262 602.548 264.750 C 601.477 269.150, 597.305 274.770, 592.990 277.625 C 588.263 280.754, 577.527 281.989, 571.720 280.073 C 565.849 278.135, 560.501 273.585, 557.957 268.361 C 556.015 264.373, 555.583 261.883, 555.554 254.500 C 555.523 246.355, 555.802 244.988, 558.496 240.108 C 564.830 228.634, 579.161 224.802, 590.621 231.518 C 592.976 232.898, 595.697 235.371, 596.667 237.014 C 598.423 239.986, 598.475 240, 607.671 240 L 616.911 240 615.451 235.860 C 612.063 226.259, 604.523 218.483, 595.147 214.922 C 588.145 212.262, 574.619 211.491, 567.500 213.346 M 394 254.500 L 394 296 419 296 L 444 296 444 289 L 444 282 428 282 L 412 282 412 271.534 L 412 261.068 422.670 260.784 L 433.339 260.500 437.099 254.500 C 439.167 251.200, 440.891 248.162, 440.930 247.750 C 440.968 247.338, 434.475 247, 426.500 247 L 412 247 412 237 L 412 227 428 227 L 444 227 444 220 L 444 213 419 213 L 394 213 394 254.500 M 455 254.514 L 455 296.199 476.250 295.784 C 495.393 295.410, 498.073 295.144, 503.282 293.101 C 514.144 288.839, 521.899 281.072, 526.064 270.282 C 529.174 262.227, 529.237 247.060, 526.197 238.651 C 522.315 227.916, 514.187 219.769, 503.349 215.749 C 498.184 213.833, 495.017 213.536, 476.250 213.204 L 455 212.828 455 254.514 M 629 254.500 L 629 296 654 296 L 679 296 679 289 L 679 282 663 282 L 647 282 647 271.534 L 647 261.068 657.726 260.784 L 668.451 260.500 672.230 254 L 676.008 247.500 661.504 247.223 L 647 246.947 647 236.973 L 647 227 663 227 L 679 227 679 220 L 679 213 654 213 L 629 213 629 254.500 M 137.464 225.650 C 136.449 226.392, 134.812 227, 133.827 227 C 132.511 227, 130.306 230.623, 125.518 240.651 C 121.933 248.160, 119 254.808, 119 255.425 C 119 256.437, 131.350 268.984, 136.626 273.334 C 138.685 275.031, 139.720 274.780, 169.117 265.463 C 185.817 260.170, 199.816 255.313, 200.224 254.670 C 200.633 254.026, 200.834 253.077, 200.670 252.560 C 200.507 252.043, 186.634 245.473, 169.842 237.960 C 142.824 225.872, 139.098 224.455, 137.464 225.650 M 473 253.866 L 473 280 481.822 280 C 492.718 280, 498.981 278.019, 504.022 272.978 C 513.537 263.463, 513.193 244.153, 503.342 234.803 C 498.783 230.477, 493.411 228.760, 482.750 228.223 L 473 227.733 473 253.866 M 294.759 260.250 C 291.896 264.003, 283.314 272.696, 280.086 275.113 C 277.996 276.677, 278.201 276.820, 286.916 279.863 C 291.857 281.588, 296.260 282.985, 296.700 282.967 C 297.140 282.948, 298.480 282.115, 299.678 281.114 L 301.857 279.296 300.169 268.722 C 299.241 262.907, 298.211 257.878, 297.880 257.547 C 297.550 257.216, 296.145 258.432, 294.759 260.250 M 171.500 266.644 C 156.650 271.299, 143.825 275.342, 143 275.629 C 140.605 276.459, 145.189 279.675, 156.500 285.099 C 168.598 290.901, 182.816 294.736, 195.544 295.630 L 205 296.295 205.004 293.398 C 205.006 291.804, 205.482 284.237, 206.061 276.583 L 207.115 262.666 204.307 260.369 C 202.763 259.106, 200.825 258.096, 200 258.126 C 199.175 258.155, 186.350 261.989, 171.500 266.644 M 212.347 260.344 C 208.683 262.850, 208.402 264.154, 207.399 283.250 L 206.729 296 209.115 295.996 C 214.358 295.987, 230.059 292.905, 237.555 290.414 C 245.557 287.754, 260.566 280.479, 264.763 277.226 C 266.992 275.498, 266.646 275.340, 241.759 266.736 C 227.861 261.931, 216.268 258.042, 215.995 258.094 C 215.723 258.146, 214.081 259.159, 212.347 260.344 M 110.882 272.753 C 105.659 283.936, 106.778 284.775, 120.827 280.207 C 128.777 277.622, 129.071 277.422, 127.327 275.783 C 126.322 274.839, 123.374 272.026, 120.776 269.533 C 118.178 267.040, 115.703 265.001, 115.276 265.003 C 114.849 265.005, 112.872 268.492, 110.882 272.753 M 273.410 280.868 C 271.810 281.765, 270.350 282.837, 270.167 283.250 C 269.983 283.663, 269.196 284, 268.417 284 C 267.637 284, 267 284.450, 267 285 C 267 285.550, 266.325 286, 265.500 286 C 264.675 286, 264 286.450, 264 287 C 264 287.550, 263.325 288, 262.500 288 C 261.675 288, 261 288.450, 261 289 C 261 289.550, 260.100 290, 259 290 C 257.900 290, 257 290.450, 257 291 C 257 291.550, 256.100 292, 255 292 C 253.900 292, 253 292.450, 253 293 C 253 293.550, 252.307 294, 251.460 294 C 250.613 294, 248.251 294.847, 246.210 295.882 C 241.104 298.472, 227.273 301.735, 216.656 302.855 C 211.792 303.368, 207.441 304.173, 206.988 304.644 C 206.535 305.115, 206.028 308.957, 205.861 313.182 C 205.575 320.399, 205.710 320.984, 208.107 322.870 L 210.658 324.876 253.329 307.214 C 285.464 293.914, 296 289.141, 296 287.883 C 296 286.023, 295.783 285.913, 284.410 282.011 C 276.701 279.366, 276.183 279.312, 273.410 280.868 M 121.045 283.080 C 112.105 285.883, 109.181 287.618, 110.792 289.163 C 111.181 289.536, 130.531 297.720, 153.791 307.348 L 196.082 324.854 199.426 322.677 C 202.680 320.559, 202.782 320.283, 203.203 312.500 C 203.441 308.100, 203.606 304.435, 203.568 304.355 C 203.531 304.275, 198.550 303.697, 192.500 303.070 C 180.141 301.790, 166.466 298.715, 160.562 295.886 C 158.396 294.849, 156.034 294, 155.312 294 C 154.590 294, 154 293.550, 154 293 C 154 292.450, 153.100 292, 152 292 C 150.900 292, 150 291.550, 150 291 C 150 290.450, 149.100 290, 148 290 C 146.900 290, 146 289.550, 146 289 C 146 288.450, 145.325 288, 144.500 288 C 143.675 288, 143 287.550, 143 287 C 143 286.450, 142.325 286, 141.500 286 C 140.675 286, 140 285.550, 140 285 C 140 284.450, 139.306 284, 138.458 284 C 137.610 284, 135.950 283.100, 134.770 282 C 132.111 279.523, 132.483 279.494, 121.045 283.080" stroke="none" fill="#049cd3" fill-rule="evenodd"/><path d="M 789.223 72.557 C 787.703 73.621, 787 75.139, 787 77.357 C 787 81.545, 788.547 83, 793 83 C 797.453 83, 799 81.545, 799 77.357 C 799 74.004, 796.164 71, 793 71 C 792.145 71, 790.445 71.701, 789.223 72.557 M 411.326 77.010 C 393.926 80.593, 387.056 99.973, 398.803 112.339 C 402.287 116.007, 404.389 117.062, 416.857 121.402 C 422.539 123.380, 428.527 125.786, 430.163 126.749 C 439.263 132.105, 439.222 146.731, 430.094 151.451 C 428.384 152.336, 424.611 152.993, 421.300 152.984 C 413.109 152.960, 408.257 150.077, 405 143.295 C 402.511 138.114, 402.479 138.091, 397.731 138.045 C 393.028 138.001, 392.971 138.038, 393.623 140.750 C 396.803 153.980, 408.862 161.785, 424.565 160.778 C 438.692 159.871, 446.500 151.941, 446.500 138.500 C 446.500 126.097, 441.765 121.237, 423.236 114.624 C 409.197 109.613, 406.646 108.150, 404.409 103.825 C 402.323 99.789, 402.958 91.822, 405.604 88.852 C 412.672 80.919, 428.848 83.155, 433.467 92.703 C 435.425 96.752, 435.675 96.908, 440.250 96.953 C 445.643 97.006, 445.875 96.481, 443.100 90.500 C 440.836 85.620, 435.701 80.595, 431 78.661 C 426.384 76.762, 416.544 75.936, 411.326 77.010 M 191.540 78.127 C 191.270 78.882, 189.543 83.499, 187.701 88.386 L 184.354 97.271 186.191 100.875 L 188.028 104.479 225.764 116.189 C 246.519 122.630, 264.288 127.922, 265.250 127.950 C 266.212 127.977, 266.985 127.438, 266.968 126.750 C 266.950 126.063, 258.950 115.375, 249.189 103 C 228.379 76.614, 230.896 78.140, 206.766 77.279 C 194.825 76.853, 191.939 77.014, 191.540 78.127 M 177.500 79.888 C 164.839 83.037, 143.793 92.362, 145.700 93.978 C 146.140 94.351, 152.937 96.091, 160.805 97.845 C 173.584 100.694, 175.271 100.872, 176.625 99.518 C 177.458 98.685, 179.143 97.751, 180.369 97.444 C 182.099 97.009, 183.317 94.939, 185.808 88.192 C 187.574 83.411, 189.015 79.162, 189.009 78.750 C 188.995 77.599, 185.194 77.975, 177.500 79.888 M 251.938 103.306 L 268.853 124.612 272.949 124.510 C 276.724 124.415, 277.317 124.002, 280.522 119.243 C 282.435 116.403, 284 113.668, 284 113.167 C 284 111.262, 269.088 98.197, 261.556 93.502 C 254.231 88.937, 239.075 82.055, 236.261 82.017 C 235.580 82.008, 242.635 91.588, 251.938 103.306 M 138.242 98.418 C 129.779 104.971, 125.951 108.430, 122.076 113.024 L 118.057 117.791 123.173 128.799 C 127.760 138.669, 128.601 139.870, 131.307 140.411 C 133.194 140.789, 134.921 140.508, 135.913 139.663 C 136.786 138.919, 146.050 131.199, 156.500 122.509 C 173.811 108.112, 176.487 105.244, 174.516 103.194 C 174.354 103.026, 167.021 101.189, 158.221 99.113 L 142.221 95.337 138.242 98.418 M 478.332 96.785 C 464.944 101.583, 458 112.273, 458 128.088 C 458 147.189, 469.170 159.605, 487.407 160.776 C 501.915 161.707, 512.363 156.104, 518.186 144.271 C 521.241 138.062, 521.499 136.790, 521.482 128.018 C 521.466 119.888, 521.085 117.686, 518.862 112.914 C 513.602 101.620, 504.892 96.026, 491.500 95.342 C 485.437 95.032, 482.249 95.382, 478.332 96.785 M 618.324 96.439 C 609.561 99.179, 603.522 104.538, 599.665 112.992 C 596.668 119.564, 596.643 136.569, 599.621 143.051 C 602.571 149.472, 607.483 154.701, 613.410 157.728 C 620.049 161.119, 631.228 161.948, 639.172 159.638 C 648.126 157.035, 657.036 147.811, 658.146 139.994 C 658.475 137.675, 658.172 137.479, 653.841 137.199 C 649.362 136.909, 649.155 137.017, 648.506 139.973 C 646.841 147.554, 638.517 152.956, 628.500 152.956 C 617.803 152.956, 609.477 146.921, 607.088 137.436 C 605.057 129.371, 602.897 130, 632.632 130 L 659.263 130 658.794 122.684 C 657.960 109.692, 650.563 100.026, 638.774 96.526 C 632.599 94.692, 624.029 94.656, 618.324 96.439 M 692.420 97.385 C 689.626 98.686, 686.144 101.269, 684.681 103.125 L 682.022 106.500 682.011 101.250 L 682 96 677.500 96 L 673 96 673 128 L 673 160 677.500 160 L 682 160 682 140.149 C 682 127.992, 682.440 118.981, 683.136 116.899 C 685.428 110.042, 691.683 105.761, 701.250 104.502 L 706 103.877 706 99.439 L 706 95 701.750 95.010 C 699.399 95.015, 695.231 96.076, 692.420 97.385 M 734.500 96.340 C 725.491 99.322, 720.149 103.809, 715.858 112 C 713.778 115.969, 713.500 117.857, 713.500 128 C 713.500 138.566, 713.719 139.916, 716.203 144.623 C 722.264 156.113, 732.754 161.632, 746.915 160.783 C 758.885 160.064, 768.675 153.809, 772.625 144.355 C 775.124 138.375, 774.577 137, 769.698 137 C 765.497 137, 765.349 137.113, 763.326 141.901 C 760.352 148.940, 754.942 152.325, 745.843 152.839 C 735.171 153.442, 728.691 150.034, 724.493 141.611 C 723.122 138.859, 722 135.121, 722 133.304 L 722 130 747.981 130 L 773.962 130 774.593 127.487 C 775.446 124.087, 774.227 116.396, 772.045 111.411 C 769.691 106.033, 763.795 100.242, 758.089 97.703 C 752.386 95.165, 740.180 94.459, 734.500 96.340 M 833 95.935 C 824.017 98.677, 818.440 103.629, 814.341 112.500 C 811.923 117.732, 811.569 119.716, 811.577 128 C 811.585 136.316, 811.944 138.286, 814.456 143.808 C 819.918 155.816, 830.235 161.754, 843.925 160.772 C 853.401 160.091, 861.362 155.284, 865.904 147.500 C 866.829 145.913, 867.002 147.877, 866.741 157 C 866.467 166.531, 866.029 169.228, 864.185 172.749 C 860.853 179.113, 855.270 182.363, 846.852 182.839 C 840.940 183.173, 839.211 182.849, 834.435 180.512 C 829.998 178.341, 828.347 176.819, 826.193 172.913 C 823.612 168.232, 823.319 168.028, 819.142 168.014 C 814.892 168, 814.800 168.068, 815.442 170.750 C 817.411 178.963, 826.373 187.674, 835.343 190.095 C 841.680 191.805, 855.679 190.788, 860.500 188.267 C 865.496 185.655, 870.081 180.843, 873.142 175 C 875.478 170.541, 875.503 170.159, 875.806 133.250 L 876.112 96 871.556 96 L 867 96 866.970 103.250 C 866.945 109.078, 866.723 110.108, 865.840 108.500 C 863.370 104.008, 857.331 98.893, 852.253 96.994 C 846.827 94.963, 837.807 94.467, 833 95.935 M 915 96.314 C 913.075 96.924, 909.362 99.556, 906.750 102.164 L 902 106.905 902 101.452 L 902 96 897.500 96 L 893 96 893 128 L 893 160 897.430 160 L 901.860 160 902.180 138.250 C 902.479 117.948, 902.650 116.220, 904.748 112.293 C 908.039 106.137, 913.910 102.995, 922.088 103.016 C 930.152 103.037, 935.423 105.777, 938.412 111.500 C 940.315 115.146, 940.527 117.471, 940.803 137.750 L 941.106 160 945.553 160 L 950 160 950 138.159 C 950 122.204, 949.618 115.050, 948.584 111.614 C 945.368 100.928, 936.816 94.944, 925 95.112 C 921.425 95.163, 916.925 95.703, 915 96.314 M 529 96.498 C 529 96.773, 534.671 111.173, 541.602 128.498 L 554.203 160 559.406 160 L 564.609 160 576.787 129.750 C 583.484 113.112, 589.245 98.713, 589.589 97.750 C 590.130 96.235, 589.550 96, 585.266 96 L 580.318 96 569.963 122.596 L 559.607 149.192 549.082 122.596 L 538.557 96 533.778 96 C 531.150 96, 529 96.224, 529 96.498 M 788 128 L 788 160 793 160 L 798 160 798 128 L 798 96 793 96 L 788 96 788 128 M 482.127 104.439 C 466.894 109.395, 461.799 132.537, 473.111 145.389 C 479.973 153.184, 491.118 155.042, 500.945 150.028 C 516.392 142.148, 516.559 114.663, 501.212 106.178 C 495.977 103.285, 487.930 102.551, 482.127 104.439 M 619.007 104.593 C 612.475 107.426, 607.941 113.468, 606.472 121.297 L 605.777 125 627.889 125 L 650 125 649.994 122.750 C 649.976 115.289, 645.261 107.932, 638.541 104.880 C 633.572 102.622, 623.879 102.480, 619.007 104.593 M 734.395 104.908 C 732.137 105.933, 729.271 107.836, 728.025 109.136 C 725.052 112.239, 722.050 118.797, 722.022 122.250 L 722 125 744.088 125 L 766.176 125 765.509 120.750 C 764.507 114.370, 760.234 108.043, 755.093 105.328 C 749.501 102.374, 740.381 102.190, 734.395 104.908 M 837.236 103.924 C 835.440 104.380, 832.233 105.904, 830.109 107.309 C 821.052 113.303, 817.971 129.662, 823.750 141.070 C 829.559 152.537, 843.936 156.330, 855.625 149.480 C 870.854 140.555, 870.451 114.255, 854.963 106.284 C 849.928 103.693, 842.198 102.664, 837.236 103.924 M 185.125 107.630 C 183.943 108.965, 184.855 113.520, 191.591 139.916 L 199.433 170.648 203.325 171.863 L 207.216 173.077 222.358 163.541 C 267.332 135.218, 265.500 136.496, 265.500 133.427 L 265.500 130.582 226 118.325 C 204.275 111.583, 186.500 106.069, 186.500 106.072 C 186.500 106.074, 185.881 106.775, 185.125 107.630 M 156.114 125.593 C 138.055 140.693, 135.340 143.330, 135.734 145.389 C 136.121 147.414, 140.396 149.714, 164.674 160.959 C 180.341 168.215, 193.809 173.903, 194.603 173.599 C 195.396 173.294, 196.292 172.402, 196.594 171.616 C 197.058 170.406, 182.727 111.985, 181.465 109.943 C 181.226 109.557, 180.112 109.001, 178.989 108.707 C 177.426 108.299, 172.065 112.256, 156.114 125.593 M 282.117 120.207 C 278.989 124.989, 278.825 125.627, 279.934 128.693 C 280.593 130.516, 280.862 132.861, 280.531 133.903 C 280.042 135.442, 282.609 137.770, 294.215 146.313 C 302.072 152.096, 308.609 156.720, 308.743 156.588 C 309.364 155.973, 304.496 143.460, 300.904 136.435 C 297.019 128.839, 287.477 114.982, 286.155 115.018 C 285.795 115.028, 283.978 117.363, 282.117 120.207 M 111.470 126.940 C 108.906 130.904, 105.552 136.927, 104.017 140.324 C 100.839 147.358, 95.721 163.055, 96.388 163.722 C 96.632 163.966, 102.941 160.641, 110.408 156.333 C 119.435 151.125, 123.987 147.929, 123.992 146.797 C 123.996 145.860, 124.498 144.001, 125.106 142.666 C 126.048 140.600, 125.586 138.837, 122.018 130.869 C 119.710 125.716, 117.442 121.102, 116.978 120.616 C 116.504 120.121, 114.085 122.898, 111.470 126.940 M 277.254 138.235 C 275.631 140.255, 289.002 188.882, 291.549 190.222 C 292.622 190.787, 293.992 191.858, 294.594 192.602 C 295.470 193.686, 296.962 193.750, 302.094 192.923 C 314.609 190.908, 313.361 192.343, 312.723 180.696 C 312.416 175.088, 311.659 168.222, 311.040 165.438 C 309.818 159.942, 312.181 162.026, 281.385 139.271 C 278.941 137.464, 278.052 137.241, 277.254 138.235 M 237.500 156.561 C 208.150 175.180, 204.614 178.148, 210.185 179.485 C 211.458 179.790, 228.700 183.137, 248.500 186.923 C 282.041 193.335, 284.617 193.692, 286.213 192.153 C 287.827 190.596, 287.531 189.034, 281.104 165.225 C 277.352 151.323, 274.106 139.795, 273.891 139.607 C 273.676 139.419, 271.925 139.018, 270 138.715 C 266.795 138.211, 264.053 139.717, 237.500 156.561 M 110.306 158.343 C 102.500 162.829, 95.807 167.175, 95.434 168 C 94.459 170.157, 93.622 194.172, 94.381 198.219 C 95 201.517, 95.566 201.883, 111.683 209.391 C 126.771 216.419, 128.571 217.032, 130.731 215.876 C 132.414 214.976, 132.968 213.996, 132.614 212.550 C 132.337 211.422, 131.794 203.166, 131.406 194.202 C 131.018 185.238, 130.613 176.688, 130.507 175.202 C 130.400 173.716, 130.243 168.355, 130.157 163.289 C 130.019 155.215, 129.730 153.826, 127.811 152.039 C 126.608 150.918, 125.370 150.042, 125.061 150.093 C 124.753 150.144, 118.113 153.857, 110.306 158.343 M 132.711 151.392 C 131.196 152.566, 131.015 153.752, 131.533 159.139 C 131.870 162.638, 132.694 176.407, 133.364 189.737 C 134.458 211.491, 134.776 214.116, 136.465 215.351 C 138.163 216.593, 140.347 215.461, 158.923 203.713 C 170.240 196.555, 182.524 188.854, 186.220 186.599 C 192.109 183.007, 192.944 182.125, 192.970 179.469 C 193 176.470, 192.704 176.300, 165.250 163.583 C 149.988 156.514, 136.825 150.566, 136 150.368 C 135.175 150.169, 133.695 150.629, 132.711 151.392 M 205.496 184.418 L 202.492 187.431 205.656 216.466 C 207.397 232.435, 208.861 245.558, 208.911 245.629 C 208.960 245.699, 210.310 246.300, 211.911 246.963 C 214.750 248.139, 215.699 247.548, 249.851 223.335 C 269.116 209.676, 284.906 197.946, 284.940 197.269 C 285.013 195.777, 286.523 196.131, 254 190.014 C 239.425 187.272, 223.225 184.214, 218 183.217 L 208.500 181.405 205.496 184.418 M 167 201.064 C 146.187 214.316, 140.437 218.431, 140.206 220.235 C 139.936 222.345, 142.418 223.652, 170.567 236.229 C 200.596 249.646, 201.270 249.891, 203.580 248.213 C 206.541 246.061, 206.542 246.306, 203.506 217.317 C 200.219 185.927, 200.532 187.412, 196.812 185.556 C 195.096 184.700, 193.649 184.043, 193.596 184.095 C 193.543 184.147, 181.575 191.783, 167 201.064 M 303.367 194.406 C 298.718 195.324, 296.608 196.329, 294.649 198.558 C 293.227 200.176, 292.049 201.826, 292.032 202.224 C 291.974 203.538, 298.047 240.381, 298.375 240.709 C 298.552 240.885, 300.602 236.928, 302.931 231.915 C 307.303 222.505, 311.238 208.794, 312.450 198.750 C 313.245 192.161, 313.683 192.370, 303.367 194.406 M 250.750 225.127 C 219.426 247.665, 216 250.404, 216 252.908 C 216 255.642, 216.407 255.827, 242.518 264.913 L 269.035 274.140 272.852 271.117 C 278.617 266.551, 289.586 254.606, 293.415 248.723 L 296.815 243.500 293.377 222.540 C 290.175 203.014, 289.236 199.949, 286.500 200.077 C 285.950 200.103, 269.863 211.376, 250.750 225.127 M 95.317 205.599 C 95.618 206.644, 96.571 210.352, 97.434 213.838 C 99.273 221.263, 104.230 233.977, 107.240 238.986 C 111.834 246.633, 116.231 253, 116.916 253 C 117.314 253, 120.493 246.908, 123.981 239.462 C 128.799 229.179, 130.045 225.645, 129.162 224.762 C 128.523 224.123, 128 222.636, 128 221.458 C 128 219.679, 125.412 218.083, 112.750 212.053 C 93.411 202.844, 94.656 203.305, 95.317 205.599 M 137.464 225.650 C 136.449 226.392, 134.812 227, 133.827 227 C 132.511 227, 130.306 230.623, 125.518 240.651 C 121.933 248.160, 119 254.808, 119 255.425 C 119 256.437, 131.350 268.984, 136.626 273.334 C 138.685 275.031, 139.720 274.780, 169.117 265.463 C 185.817 260.170, 199.816 255.313, 200.224 254.670 C 200.633 254.026, 200.834 253.077, 200.670 252.560 C 200.507 252.043, 186.634 245.473, 169.842 237.960 C 142.824 225.872, 139.098 224.455, 137.464 225.650 M 731 271 L 731 296 745 296 L 759 296 759 293.500 L 759 291 748 291 L 737 291 737 282 L 737 273 747.070 273 C 756.940 273, 757.133 272.956, 756.820 270.750 C 756.516 268.616, 755.999 268.485, 746.750 268.214 L 737 267.928 737 259.464 L 737 251 748 251 L 759 251 759 248.500 L 759 246 745 246 L 731 246 731 271 M 766 264.288 C 766 281.267, 766.161 282.895, 768.250 287.030 C 771.571 293.603, 775.779 296, 784 296 C 791.360 296, 795.403 294.079, 799.408 288.680 C 801.338 286.078, 801.524 284.317, 801.808 265.930 L 802.117 246 799.058 246 L 796 246 796 264.050 C 796 284.429, 795.306 287.138, 789.466 289.579 C 785.089 291.407, 782.586 291.372, 778.478 289.423 C 772.802 286.729, 772 283.531, 772 263.599 L 772 246 769 246 L 766 246 766 264.288 M 171.500 266.644 C 156.650 271.299, 143.825 275.342, 143 275.629 C 140.605 276.459, 145.189 279.675, 156.500 285.099 C 168.598 290.901, 182.816 294.736, 195.544 295.630 L 205 296.295 205.004 293.398 C 205.006 291.804, 205.482 284.237, 206.061 276.583 L 207.115 262.666 204.307 260.369 C 202.763 259.106, 200.825 258.096, 200 258.126 C 199.175 258.155, 186.350 261.989, 171.500 266.644 M 212.347 260.344 C 208.683 262.850, 208.402 264.154, 207.399 283.250 L 206.729 296 209.115 295.996 C 214.358 295.987, 230.059 292.905, 237.555 290.414 C 245.557 287.754, 260.566 280.479, 264.763 277.226 C 266.992 275.498, 266.646 275.340, 241.759 266.736 C 227.861 261.931, 216.268 258.042, 215.995 258.094 C 215.723 258.146, 214.081 259.159, 212.347 260.344 M 700 290.500 L 700 296 706 296 L 712 296 712 290.500 L 712 285 706 285 L 700 285 700 290.500" stroke="none" fill="#042c94" fill-rule="evenodd"/></svg>